<?xml version="1.0" encoding="utf-8"?>
<!-- Generator: Adobe Illustrator 18.0.0, SVG Export Plug-In . SVG Version: 6.00 Build 0)  -->
<!DOCTYPE svg PUBLIC "-//W3C//DTD SVG 1.1//EN" "http://www.w3.org/Graphics/SVG/1.1/DTD/svg11.dtd">
<svg version="1.1" id="Layer_1" xmlns="http://www.w3.org/2000/svg" xmlns:xlink="http://www.w3.org/1999/xlink" x="0px" y="0px"
	 viewBox="0 0 1850 1850" enable-background="new 0 0 1850 1850" xml:space="preserve">
<g>
	<g>
		<path fill="#384AA5" d="M925,1794.6c-117.4,0-231.3-23-338.5-68.3C483,1682.5,390,1619.8,310.1,1539.9
			c-79.9-79.9-142.6-172.9-186.4-276.4C78.4,1156.3,55.4,1042.4,55.4,925s23-231.3,68.3-338.5C167.5,483,230.2,390,310.1,310.1
			C390,230.2,483,167.5,586.5,123.7C693.7,78.4,807.6,55.4,925,55.4s231.3,23,338.5,68.3c103.6,43.8,196.5,106.5,276.4,186.4
			c79.9,79.9,142.6,172.9,186.4,276.4c45.3,107.2,68.3,221.1,68.3,338.5s-23,231.3-68.3,338.5c-43.8,103.6-106.5,196.5-186.4,276.4
			s-172.9,142.6-276.4,186.4C1156.3,1771.6,1042.4,1794.6,925,1794.6z M925,392.8c-71.9,0-141.6,14.1-207.2,41.8
			c-63.4,26.8-120.3,65.2-169.2,114.1s-87.3,105.8-114.1,169.2c-27.8,65.6-41.8,135.3-41.8,207.2c0,71.9,14.1,141.6,41.8,207.2
			c26.8,63.4,65.2,120.3,114.1,169.2s105.8,87.3,169.2,114.1c65.6,27.8,135.3,41.8,207.2,41.8c71.9,0,141.6-14.1,207.2-41.8
			c63.4-26.8,120.3-65.2,169.2-114.1c48.9-48.9,87.3-105.8,114.1-169.2c27.8-65.6,41.8-135.3,41.8-207.2
			c0-71.9-14.1-141.6-41.8-207.2c-26.8-63.4-65.2-120.3-114.1-169.2c-48.9-48.9-105.8-87.3-169.2-114.1
			C1066.6,406.8,996.9,392.8,925,392.8z"/>
		<path fill="#FFFFFF" d="M925,65.4c474.7,0,859.6,384.9,859.6,859.6s-384.9,859.6-859.6,859.6S65.4,1399.7,65.4,925
			S450.3,65.4,925,65.4 M925,1467.2c299.5,0,542.2-242.8,542.2-542.2S1224.5,382.8,925,382.8c-299.5,0-542.2,242.8-542.2,542.2
			S625.5,1467.2,925,1467.2 M925,45.4c-59.7,0-119.3,6-177.2,17.9c-56.5,11.6-112,28.8-165.1,51.3c-52.1,22-102.4,49.3-149.4,81.1
			C386.6,227.1,342.8,263.2,303,303c-39.8,39.8-75.9,83.6-107.4,130.2c-31.8,47-59.1,97.3-81.1,149.4
			c-22.5,53.1-39.7,108.7-51.3,165.1C51.4,805.7,45.4,865.3,45.4,925s6,119.3,17.9,177.2c11.6,56.5,28.8,112,51.3,165.1
			c22,52.1,49.3,102.4,81.1,149.4c31.5,46.6,67.6,90.4,107.4,130.2c39.8,39.8,83.6,75.9,130.2,107.4c47,31.8,97.3,59.1,149.4,81.1
			c53.1,22.5,108.7,39.7,165.1,51.3c57.9,11.9,117.6,17.9,177.2,17.9s119.3-6,177.2-17.9c56.5-11.6,112-28.8,165.1-51.3
			c52.1-22,102.4-49.3,149.4-81.1c46.6-31.5,90.4-67.6,130.2-107.4s75.9-83.6,107.4-130.2c31.8-47,59.1-97.3,81.1-149.4
			c22.5-53.1,39.7-108.7,51.3-165.1c11.9-57.9,17.9-117.6,17.9-177.2s-6-119.3-17.9-177.2c-11.6-56.5-28.8-112-51.3-165.1
			c-22-52.1-49.3-102.4-81.1-149.4c-31.5-46.6-67.6-90.4-107.4-130.2c-39.8-39.8-83.6-75.9-130.2-107.4
			c-47-31.8-97.3-59.1-149.4-81.1c-53.1-22.5-108.7-39.7-165.1-51.3C1044.3,51.4,984.7,45.4,925,45.4L925,45.4z M925,1447.2
			c-70.5,0-138.9-13.8-203.3-41c-62.2-26.3-118-64-166-111.9c-48-48-85.6-103.8-111.9-166c-27.2-64.4-41-132.8-41-203.3
			s13.8-138.9,41-203.3c26.3-62.2,64-118,111.9-166c48-48,103.8-85.6,166-111.9c64.4-27.2,132.8-41,203.3-41s138.9,13.8,203.3,41
			c62.2,26.3,118,64,166,111.9c48,48,85.6,103.8,111.9,166c27.2,64.4,41,132.8,41,203.3s-13.8,138.9-41,203.3
			c-26.3,62.2-64,118-111.9,166c-48,48-103.8,85.6-166,111.9C1063.9,1433.4,995.5,1447.2,925,1447.2L925,1447.2z"/>
	</g>
	<g>
		<path fill="#87CE95" d="M925,1774.6c-211.9,0-414.8-78.5-571.4-220.9c-153.2-139.4-249.9-328.3-272.8-533l66.7-10.6
			c11.4-1.8,19.6-11.6,19.6-23.2v-0.1c0-32.9,26.7-59.6,59.6-59.6c26.3,0,49.2,16.9,56.9,42c2.9,9.3,11.3,15.6,21,15.6
			c1.2,0,2.3-0.1,3.5-0.3l67.1-10.7c11.8,135.2,72.7,260.5,172.2,353.9C650,1423.9,784.1,1477,925,1477c140,0,273.6-52.5,376-147.9
			c99.2-92.4,160.6-216.6,173.5-350.7l78.8,13l1-10.6c3-30.6,28.5-53.6,59.3-53.6c0.4,0,0.7,0,1.1,0c15.8,0.3,30.7,6.8,41.8,18.3
			c11.1,11.5,17,26.7,16.7,42.5c-0.1,4.1-0.6,8.1-1.5,12.1l-2.4,10.4l99.2,16.2c-24.3,203.3-121.4,390.8-274.2,528.9
			c-76.4,69.1-163.6,123.1-259,160.5C1136.5,1754.9,1032.1,1774.6,925,1774.6z"/>
		<path fill="#384AA5" d="M1613.6,937.1c0.3,0,0.6,0,0.9,0c13.2,0.2,25.5,5.7,34.7,15.3c9.3,9.6,14.2,22.2,13.9,35.4
			c-0.1,3.4-0.5,6.8-1.2,10.1l-4.8,20.8l21,3.4l79.2,13c-25.8,197.3-121.2,378.9-269.8,513.2c-37.3,33.7-77.7,64.1-120.3,90.6
			c-43,26.7-88.7,49.6-135.7,68.1c-97.6,38.3-200.8,57.8-306.6,57.8c-106.3,0-210-19.6-308-58.3c-47.2-18.6-93-41.7-136.2-68.7
			c-42.7-26.7-83.3-57.4-120.6-91.3c-149-135.6-243.9-318.7-268.5-517.3l57.2-9.1c16.3-2.6,28.1-16.5,28-33.1v0l0-0.1
			c0-27.3,22.2-49.6,49.6-49.6c10.8,0,21.1,3.4,29.7,9.9c8.4,6.3,14.6,15.1,17.7,25c4.2,13.5,16.5,22.6,30.6,22.6
			c1.7,0,3.4-0.1,5-0.4l56.6-9c6.8,63.9,24.3,125.5,52.2,183.4c30.2,62.6,71.2,118.5,122.1,166.2C645,1433,781.6,1487,925,1487
			c142.6,0,278.5-53.5,382.8-150.5c50.7-47.2,91.9-102.6,122.2-164.7c28.1-57.4,46-118.4,53.2-181.8l57.8,9.5l21,3.5l2.1-21.2
			c1.2-12.2,6.9-23.4,16-31.7C1589.4,941.7,1601.2,937.1,1613.6,937.1 M1613.6,917.1c-36.1,0-65.8,27.5-69.2,62.7l-79-13
			C1444.1,1246.6,1210.3,1467,925,1467c-286.9,0-521.7-222.9-540.7-504.9l-77.8,12.4c-0.6,0.1-1.3,0.2-1.9,0.2
			c-5.2,0-9.9-3.4-11.5-8.5c-8.8-28.4-35.2-49-66.5-49c-38.4,0-69.6,31.2-69.6,69.6c0,0,0,0.1,0,0.1c0,6.6-4.7,12.3-11.2,13.3
			l-76,12.1c43.7,433.7,409.9,772.3,855.2,772.3c443.2,0,808-335.4,854.5-766.2l-98.1-16.1c1-4.6,1.6-9.3,1.7-14.1
			c0.8-38.3-30-70.4-68.3-71.1C1614.5,917.1,1614,917.1,1613.6,917.1L1613.6,917.1z"/>
	</g>
	<g>
		<path fill="#FFFFFF" stroke="#384AA5" stroke-width="10" stroke-miterlimit="10" d="M189.4,681.5c4.9-14.5,14-24.8,27-31.1
			c-7.7-4-10.3-9.5-7.9-16.6c2.9-8.5,8.5-11.4,16.8-8.6c1.4,0.5,4,1.7,8,3.7c5.9,2.9,10,4.8,12.2,5.5c2.5,0.8,4.4,1.3,5.7,1.5
			c4.5,1.2,7,1.9,7.6,2.1c3.6,1.2,6,3.8,7.4,7.8c1.3,4,1.1,8.5-0.6,13.4c-2.7,8-8.3,11.5-16.7,10.4c-8.4-1-14.6-0.5-18.7,1.6
			c-4,2.1-7.2,6.5-9.5,13.2c-3.1,9-1.3,17.3,5.4,25c6.7,7.7,17.6,14.2,32.9,19.4c12.9,4.4,23.8,5.5,32.7,3.2
			c8.9-2.3,14.7-7.6,17.6-16c1.8-5.4,1.8-10.3-0.1-14.9c-1.9-4.6-5.2-7.7-9.9-9.3c-5.8-2-9.5-0.6-11.1,4.3c-0.1,0.3-0.2,0.7-0.4,1.2
			c0,0.6-0.1,1.1-0.3,1.5c-0.5,2.3-0.8,3.6-0.9,3.9c-0.9,2.8-2.9,4.7-6,5.8c-3.1,1.1-6.4,1-10-0.2c-4.1-1.4-7-3.9-8.5-7.5
			c-1.5-3.6-1.6-7.6,0-12c1-2.9,2.9-7.1,5.6-12.7c2.8-5.6,4.7-9.9,5.7-12.9c1.6-4.5,2.9-9.7,3.9-15.5c0.8-4.6,1.5-7.8,2.1-9.4
			c1.5-4.4,4-7.5,7.6-9.3s7.6-1.9,12.1-0.4c3.9,1.3,6.9,3.4,8.9,6.3c2,2.8,2.5,5.7,1.5,8.6l-1.7,5c-1.3,3.7,1.2,6.6,7.5,8.8
			c2.6,0.9,5.4,1.8,8.4,2.6l9.1,2.6c3.1,0.9,6,1.8,8.8,2.8c9.3,3.2,12.2,9.9,8.7,20.1c-3.3,9.6-8.3,13.3-15.1,11l-1.2-0.4
			c4.3,12.1,4.4,24.2,0.3,36.3c-3.6,10.6-9.8,19.6-18.6,27.1c-8.8,7.5-18.4,11.8-28.8,13c-13.3,1.6-27.5-0.2-42.7-5.4
			c-23.1-7.9-39.6-19.5-49.4-34.9C184.9,716.9,183.1,700,189.4,681.5z"/>
		<path fill="#FFFFFF" stroke="#384AA5" stroke-width="10" stroke-miterlimit="10" d="M422.1,560.4c-13,17.9-28.4,27.8-46.4,29.7
			c-17.9,1.9-36.8-4.3-56.8-18.8c-19.2-13.9-30.8-29.7-34.7-47.5c-4-17.7,0.2-35.1,12.6-52.2c13-17.9,28.5-28,46.5-30.2
			c18-2.2,36.6,3.6,55.8,17.5c19.9,14.4,31.9,30.6,36,48.3C439.2,525.1,434.8,542.8,422.1,560.4z M322.5,488.4
			c-11.1,15.3-4.2,32,20.8,50.1c11.9,8.6,21.8,13.6,29.7,14.8c9.8,1.6,17.9-2,24.1-10.6c11-15.2,4.4-31.6-19.9-49.2
			c-13.4-9.7-24.5-15-33.2-15.8C335.4,476.9,328.2,480.5,322.5,488.4z"/>
		<path fill="#FFFFFF" stroke="#384AA5" stroke-width="10" stroke-miterlimit="10" d="M518.4,388.3c-3.2,2.3-3.5,5.2-0.8,8.7
			l4.1,5.4c2.9,3.9,6.1,4.5,9.6,1.8c1.4-1.1,3-2.6,4.8-4.5c2.2-2.4,4.2-4.3,5.9-5.6c2.9-2.2,6-2.9,9.3-2.2s6.3,2.9,9,6.4
			c2.9,3.8,4.1,7.8,3.5,11.9c-0.6,4.1-2.7,7.5-6.4,10.3c-3.2,2.5-8.3,5.8-15.1,10.1c-6.8,4.3-11.8,7.6-15.1,10.1
			c-5,3.8-9,7.1-12.1,10l-7.9,7.3c-2.1,2-3.6,3.3-4.4,3.9c-3.7,2.8-7.6,3.9-11.6,3.3c-4-0.6-7.5-2.8-10.4-6.6
			c-2.5-3.2-3.6-6.6-3.5-10.2c0.1-3.6,1.5-6.4,4.2-8.4c1-0.8,2.6-1.7,4.8-2.7c2.2-1,3.6-1.8,4.5-2.4c3.1-2.4,1.7-7.5-4.3-15.4
			L450,371.5c-2.8-3.7-4.7-6-5.8-6.9c-2.9-2.6-5.5-3-7.8-1.2c-0.9,0.7-2.1,1.9-3.6,3.7c-1.5,1.8-2.8,3.1-3.8,3.8
			c-2.7,2-5.7,2.6-9.2,1.8c-3.5-0.8-6.4-2.9-8.9-6.1c-2.9-3.8-4.1-7.8-3.6-11.9c0.5-4.1,2.6-7.6,6.3-10.4c0.1-0.1,0.3-0.2,0.5-0.4
			c0.3-0.1,0.6-0.2,0.8-0.4c2.8-2.1,7.2-5,13.3-8.8c6.1-3.7,10.6-6.7,13.5-8.9c5.6-4.2,11.5-9.1,17.7-14.6
			c7.7-7.2,12.2-11.2,13.3-12.1c12.6-9.6,25.6-13.8,38.8-12.6c13.3,1.2,24.3,7.6,33.2,19.3c9.2,12.1,12.5,24.8,9.8,38
			c-2.7,13.2-10.9,25.1-24.8,35.7c-1.2,0.9-3.4,2.6-6.6,5L518.4,388.3z M491.2,362.2c2.5,3.3,4.3,5.1,5.5,5.4
			c1.2,0.3,3.1-0.4,5.7-2.3l2.8-2.1c14.3-9.6,17-20.2,8.1-31.8c-8.5-11.2-18.9-12.1-31.2-2.8c-3,2.3-5,4.1-5.9,5.3
			c-1.6,2.2-1.8,4.5-0.6,7.1c0.7,1.4,1.9,3.2,3.7,5.5L491.2,362.2z"/>
		<path fill="#FFFFFF" stroke="#384AA5" stroke-width="10" stroke-miterlimit="10" d="M666.8,240.9l5,14.6l43.4-14.8l-5-14.6
			c-1.5-4.3-2.3-6.6-2.6-7c-1.4-2.8-3.2-3.8-5.4-3c-1,0.3-1.8,0.6-2.5,0.8l-1.9,0.6c-6.1,2.1-10.5-1.1-13.4-9.4
			c-1.5-4.5-1.5-8.6,0.1-12.2c1.6-3.6,4.5-6.1,8.6-7.5c2.8-0.9,7-2,12.8-3.1c5.8-1.1,10-2.2,12.8-3.1c3.6-1.2,8-3,13.1-5.4
			c9-4.2,13.5-6.2,13.3-6.2c4.4-1.5,8.4-1.3,12.1,0.6c3.7,1.9,6.3,5.1,7.8,9.7c1.3,3.9,1.4,7.5,0.1,10.8c-1.2,3.3-3.4,5.6-6.6,6.6
			c-1.2,0.4-3,0.8-5.3,1c-2.3,0.2-4,0.6-5.1,0.9c-2.8,0.9-4,3.3-3.6,7c0.2,1.5,1,4.4,2.6,8.8l19.6,57.2c3.2,9.4,6.7,13.4,10.4,12.1
			c1.1-0.4,2.7-1.2,4.7-2.4c2-1.2,3.6-2,4.7-2.4c3.2-1.1,6.3-0.7,9.4,1.2c3.1,1.9,5.3,4.7,6.6,8.6c1.6,4.5,1.5,8.7-0.2,12.4
			c-1.7,3.7-4.8,6.4-9.2,7.9c-0.1,0-0.4,0.1-0.8,0.3c-0.3,0-0.6,0-0.9,0.1c-2.8,0.9-7,2-12.7,3.2c-5.7,1.2-10.1,2.3-13,3.3
			c-5.4,1.8-9.8,3.7-13.3,5.6c-5.3,2.8-9.2,4.7-11.5,5.5c-4,1.4-7.7,1.1-11.3-0.9c-3.5-1.9-6-5.2-7.6-9.7
			c-2.9-8.4-1.3-13.6,4.8-15.7c0.8-0.3,1.4-0.5,1.9-0.6s0.9-0.3,1.4-0.5c0.5-0.2,0.9-0.3,1-0.4c2.2-0.8,3-2.7,2.4-5.9
			c-0.4-1.6-1.1-3.9-2.2-7l-6.9-20.3L681,282.4l6.9,20.3c1.6,4.7,2.4,7,2.5,7.2c1.4,2.7,3.3,3.7,5.6,2.9c0.1,0,0.5-0.2,1-0.4
			c0.5-0.2,1-0.3,1.2-0.4c0.4-0.1,1-0.4,1.9-0.6c6.1-2.1,10.5,1.1,13.4,9.5c1.6,4.5,1.5,8.7,0,12.4c-1.6,3.7-4.4,6.2-8.4,7.6
			c-2.5,0.8-6.4,1.8-11.6,2.7c-5.3,1-9.2,1.9-11.9,2.8c-5.9,2-11,4.1-15.2,6.2c-6.3,3.2-10.8,5.2-13.4,6.1
			c-4.4,1.5-8.4,1.3-12.1-0.5c-3.6-1.9-6.2-5.1-7.8-9.6c-1.3-3.9-1.3-7.5,0-10.9c1.3-3.4,3.5-5.6,6.7-6.7c1.1-0.4,2.8-0.7,5.1-0.9
			c2.3-0.2,4-0.6,5.1-0.9c3.7-1.3,4-6.6,0.8-16l-19.6-57.2c-3.2-9.2-6.6-13.2-10.3-11.9c-1.1,0.4-2.6,1.2-4.6,2.4
			c-2,1.2-3.6,2-4.8,2.5c-3.2,1.1-6.3,0.7-9.3-1.2c-3-1.9-5.2-4.8-6.5-8.7c-1.6-4.6-1.4-8.7,0.4-12.4c1.8-3.7,4.9-6.3,9.3-7.8
			c1.4-0.5,5.9-1.5,13.7-3.2c5.2-1.1,10.2-2.5,15.2-4.2c4.3-1.5,8.2-3.1,11.7-5c5.2-2.8,9-4.6,11.3-5.4c4.1-1.4,7.9-1.1,11.4,0.8
			c3.4,2,5.9,5.2,7.5,9.7c2.8,8.2,1.2,13.3-4.9,15.4l-1.9,0.6c-0.6,0.2-1.3,0.4-2.3,0.8c-2.3,0.8-3.2,2.7-2.6,5.8
			C664.4,234,665.2,236.4,666.8,240.9z"/>
		<path fill="#FFFFFF" stroke="#384AA5" stroke-width="10" stroke-miterlimit="10" d="M925.7,180.9c-4.8,0.1-8,0.6-9.6,1.5
			c-2.2,1.3-3.2,4.3-3.1,8.8l0.2,12.2c0,2.5,0.4,4.3,1,5.6c0.7,1.2,2.3,1.8,5,1.8c6.2-0.1,9.3-2.5,9.2-7.1l0-2.8c0-0.9,0-2-0.1-3.3
			c-0.1-6.1,3.5-9.2,10.9-9.3c7.6-0.1,11.5,3.5,11.6,10.9c0,2-0.1,4.3-0.5,6.8c-0.7,4.8-1,9.3-0.9,13.3c0.1,3.8,0.4,8.6,1.1,14.4
			c0.7,5.8,1,9.9,1.1,12.2c0.1,8.6-3.6,12.9-11.4,13.1c-7.3,0.1-11-3.5-11.1-11l0-1.1c0-0.7,0-2.5-0.1-5.2c-0.1-3.5-3.1-5.2-9.2-5.1
			c-4.1,0.1-6.1,2.4-6,7.1l0.3,16.4c0.1,5.1,1,8.5,2.9,10.3c1.8,1.8,5.2,2.6,10.2,2.6l12.7-0.2c9.3-0.2,15.8-1.1,19.5-2.7
			c3.7-1.7,5.5-4.5,5.4-8.6c0-2-0.3-4.5-0.8-7.3c-0.5-2.8-0.7-5.2-0.8-7.1c-0.1-5.4,1.4-9.6,4.4-12.7c3-3.1,7.1-4.7,12.4-4.8
			c10.6-0.2,16,5.6,16.2,17.2c0.1,3.8-0.1,7.8-0.5,12c-0.6,7-0.9,11.4-0.9,13.1c0,1.6,0.4,4.7,1.2,9.4c0.5,2.8,0.7,5.6,0.8,8.5
			c0.1,6.8-4.1,10.3-12.7,10.5c-2.8,0-7.4-0.1-13.8-0.4c-10.6-0.6-27.6-0.8-50.9-0.7l-19.4,0.3c-7.3,0.1-13.3,0.4-18.1,0.9
			l-16.6,1.6c-0.1,0-0.4,0.1-0.9,0.2c-0.4,0-0.8,0-1.1,0c-4.5,0.1-8.2-1.4-11.1-4.4c-2.9-3-4.4-6.8-4.4-11.5
			c-0.1-4.1,1-7.5,3.2-10.3c2.2-2.8,5.1-4.2,8.6-4.3c1.2,0,2.9,0.2,5.3,0.8c2.3,0.5,4,0.8,5,0.8c3.9-0.1,5.8-5,5.7-14.9l-1-60.5
			c-0.2-9.7-2.2-14.6-6.1-14.5c-0.9,0-2.6,0.3-5.2,1c-1.9,0.5-3.6,0.7-5,0.7c-3.3,0.1-6.2-1.3-8.6-4c-2.4-2.7-3.6-6.1-3.7-10.2
			c-0.2-10.6,5.1-16,15.7-16.2c2.5,0,7.5,0.2,15.1,0.6c11.4,0.7,22.4,0.9,33.1,0.8c1,0,9.8-0.4,26.3-1.1c12-0.5,19.8-0.9,23.6-1.3
			c6.3-0.5,12.8-0.9,19.7-1c8.2-0.1,12.3,3.4,12.4,10.5c0,2.3-0.2,5.8-0.8,10.3c-0.6,4.5-0.9,7.9-0.8,10.3c0,2.3,0.4,5.6,1.1,9.9
			c0.7,4.3,1.1,7.5,1.1,9.7c0.1,4.2-1.4,7.8-4.5,10.8c-3.1,3-7,4.5-11.6,4.6c-10.9,0.2-16.5-5.3-16.6-16.5c0-1.9,0.3-4.5,0.9-7.9
			c0.6-3.4,0.9-5.8,0.9-7.4c-0.1-3.2-1.8-5.1-5.1-5.8c-1.2-0.3-4.2-0.4-9.2-0.3L925.7,180.9z"/>
		<path fill="#FFFFFF" stroke="#384AA5" stroke-width="10" stroke-miterlimit="10" d="M1193.6,266.6c-4.9,1.5-12,1.8-21.2,1
			c9.4,4.9,15.5,10.1,18.3,15.7s2.8,12.5,0.1,20.8c-0.8,2.5-1.6,4.9-2.4,7.3l-0.8,2.5c-1.8,5.7-1.1,9.1,2.2,10.1
			c0.8,0.3,2.1,0.5,4,0.7c1.8,0.2,3.2,0.4,4,0.7c3,1,5,3,6.1,6.2c1,3.2,0.9,6.8-0.5,11c-1.5,4.6-4,7.8-7.6,9.6
			c-3.6,1.8-7.6,2-12,0.6c-1.5-0.5-3.8-1.4-6.9-2.8c-3.1-1.4-5.4-2.3-6.9-2.8c-1.7-0.5-4.2-1.2-7.5-1.9c-3.4-0.7-5.9-1.3-7.5-1.9
			c-5.1-1.7-8.6-5.1-10.3-10.3c-1.7-5.2-1.5-11.3,0.7-18.2c0.2-0.7,0.6-1.1,1.1-1.3l3.9-12l0.5-1.5c2.3-7.2,2.1-12.8-0.7-16.7
			c-2.8-4-8.9-7.5-18.5-10.6c-3.9-1.3-6.6-1-8.3,0.8c-1.1,1.2-2.3,3.6-3.5,7.3l-1.5,4.8c-3,9.4-2.8,14.7,0.6,15.8
			c1,0.3,2.5,0.6,4.7,0.7c2.2,0.2,3.8,0.4,4.9,0.8c2.9,0.9,4.9,3.1,6.1,6.3c1.2,3.3,1.1,6.9-0.1,10.7c-3.3,10.1-9.8,13.6-19.4,10.5
			c-3.3-1.1-7.7-2.9-13.2-5.4c-5.5-2.5-10.3-4.5-14.4-5.8c-4.4-1.4-9.7-2.7-15.7-3.9c-6-1.2-11.1-2.4-15.1-3.7
			c-10.1-3.3-13.5-10-10.3-20.1c1.3-3.9,3.4-6.8,6.4-8.7c3-1.9,6.1-2.4,9.3-1.4c1.2,0.4,2.9,1.2,5,2.4c2.1,1.2,3.6,2,4.5,2.3
			c3.7,1.2,7.1-2.9,10.2-12.3l18.6-57.5c1.4-4.4,2.2-7.3,2.3-8.6c0.5-3.8-0.7-6.2-3.4-7.1c-1.1-0.4-2.8-0.6-5.1-0.9
			c-2.3-0.2-4.1-0.5-5.3-0.9c-3.2-1-5.4-3.2-6.7-6.5c-1.3-3.3-1.3-6.9-0.1-10.8c1.4-4.4,4-7.7,7.6-9.7s7.6-2.4,11.9-1
			c0.8,0.3,1.4,0.5,1.8,0.8l14.3,6.2c4,1.8,8.4,3.4,13.1,4.9c8.2,2.6,18.6,5.5,31.4,8.6c8.5,2.1,14.7,3.9,18.8,5.2
			c13.2,4.3,22.5,10.9,28.1,20c5.6,9.1,6.5,19.3,2.8,30.7C1208.5,257.6,1202.4,264,1193.6,266.6z M1156.9,219.2
			c-5.5-1.8-9.3-2.6-11.1-2.5c-3.5,0.4-6,2.9-7.5,7.5l-4.1,12.5c-1,3.2-1.2,5.5-0.5,6.8c0.7,1.3,2.5,2.4,5.4,3.4
			c18,5.8,28.7,3.4,32.2-7.4C1174.5,230.1,1169.6,223.3,1156.9,219.2z"/>
		<path fill="#FFFFFF" stroke="#384AA5" stroke-width="10" stroke-miterlimit="10" d="M1365.9,288c11.4,7.9,18.4,19,21.1,33.3
			c0.2-0.4,0.7-1,1.2-1.8c4.7-6.7,10.6-7.5,17.7-2.6c3.3,2.3,5.3,5.3,6,8.8c0.6,3.5-0.2,7-2.5,10.3c-1.1,1.6-2.8,3.7-5.2,6.5
			c-3.9,4.5-6.6,7.9-8.1,10c-1.1,1.6-2.5,4-4.2,7.3c-1.7,3.3-3.1,5.8-4.2,7.3c-2.6,3.7-6,5.8-10.3,6.2c-4.3,0.4-8.6-0.9-12.9-3.9
			c-9.1-6.3-10.9-13.2-5.4-20.5l3.9-5.6c2.9-3.9,3.5-8.2,2-13.1c-1.5-4.9-4.9-9.1-10-12.7c-15.9-11.1-32.7-4-50.3,21.4
			c-9.1,13.1-13.9,24.1-14.2,32.8c-0.3,8.7,3.8,16,12.2,22c5.3,3.7,10.4,5.4,15.5,5.3c5-0.1,8.9-2.2,11.5-6.2l4.5-6.5
			c2.5-3.8,5.7-5.9,9.8-6.5c4.1-0.5,8.1,0.6,12,3.3c5,3.5,7.8,7.9,8.4,13.3c0.6,5.4-1.1,10.9-5.1,16.7
			c-7.9,11.4-18.9,17.5-32.9,18.5c-14,1-28.2-3.5-42.4-13.4c-17.4-12.1-27.3-27.3-29.7-45.4c-2.4-18.1,3.1-36.8,16.5-56
			c13.8-19.8,29.2-32.3,46.2-37.4C1333.8,274.2,1350.2,277.1,1365.9,288z"/>
		<path fill="#FFFFFF" stroke="#384AA5" stroke-width="10" stroke-miterlimit="10" d="M1409.1,535.8c-13.9-17.2-19.4-34.7-16.6-52.5
			c2.8-17.8,13.8-34.4,33-49.9c18.5-14.9,36.8-21.9,54.9-21.1c18.1,0.8,33.8,9.4,47.1,25.8c13.9,17.2,19.6,34.8,17,52.7
			c-2.5,17.9-13,34.4-31.5,49.2c-19.1,15.4-37.8,22.8-56.1,22.1S1422.7,552.6,1409.1,535.8z M1504.6,458.5
			c-11.9-14.7-29.8-12.4-53.8,7c-11.4,9.2-18.8,17.5-22.1,24.8c-4.1,9.1-2.8,17.8,3.9,26c11.8,14.6,29.3,12.5,52.7-6.3
			c12.9-10.4,20.9-19.7,23.9-27.9C1512.3,473.9,1510.7,466,1504.6,458.5z"/>
		<path fill="#FFFFFF" stroke="#384AA5" stroke-width="10" stroke-miterlimit="10" d="M1633.3,657.6l-74.2,68.5l60.6-22.5
			c9.1-3.4,13.1-6.9,11.7-10.4c-0.4-1-1.1-2.3-2.3-3.9c-1.2-1.7-1.9-3-2.3-3.9c-1.1-2.9-0.7-5.8,1.2-8.7c1.9-2.9,4.7-5.1,8.5-6.5
			c4.5-1.7,8.6-1.7,12.3-0.1c3.7,1.6,6.3,4.5,7.9,8.7c0.8,2.2,1.9,6.1,3.2,11.6c1.3,5.6,2.7,10.4,4.2,14.5c1.4,3.7,3.2,7.9,5.6,12.6
			c3.6,7.1,5.7,11.5,6.3,13.3c1.6,4.4,1.6,8.4-0.1,12.2c-1.7,3.7-4.8,6.4-9.3,8.1c-3.8,1.4-7.4,1.5-10.8,0.3
			c-3.4-1.2-5.7-3.4-6.8-6.5c-0.5-1.2-0.8-3-1.1-5.2c-0.3-2.2-0.6-3.9-1-5c-1-2.7-3.4-3.9-7.1-3.4c-1.5,0.2-4.4,1.2-8.7,2.8
			l-83.3,30.9c-9,3.3-14.9,1.3-17.6-6c-0.5-1.4-1.2-3.5-2-6.4c-0.8-2.9-1.5-5-2-6.4c-0.1-0.1-1.5-3.4-4.3-9.8l-1.7-4.5
			c-1.5-4-1.6-7.2-0.4-9.9c0.7-1.5,3-4.2,7.1-8l75.6-73l-61.8,22.9c-9.3,3.4-13.3,6.9-11.9,10.5c0.4,1,1.1,2.3,2.3,4.1
			c1.2,1.8,2,3.2,2.3,4.1c1.1,2.9,0.7,5.8-1.2,8.7c-1.9,2.9-4.7,5.1-8.5,6.5c-10,3.7-16.7,0.8-20.3-8.8c-1-2.7-2.3-7.4-3.8-14
			c-1-4.4-2.3-8.8-3.9-13c-1.3-3.5-3.4-8.2-6.3-13.9c-2.9-5.8-4.7-9.4-5.3-11.1c-3.7-10-0.6-16.8,9.4-20.5c3.8-1.4,7.4-1.6,10.8-0.4
			c3.4,1.2,5.6,3.3,6.8,6.4c0.5,1.2,0.8,3,1.1,5.3c0.3,2.3,0.7,4,1.1,5.1c1.4,3.7,6.7,3.8,16,0.4l56.7-21c9.1-3.4,13-6.9,11.7-10.6
			c-0.4-1.1-1.2-2.6-2.5-4.5c-1.3-1.9-2.1-3.5-2.6-4.7c-1.2-3.1-0.8-6.2,1-9.3c1.8-3.1,4.6-5.3,8.4-6.7c4.5-1.7,8.6-1.6,12.4,0.1
			c3.7,1.7,6.4,4.8,8,9.1c1.1,2.9,2.3,7.2,3.6,12.9c1.3,5.7,2.6,10.1,3.8,13.3c1,2.6,2.9,6.9,5.8,13c1.2,2.8,2.7,6,4.5,9.5
			c0.9,1.5,1.7,3.3,2.4,5.2c1.4,3.7,1,7.1-1.1,10.2C1640.3,650.9,1637.7,653.5,1633.3,657.6z"/>
	</g>
	<g>
		<path fill="#FFFFFF" stroke="#384AA5" stroke-width="10" stroke-miterlimit="10" d="M242.3,1217c1.7,3.3,6.6,2.8,14.8-1.4l50-25.7
			c8.1-4.1,11.3-7.8,9.6-11.1c-0.5-1-1.4-2.3-2.8-3.9c-1.4-1.7-2.3-3-2.9-4.1c-1.4-2.8-1.5-5.7-0.1-8.7c1.3-3,3.7-5.4,7.1-7.2
			c4-2,7.8-2.5,11.4-1.3c3.6,1.2,6.5,3.7,8.4,7.5c1,2,2.8,6.4,5.4,13.2c1.7,4.5,3.5,8.6,5.5,12.5c0.7,1.4,2.7,4.7,5.7,9.8l7.7,12.7
			c2,3.4,3.9,6.7,5.6,10.1c11.2,21.8,10,42.1-3.6,61c-7.6,10.6-17.4,19-29.3,25.1c-11.9,6.1-24.2,9.2-36.8,9.3
			c-12.6,0.1-23.4-2.9-32.4-8.9c-7.9-5.4-14.5-13.2-19.9-23.6c-2.1-4.1-3.8-7.6-5-10.7l-5.7-13.7c-1.2-3-2.9-6.4-4.8-10.3
			c-2.5-4.8-4.7-8.8-6.7-11.8l-4.4-6.9c-1.8-2.6-2.9-4.3-3.3-5.1c-2-3.9-2.4-7.6-1.2-11.2c1.2-3.6,3.7-6.5,7.7-8.5
			c3.4-1.7,6.7-2.2,9.9-1.6c3.2,0.7,5.6,2.4,7,5.2c0.6,1.1,1.1,2.7,1.7,4.8C241.3,1214.7,241.8,1216.2,242.3,1217z M341.5,1225.4
			c-2.1-4.1-4.1-6.5-6.1-7.2c-2-0.7-4.8-0.1-8.6,1.8l-56.9,29.2c-3.7,1.9-5.9,3.9-6.5,6c-0.6,2.1,0.1,5.1,2.2,9.2
			c3.4,6.6,9.2,11.2,17.3,13.7c9.5,2.9,20.6,1.1,33.1-5.3c14.1-7.2,22.9-15.6,26.5-25.2c1.6-4.3,2.2-8.4,1.9-12.4
			C344.1,1231.8,343.1,1228.6,341.5,1225.4z"/>
		<path fill="#FFFFFF" stroke="#384AA5" stroke-width="10" stroke-miterlimit="10" d="M452.2,1379.5c-3.1-3.2-5.4-5.1-7.1-5.6
			c-2.3-0.6-4.9,0.5-8,3.4l-8.2,7.9c-1.7,1.6-2.7,3-3.1,4.2c-0.4,1.2,0.2,2.7,2,4.5c4,4.2,7.6,4.8,10.7,1.8l1.9-1.8
			c0.6-0.6,1.3-1.3,2.2-2.1c4.1-3.9,8.5-3.4,13.2,1.5c4.9,5.1,4.9,10.1-0.1,14.9c-1.4,1.3-3,2.6-4.9,4c-3.7,2.6-7,5.2-9.7,7.8
			c-2.5,2.4-5.6,5.7-9.1,9.8c-3.5,4.1-6.1,6.9-7.7,8.4c-5.8,5.5-11.1,5.7-16.1,0.5c-4.7-4.9-4.5-9.7,0.5-14.5l0.7-0.7
			c0.5-0.5,1.7-1.6,3.5-3.4c2.3-2.2,1.6-5.4-2.3-9.5c-2.6-2.8-5.5-2.6-8.6,0.4l-11,10.5c-3.4,3.3-5.2,6.1-5.2,8.5
			c-0.1,2.4,1.5,5.2,4.7,8.6l8.1,8.5c6,6.3,10.7,10.1,14.2,11.6c3.5,1.5,6.6,0.9,9.3-1.7c1.4-1.3,2.9-3,4.5-5.1
			c1.6-2.1,3.1-3.8,4.3-5c3.6-3.5,7.4-5.1,11.5-5.1c4,0.1,7.7,1.9,11.1,5.4c6.8,7.1,6.3,14.5-1.5,21.9c-2.5,2.4-5.4,4.9-8.5,7.3
			c-5.2,4-8.3,6.6-9.5,7.7c-1.1,1-2.9,3.3-5.6,6.8c-1.6,2.1-3.3,4-5.3,5.9c-4.6,4.4-9.7,3.7-15.2-2.1c-1.8-1.9-4.6-5.1-8.4-9.7
			c-6.3-7.6-16.9-19.3-31.7-35.2l-12.5-13.1c-4.7-4.9-8.7-8.8-12.1-11.8l-11.6-10.3c-0.1-0.1-0.3-0.3-0.7-0.5
			c-0.3-0.3-0.5-0.5-0.7-0.7c-2.9-3-4.2-6.5-4-10.4c0.2-3.9,1.9-7.3,5-10.3c2.7-2.6,5.8-4.1,9.1-4.3c3.3-0.3,6.1,0.8,8.3,3.1
			c0.7,0.8,1.7,2.1,2.8,4.1c1.1,1.9,2,3.2,2.6,3.9c2.5,2.6,7.1,0.8,13.8-5.6l40.7-38.8c6.6-6.3,8.6-10.7,6-13.4
			c-0.6-0.6-1.9-1.6-4-3c-1.5-1-2.7-2-3.7-3c-2.2-2.3-3-5-2.7-8.4c0.4-3.3,1.9-6.3,4.7-8.9c7.1-6.8,14.1-6.7,21,0.5
			c1.6,1.7,4.6,5.2,9.1,10.7c6.7,8.2,13.5,15.9,20.4,23.1c0.7,0.7,6.4,6.4,17.3,17.2c7.9,7.9,13.1,13,15.8,15.3
			c4.3,3.9,8.7,8.2,13.1,12.8c5.2,5.5,5.5,10.5,0.7,15.1c-1.6,1.5-4.1,3.5-7.5,5.9c-3.5,2.5-6,4.4-7.5,5.9c-1.6,1.5-3.6,3.8-6,7
			c-2.5,3.2-4.4,5.5-5.9,6.9c-2.8,2.7-6.2,4-10.2,3.7c-4-0.2-7.4-1.9-10.4-5c-7-7.3-6.8-14.6,0.8-21.8c1.3-1.2,3.2-2.7,5.9-4.4
			c2.7-1.7,4.5-3.1,5.6-4.1c2.2-2.1,2.4-4.4,0.7-7.2c-0.6-1-2.4-3.1-5.6-6.4L452.2,1379.5z"/>
		<path fill="#FFFFFF" stroke="#384AA5" stroke-width="10" stroke-miterlimit="10" d="M612.7,1488.1l-10.4,93.4l28.9-52.7
			c4.4-8,5-12.8,1.9-14.5c-0.8-0.5-2.2-0.9-4-1.4c-1.8-0.5-3.2-0.9-4-1.4c-2.5-1.4-4-3.6-4.5-6.8c-0.5-3.2,0.2-6.5,2-9.8
			c2.1-3.9,5-6.4,8.6-7.6c3.6-1.1,7.2-0.7,10.9,1.3c1.9,1,5,3.1,9.3,6.3c4.3,3.1,8.2,5.7,11.8,7.6c3.2,1.8,7.1,3.6,11.6,5.4
			c6.8,2.8,11,4.6,12.5,5.5c3.8,2.1,6.2,5,7.3,8.6c1.1,3.7,0.5,7.5-1.6,11.4c-1.8,3.3-4.3,5.6-7.4,6.8c-3.1,1.2-6.1,1.1-8.8-0.4
			c-1.1-0.6-2.4-1.6-3.9-3c-1.6-1.4-2.8-2.3-3.8-2.9c-2.4-1.3-4.7-0.7-7.1,1.9c-0.9,1.1-2.4,3.5-4.5,7.3l-39.7,72.5
			c-4.3,7.8-9.6,10-16,6.5c-1.2-0.7-3-1.7-5.3-3.2c-2.3-1.5-4.1-2.6-5.3-3.2c-0.1-0.1-3.1-1.5-9-4.2l-3.9-2.1
			c-3.4-1.9-5.5-4.1-6.3-6.7c-0.4-1.5-0.4-4.8,0.1-9.9l8.6-97.3l-29.4,53.8c-4.4,8.1-5.1,13-2,14.6c0.8,0.5,2.2,0.9,4.2,1.5
			c1.9,0.5,3.3,1,4.2,1.5c2.5,1.4,4,3.6,4.5,6.8c0.5,3.2-0.2,6.5-2,9.8c-4.7,8.7-11.3,10.7-19.6,6.2c-2.4-1.3-6.1-3.8-11.2-7.5
			c-3.4-2.5-7-4.7-10.6-6.8c-3.1-1.7-7.4-3.7-13-5.9c-5.5-2.3-9-3.8-10.5-4.6c-8.7-4.7-10.6-11.4-5.9-20.1c1.8-3.3,4.3-5.6,7.3-6.9
			c3.1-1.2,6-1.1,8.7,0.4c1.1,0.6,2.4,1.6,4,3c1.6,1.4,2.9,2.4,3.8,2.9c3.2,1.8,7-1.4,11.4-9.5l27-49.3c4.4-8,4.9-12.8,1.7-14.6
			c-1-0.5-2.5-1.1-4.5-1.7c-2.1-0.6-3.6-1.2-4.7-1.8c-2.7-1.5-4.4-3.9-5-7.1c-0.6-3.3,0-6.6,1.8-9.9c2.1-3.9,5.1-6.4,8.7-7.5
			c3.7-1.1,7.4-0.6,11.2,1.5c2.5,1.4,5.9,3.6,10.4,6.8c4.4,3.2,8,5.5,10.7,7c2.3,1.2,6.2,3.1,12,5.6c2.6,1.2,5.5,2.6,8.9,4
			c1.6,0.5,3.2,1.3,4.8,2.2c3.2,1.8,5,4.4,5.4,7.8C613.5,1479.2,613.3,1482.6,612.7,1488.1z"/>
		<path fill="#FFFFFF" stroke="#384AA5" stroke-width="10" stroke-miterlimit="10" d="M782.4,1575l5.7,67.6l31.2-60.6
			c1.1-2.1,1.7-3.7,1.9-4.6c0.4-2.3-0.4-3.5-2.6-3.8l-2.8-0.5l-0.4-0.1c-6.1-1.2-8.4-5.7-6.9-13.6c1.8-9.6,7-13.6,15.5-12
			c2.8,0.5,6.8,1.6,12.2,3.4c5.3,1.7,9.4,2.8,12.2,3.4c4.3,0.8,8.2,1.3,11.7,1.4c5.3,0.2,9.2,0.5,11.6,1c4.1,0.8,7.2,2.7,9.2,5.8
			c2,3.1,2.7,6.7,1.9,10.8c-0.7,3.9-2.3,6.9-4.8,9.2c-2.4,2.3-5,3.2-7.8,2.6c-0.9-0.2-2.2-0.7-3.9-1.5c-1.6-0.8-2.7-1.2-3.3-1.3
			c-3.2-0.6-7.7,4.5-13.6,15.2l-38.4,69.4c-5.7,10.2-12,14.7-18.9,13.4c-1.3-0.3-3.3-0.7-5.9-1.4c-2.6-0.7-4.6-1.2-5.9-1.4
			c-1.3-0.3-3.3-0.5-5.8-0.8c-2.6-0.3-4.5-0.5-5.8-0.8c-7-1.3-11.6-10.2-13.5-26.5l-9.5-79.1c-0.9-6.9-2.7-10.6-5.3-11.1
			c-0.9-0.2-2.2-0.2-3.8,0c-1.6,0.2-3.2,0.1-4.6-0.2c-2.9-0.6-5.1-2.2-6.4-5c-1.3-2.8-1.6-6.1-0.9-10c1.8-9.7,7.6-13.6,17.3-11.8
			c2.7,0.5,6.6,1.6,12,3.3c5.3,1.7,9.4,2.8,12.2,3.4c4,0.8,8.6,1.3,13.8,1.6c5.2,0.3,8.8,0.6,10.8,1c8.8,1.7,12.2,7.4,10.4,17.2
			c-1.5,7.8-5,11.2-10.4,10.1l-2-0.4c-0.4-0.1-1-0.2-1.8-0.3c-2.4-0.5-3.8,0.4-4.2,2.7C782.2,1571.5,782.2,1573.1,782.4,1575z"/>
		<path fill="#FFFFFF" stroke="#384AA5" stroke-width="10" stroke-miterlimit="10" d="M994.5,1577.1c-4.4,0.5-7.4,1.2-8.8,2.1
			c-1.9,1.4-2.6,4.2-2.2,8.4l1.2,11.3c0.2,2.3,0.7,4,1.4,5.1c0.7,1.1,2.3,1.5,4.8,1.2c5.8-0.6,8.4-3,8-7.3l-0.3-2.6
			c-0.1-0.8-0.2-1.8-0.3-3c-0.6-5.7,2.5-8.8,9.3-9.5c7.1-0.7,11,2.3,11.7,9.2c0.2,1.9,0.2,4,0.1,6.3c-0.3,4.5-0.2,8.7,0.2,12.4
			c0.4,3.5,1.1,7.9,2.2,13.2c1.1,5.3,1.7,9.1,2,11.2c0.8,7.9-2.4,12.3-9.5,13c-6.7,0.7-10.4-2.4-11.2-9.3l-0.1-1
			c-0.1-0.7-0.2-2.3-0.5-4.8c-0.3-3.2-3.3-4.6-8.9-4c-3.8,0.4-5.5,2.7-5,7l1.5,15.1c0.5,4.7,1.6,7.8,3.5,9.3c1.9,1.5,5.1,2,9.6,1.6
			l11.7-1.2c8.6-0.9,14.6-2.2,17.8-4.1c3.3-1.8,4.7-4.6,4.3-8.4c-0.2-1.9-0.6-4.1-1.3-6.7c-0.7-2.6-1.1-4.8-1.3-6.5
			c-0.5-5,0.5-9,3-12.1c2.5-3.1,6.2-4.9,11.1-5.4c9.8-1,15.3,3.9,16.4,14.6c0.4,3.5,0.5,7.2,0.5,11.2c0,6.5,0.1,10.6,0.2,12.2
			c0.2,1.5,0.8,4.3,1.9,8.6c0.7,2.5,1.1,5.1,1.4,7.8c0.6,6.3-3,9.9-10.9,10.7c-2.6,0.3-6.8,0.5-12.8,0.7c-9.9,0.3-25.6,1.5-47.2,3.4
			l-18,1.8c-6.7,0.7-12.3,1.5-16.7,2.3l-15.2,2.8c-0.1,0-0.4,0.1-0.8,0.3c-0.4,0-0.7,0.1-1,0.1c-4.2,0.4-7.7-0.6-10.6-3.2
			c-2.9-2.6-4.6-6-5-10.3c-0.4-3.8,0.3-7,2.2-9.8c1.8-2.8,4.4-4.3,7.6-4.7c1.1-0.1,2.7,0,4.9,0.3c2.2,0.3,3.8,0.4,4.7,0.3
			c3.6-0.4,5-5.1,4-14.3l-5.7-55.9c-0.9-9-3.2-13.3-6.8-13c-0.8,0.1-2.4,0.5-4.8,1.3c-1.7,0.6-3.2,0.9-4.6,1.1
			c-3.1,0.3-5.9-0.7-8.3-3c-2.4-2.3-3.8-5.4-4.2-9.2c-1-9.8,3.4-15.2,13.3-16.3c2.3-0.2,7-0.4,14.1-0.6c10.6-0.3,20.9-0.9,30.7-1.9
			c0.9-0.1,9-1.1,24.2-3.1c11-1.4,18.3-2.4,21.8-3c5.8-1,11.8-1.8,18.2-2.5c7.6-0.8,11.7,2.1,12.4,8.7c0.2,2.2,0.2,5.4,0.1,9.6
			c-0.2,4.2-0.2,7.4,0.1,9.6c0.2,2.2,0.8,5.2,1.8,9.1c1,3.9,1.6,6.9,1.8,8.9c0.4,3.9-0.7,7.4-3.3,10.3c-2.6,3-6.1,4.7-10.4,5.1
			c-10.1,1-15.7-3.6-16.7-14c-0.2-1.7-0.1-4.2,0.2-7.4c0.3-3.2,0.4-5.5,0.2-7c-0.3-3-2-4.6-5.2-5c-1.1-0.2-3.9,0-8.5,0.5
			L994.5,1577.1z"/>
		<path fill="#FFFFFF" stroke="#384AA5" stroke-width="10" stroke-miterlimit="10" d="M1235.4,1541.5c-2.6,4-7.4,8.5-14.4,13.5
			c9.6-2.3,17.1-2.3,22.4,0c5.3,2.3,9.6,7.1,12.7,14.6c0.9,2.3,1.9,4.4,2.7,6.6l0.9,2.3c2.1,5.1,4.7,7.1,7.7,5.8
			c0.7-0.3,1.8-0.9,3.2-1.9c1.4-1,2.5-1.6,3.2-1.9c2.7-1.1,5.4-0.9,8,0.7c2.6,1.6,4.7,4.3,6.3,8c1.7,4.1,1.9,7.9,0.5,11.4
			c-1.4,3.5-4.1,6-8.1,7.7c-1.4,0.6-3.6,1.3-6.6,2.2c-3,0.9-5.2,1.6-6.6,2.2c-1.5,0.6-3.7,1.7-6.5,3.2c-2.8,1.5-5,2.6-6.5,3.2
			c-4.6,1.9-9.1,1.6-13.5-1.1c-4.4-2.6-7.9-7.1-10.5-13.3c-0.3-0.6-0.3-1.1,0-1.5l-4.5-10.9l-0.5-1.3c-2.7-6.5-6.2-10.3-10.6-11.4
			c-4.4-1.1-10.8,0.1-19.5,3.7c-3.5,1.5-5.3,3.3-5.4,5.5c-0.1,1.5,0.5,4,2,7.3l1.8,4.3c3.5,8.5,6.9,12.1,10,10.8
			c0.9-0.4,2.1-1.1,3.8-2.3c1.6-1.2,2.9-2,3.9-2.4c2.6-1.1,5.3-0.8,8.1,0.8c2.8,1.6,4.9,4.2,6.4,7.7c3.8,9.1,1.3,15.5-7.4,19.2
			c-3,1.3-7.2,2.6-12.6,4.1c-5.4,1.5-9.9,3.1-13.7,4.6c-4,1.7-8.5,3.9-13.5,6.7s-9.3,5-12.9,6.5c-9.1,3.8-15.6,1.2-19.4-8
			c-1.5-3.5-1.7-6.8-0.8-10c0.9-3.2,2.9-5.4,5.7-6.6c1.1-0.5,2.8-0.9,5-1.3c2.2-0.4,3.7-0.8,4.6-1.1c3.4-1.4,3.3-6.4-0.3-14.9
			l-21.7-51.9c-1.7-4-2.9-6.5-3.6-7.5c-2-3-4.2-4-6.7-2.9c-1,0.4-2.4,1.2-4.1,2.5c-1.8,1.2-3.2,2.1-4.3,2.6c-2.9,1.2-5.8,1-8.7-0.5
			c-2.9-1.6-5.1-4.1-6.6-7.6c-1.7-4-1.8-7.8-0.5-11.5s3.9-6.3,7.8-7.9c0.7-0.3,1.3-0.5,1.8-0.5l13.8-4.2c3.9-1.2,8-2.7,12.2-4.4
			c7.4-3.1,16.5-7.4,27.4-13c7.3-3.6,12.7-6.2,16.4-7.7c11.9-5,22.5-5.9,31.9-2.9s16.3,9.7,20.5,20
			C1240.4,1526.2,1240,1534.5,1235.4,1541.5z M1180.8,1530.4c-5,2.1-8.1,3.8-9.3,5c-2.2,2.4-2.5,5.7-0.7,9.8l4.7,11.3
			c1.2,2.9,2.5,4.6,3.8,5.1c1.3,0.5,3.3,0.2,5.9-0.9c16.2-6.8,22.3-15,18.3-24.7C1199.8,1527.4,1192.2,1525.6,1180.8,1530.4z"/>
		<path fill="#FFFFFF" stroke="#384AA5" stroke-width="10" stroke-miterlimit="10" d="M1346.2,1544.3c-3.3-4.6-4.7-9.6-4-15
			c0.7-5.4,3.2-9.7,7.6-12.9c5.4-3.9,11.5-4.9,18.4-3.1c6.9,1.8,12.8,6,17.5,12.6c9.6,13.3,13.7,31.3,12.3,54.3
			c-0.3,5.6-1.7,9.2-4.1,11c-4.1,2.9-7.7,2.2-11-2.3c-1.9-2.6-2.9-6.6-3.1-11.8c-0.3-13.3-1.6-21.6-4-24.9c-1.2-1.6-3.2-1.9-6.1-0.8
			C1360,1554.8,1352.2,1552.5,1346.2,1544.3z"/>
		<path fill="#FFFFFF" stroke="#384AA5" stroke-width="10" stroke-miterlimit="10" d="M1391.3,1344.7c8.6-9.6,19.7-14.8,33.1-15.6
			c-0.3-0.3-0.8-0.7-1.5-1.4c-5.6-5.1-5.7-10.6-0.3-16.7c2.5-2.8,5.5-4.3,8.8-4.5c3.3-0.2,6.4,1,9.2,3.5c1.3,1.2,3.1,3,5.4,5.5
			c3.7,4.1,6.5,7,8.3,8.7c1.3,1.2,3.4,2.7,6.3,4.7c2.9,2,5,3.5,6.3,4.7c3.1,2.8,4.6,6.2,4.5,10.2c-0.1,4-1.8,7.8-5.1,11.4
			c-6.9,7.7-13.4,8.5-19.6,2.6l-4.7-4.2c-3.2-3.1-7.2-4.2-11.9-3.3c-4.7,0.9-9,3.5-12.8,7.8c-12.1,13.4-7.4,29.7,13.9,48.9
			c11.1,9.9,20.6,15.6,28.7,16.8c8,1.3,15.2-1.6,21.7-8.8c4-4.4,6.2-9,6.7-13.7c0.5-4.7-1-8.4-4.4-11.3l-5.4-4.9
			c-3.2-2.7-4.8-6-4.9-9.8c0-3.8,1.4-7.4,4.4-10.7c3.8-4.2,8.2-6.3,13.2-6.2c5,0.1,10,2.3,14.8,6.6c9.6,8.6,14,19.4,13.3,32.5
			c-0.7,13.1-6.5,25.6-17.2,37.6c-13.2,14.7-28.3,22.1-45.3,22.2c-17,0.1-33.6-7.1-49.8-21.7c-16.7-15-26.5-30.6-29.3-46.9
			C1374.9,1372.7,1379.4,1357.9,1391.3,1344.7z"/>
		<path fill="#FFFFFF" stroke="#384AA5" stroke-width="10" stroke-miterlimit="10" d="M1613.5,1270.2c-9.2,18.4-21.9,29.8-38.1,34.2
			c-16.2,4.4-34.5,1.5-54.9-8.8c-19.7-9.9-32.7-22.7-39-38.4c-6.3-15.7-5-32.3,3.8-49.8c9.2-18.4,22-29.9,38.1-34.7
			c16.2-4.7,34.1-2.2,53.8,7.8c20.4,10.3,33.9,23.3,40.3,39C1623.9,1235.3,1622.6,1252.2,1613.5,1270.2z M1511.3,1219
			c-7.9,15.7,1,30,26.6,42.9c12.2,6.1,22,9.2,29.5,9.1c9.3,0,16.1-4.5,20.5-13.3c7.8-15.6-0.7-29.7-25.6-42.2
			c-13.8-6.9-24.7-10.1-32.8-9.6C1521.5,1206.6,1515.4,1210.9,1511.3,1219z"/>
	</g>
	<g>
		<path fill="#FFFFFF" d="M189.8,1111.1c-37.3,0-69.3-27.9-74.6-64.8L103,960.6c-2.8-19.9,2.3-39.8,14.3-55.9s29.7-26.5,49.7-29.4
			l85.7-12.2c3.6-0.5,7.2-0.8,10.7-0.8c37.3,0,69.3,27.9,74.6,64.8l12.2,85.7c2.8,19.9-2.3,39.8-14.3,55.9
			c-12.1,16.1-29.7,26.5-49.7,29.4l-85.7,12.2C197,1110.8,193.4,1111.1,189.8,1111.1C189.8,1111.1,189.8,1111.1,189.8,1111.1z"/>
		<path fill="#384AA5" d="M263.4,869.8c33.3,0,62.3,24.5,67.1,58.3l12.2,85.7c5.3,37.1-20.5,71.5-57.7,76.8l-85.7,12.2
			c-3.2,0.5-6.5,0.7-9.7,0.7c-33.3,0-62.3-24.5-67.1-58.3l-12.2-85.7c-5.3-37.1,20.5-71.5,57.7-76.8l85.7-12.2
			C257,870.1,260.2,869.8,263.4,869.8 M263.4,854.8c-3.9,0-7.9,0.3-11.8,0.8L166,867.9c-21.9,3.1-41.3,14.6-54.6,32.3
			s-18.9,39.5-15.8,61.5l12.2,85.7c2.8,19.9,12.8,38,28,51.1c15.1,13,34.2,20.1,54,20.1c3.9,0,7.9-0.3,11.8-0.8l85.7-12.2
			c45.3-6.4,76.8-48.5,70.4-93.8l-12.2-85.7c-2.8-19.9-12.8-38-28-51.1C302.4,862,283.2,854.8,263.4,854.8L263.4,854.8z"/>
	</g>
	<g>
		<path fill="#384AA5" d="M169.8,937.7c5.2-0.7,10.1-0.6,14.6,0.4c4.5,1,8.4,2.6,11.9,5c3.4,2.3,6.2,5.4,8.4,9
			c2.2,3.7,3.6,7.9,4.3,12.6c0.6,4.1,0.5,7.9-0.2,11.5c-0.7,3.6-1.8,7.1-3.4,10.5c-1.6,3.4-3.5,6.7-5.7,10c-2.2,3.3-4.6,6.6-7.1,10
			l-20.1,27.1c2.5-1.1,5-2,7.4-2.8c2.5-0.8,4.8-1.4,7.1-1.7l24.8-3.4c2.3-0.3,4.2,0.1,5.6,1.2c1.5,1.1,2.3,2.7,2.6,4.8l1.7,12.3
			l-76.5,10.4l-0.9-6.8c-0.2-1.3-0.1-2.8,0.3-4.4c0.3-1.6,1.1-3.2,2.2-4.6l28.2-37.2c2.4-3.2,4.5-6.2,6.3-9c1.8-2.8,3.2-5.6,4.3-8.2
			c1.1-2.7,1.8-5.3,2.2-7.9c0.4-2.6,0.4-5.3,0-8.1c-0.7-4.9-2.4-8.5-5.3-10.7c-2.9-2.2-6.6-3-11.2-2.4c-2,0.3-3.8,0.8-5.5,1.6
			c-1.6,0.8-3,1.8-4.2,3c-1.2,1.2-2.2,2.5-3,4c-0.8,1.5-1.3,3.1-1.5,4.8c-0.6,2.7-1.6,4.5-3,5.6c-1.4,1-3.6,1.5-6.5,1.5l-11.4-0.5
			c0.1-5.5,1-10.4,2.6-14.8c1.7-4.4,4-8.1,7-11.2c3-3.1,6.5-5.7,10.7-7.6C160.3,939.7,164.9,938.3,169.8,937.7z"/>
		<path fill="#384AA5" d="M312.8,975.6c1.3,9.6,1.4,18.1,0.3,25.5c-1.1,7.4-3.2,13.6-6.2,18.8c-3,5.1-6.9,9.2-11.5,12.1
			c-4.7,2.9-9.9,4.8-15.7,5.6c-5.8,0.8-11.3,0.4-16.6-1.2c-5.3-1.6-10-4.4-14.3-8.6c-4.2-4.1-7.9-9.6-10.9-16.4
			c-3-6.8-5.2-15-6.5-24.7c-1.3-9.6-1.4-18.1-0.3-25.5c1.1-7.3,3.1-13.6,6.1-18.7c3-5.1,6.8-9.2,11.4-12.1c4.7-2.9,9.9-4.8,15.7-5.6
			c5.8-0.8,11.3-0.4,16.6,1.2c5.3,1.6,10.1,4.4,14.4,8.6c4.3,4.1,7.9,9.6,11,16.4S311.5,965.9,312.8,975.6z M291.1,978.5
			c-1.1-7.8-2.5-14.2-4.3-19.1c-1.8-4.9-3.8-8.7-5.9-11.4c-2.2-2.7-4.5-4.5-7-5.3c-2.5-0.9-4.9-1.1-7.3-0.8
			c-2.4,0.3-4.7,1.2-6.8,2.7c-2.1,1.5-3.8,3.8-5.2,7c-1.3,3.2-2.2,7.4-2.6,12.6c-0.4,5.2,0,11.7,1,19.5c1.1,7.9,2.5,14.2,4.2,19.2
			c1.8,4.9,3.7,8.7,5.9,11.4c2.1,2.7,4.4,4.5,6.8,5.3c2.4,0.9,4.8,1.1,7.3,0.8c2.4-0.3,4.7-1.2,6.9-2.7c2.1-1.5,3.9-3.8,5.3-7
			c1.4-3.2,2.3-7.4,2.7-12.6C292.5,992.9,292.2,986.4,291.1,978.5z"/>
	</g>
	<g>
		<path fill="#FFFFFF" d="M1661.9,1111.6c-3.9,0-7.9-0.3-11.7-0.9l-85.5-13.4c-19.9-3.1-37.4-13.8-49.3-30.1
			c-11.9-16.3-16.7-36.2-13.6-56.1l13.4-85.5c2.8-17.9,11.9-34.1,25.7-45.8c13.6-11.6,30.9-17.9,48.7-17.9c3.9,0,7.9,0.3,11.7,0.9
			l85.5,13.4c41.1,6.4,69.3,45.1,62.8,86.2l-13.4,85.5c-2.8,17.9-11.9,34.1-25.7,45.8C1696.9,1105.2,1679.6,1111.6,1661.9,1111.6
			C1661.9,1111.6,1661.9,1111.6,1661.9,1111.6z"/>
		<path fill="#384AA5" d="M1589.6,869.3c3.5,0,7,0.3,10.6,0.8l85.5,13.4c37.1,5.8,62.4,40.5,56.6,77.6l-13.4,85.5
			c-5.2,33.5-34.1,57.4-67,57.4c-3.5,0-7-0.3-10.6-0.8l-85.5-13.4c-37.1-5.8-62.4-40.5-56.6-77.6l13.4-85.5
			C1527.8,893.3,1556.7,869.3,1589.6,869.3 M1589.6,854.3c-19.6,0-38.6,7-53.6,19.7c-15.1,12.8-25.2,30.7-28.3,50.4l-13.4,85.5
			c-7.1,45.2,23.9,87.7,69.1,94.7l85.5,13.4c4.3,0.7,8.6,1,12.9,1c19.6,0,38.6-7,53.6-19.7c15.1-12.8,25.2-30.7,28.3-50.4l13.4-85.5
			c3.4-21.9-1.9-43.8-14.9-61.7c-13.1-17.9-32.3-29.6-54.2-33.1l-85.5-13.4C1598.2,854.7,1593.9,854.3,1589.6,854.3L1589.6,854.3z"
			/>
	</g>
	<g>
		<path fill="#384AA5" d="M1542.3,1014.4l21.8,3.5l9.8-60.1c0.4-2.6,0.9-5.3,1.5-8.1l-16.2,9.6c-1.1,0.6-2.2,0.9-3.2,1
			c-1,0-1.9-0.1-2.7-0.4c-0.8-0.3-1.5-0.7-2.1-1.3c-0.6-0.5-1-1.1-1.3-1.6l-5.1-9.9l38.4-23.1l17.2,2.8l-15.4,94.6l19,3.1l-2.5,15.4
			l-61.6-10L1542.3,1014.4z"/>
		<path fill="#384AA5" d="M1670.4,978.8c-1.4,1.2-2.8,2.3-4.1,3.5c2.1-0.5,4.2-0.9,6.6-1c2.3-0.1,4.8,0,7.3,0.5c4.1,0.7,8,2,11.6,4
			c3.7,2,6.8,4.6,9.4,7.8c2.6,3.2,4.5,7,5.6,11.4c1.2,4.4,1.3,9.4,0.4,14.9c-0.8,5.1-2.6,9.8-5.2,14c-2.6,4.2-6,7.8-10,10.6
			c-4,2.8-8.6,4.8-13.7,6c-5.1,1.2-10.7,1.3-16.6,0.3c-6-1-11.2-2.8-15.7-5.5c-4.4-2.7-8-6-10.8-10c-2.8-4-4.7-8.5-5.6-13.5
			c-1-5.1-1-10.5-0.1-16.2c0.9-5.3,2.8-10.5,5.8-15.6c3-5.1,7.1-10.2,12.3-15.2l31.1-30.2c1.2-1.1,2.9-2,5-2.7
			c2.1-0.6,4.4-0.8,7-0.3l18.5,3L1670.4,978.8z M1649.2,1012c-0.5,2.9-0.5,5.6-0.1,8c0.4,2.5,1.2,4.7,2.4,6.6s2.9,3.5,5,4.8
			c2.1,1.3,4.7,2.2,7.7,2.6c2.7,0.4,5.3,0.4,7.8-0.2c2.5-0.6,4.7-1.6,6.6-3c1.9-1.4,3.6-3.2,4.9-5.4c1.3-2.1,2.2-4.6,2.7-7.3
			c0.5-3,0.5-5.7-0.1-8.2c-0.5-2.5-1.5-4.7-2.9-6.6c-1.4-1.9-3.2-3.5-5.4-4.7c-2.2-1.2-4.7-2.1-7.5-2.5c-2.7-0.4-5.2-0.4-7.6,0.2
			c-2.4,0.6-4.5,1.6-6.4,3c-1.9,1.4-3.4,3.2-4.7,5.4C1650.5,1006.8,1649.6,1009.2,1649.2,1012z"/>
	</g>
	<g>
		<g>
			<g>
				<path fill="#F9A987" d="M925,1470.7c-73.7,0-145.1-14.4-212.4-42.9c-65-27.5-123.3-66.8-173.4-116.9
					c-50.1-50.1-89.5-108.5-116.9-173.4c-28.5-67.3-42.9-138.7-42.9-212.4c0-73.7,14.4-145.1,42.9-212.4
					c27.5-65,66.8-123.3,116.9-173.4c50.1-50.1,108.5-89.5,173.4-116.9c67.3-28.5,138.7-42.9,212.4-42.9s145.1,14.4,212.4,42.9
					c65,27.5,123.3,66.8,173.4,116.9c50.1,50.1,89.5,108.5,116.9,173.4c28.5,67.3,42.9,138.7,42.9,212.4
					c0,73.7-14.4,145.1-42.9,212.4c-27.5,65-66.8,123.3-116.9,173.4c-50.1,50.1-108.5,89.5-173.4,116.9
					C1070.1,1456.2,998.7,1470.7,925,1470.7z"/>
				<g>
					<path fill="#384AA5" d="M925,384.3c298.6,0,540.7,242.1,540.7,540.7s-242.1,540.7-540.7,540.7S384.4,1223.6,384.4,925
						S626.4,384.3,925,384.3 M925,374.3c-74.3,0-146.5,14.6-214.3,43.3c-32.6,13.8-64.1,30.9-93.5,50.8
						c-29.2,19.7-56.6,42.3-81.5,67.2c-24.9,24.9-47.5,52.3-67.2,81.5c-19.9,29.4-37,60.9-50.8,93.5c-28.7,67.9-43.3,140-43.3,214.3
						s14.6,146.5,43.3,214.3c13.8,32.6,30.9,64.1,50.8,93.5c19.7,29.2,42.3,56.6,67.2,81.5c24.9,24.9,52.3,47.5,81.5,67.2
						c29.4,19.9,60.9,37,93.5,50.8c67.9,28.7,140,43.3,214.3,43.3s146.5-14.6,214.3-43.3c32.6-13.8,64.1-30.9,93.5-50.8
						c29.2-19.7,56.6-42.3,81.5-67.2c24.9-24.9,47.5-52.3,67.2-81.5c19.9-29.4,37-60.9,50.8-93.5c28.7-67.9,43.3-140,43.3-214.3
						s-14.6-146.5-43.3-214.3c-13.8-32.6-30.9-64.1-50.8-93.5c-19.7-29.2-42.3-56.6-67.2-81.5c-24.9-24.9-52.3-47.5-81.5-67.2
						c-29.4-19.9-60.9-37-93.5-50.8C1071.5,388.9,999.4,374.3,925,374.3L925,374.3z"/>
				</g>
			</g>
			<g>
				<defs>
					<circle id="SVGID_1_" cx="925" cy="925" r="540.7"/>
				</defs>
				<clipPath id="SVGID_2_">
					<use xlink:href="#SVGID_1_"  overflow="visible"/>
				</clipPath>
				<g clip-path="url(#SVGID_2_)">
					<path fill="#FFFFFF" d="M837.7,1185.2c-13.3,0-64.2-1.2-64.7-1.2l-427.2,0c-0.3,0-1.1,0-2.4,0c-7.8,0-34.6-1.3-51.5-18.5
						c-9.9-10.1-14.8-23.8-14.6-40.8c0.5-31.3,29.3-59.8,60.4-59.8c6.5,0,12.8,1.2,18.8,3.5c0-0.9-0.1-1.8-0.1-2.7
						c0-42.4,33-76.9,73.6-76.9c8.5,0,16.8,1.5,24.8,4.6c10.8-25.8,30.5-47.2,57.1-61.9c26.6-14.7,59.3-22.5,94.7-22.5
						c40.2,0,78.3,12.6,107.3,35.4c27.8,21.9,43.7,50.7,43.7,79.1c0,2.8-0.2,5.6-0.5,8.6c5.3-1.2,10.7-1.9,15.9-1.9
						c27.6,0,53,16.4,65.5,42.1c6.1-2.9,12.6-4.3,19.3-4.3c16.6,0,34.2,9.1,45.7,23.8c9.5,12.1,13.4,25.9,10.5,37.9
						c-3.7,15.3-12.6,29.2-25.1,39C875.1,1179.5,857.4,1185.2,837.7,1185.2z"/>
					<path fill="#384AA5" d="M606.6,911.5c84,0,148.5,55.7,148.5,112c0,4-0.4,8-1.1,12c6-1.8,12.4-2.8,19-2.8
						c28.5,0,52.9,17.5,64.3,42.8c0.1,0,0.2,0,0.3,0c0.1,0,0.1,0,0.2,0c6.5-3.5,13.4-5,20.1-5c30.9,0,60.1,32.2,53.8,58.6
						c-6.9,28.8-33.1,53.6-73.9,53.6c-13.5,0-64.7-1.2-64.7-1.2c0,0,0,0-0.1,0c0,0-427.2,0-427.2,0s-0.8,0-2.3,0
						c-11.8,0-64.4-3-63.6-56.8c0.5-30.4,28.8-57.4,57.9-57.4c7.7,0,15,1.8,21.6,4.9c-0.2-2.2-0.3-4.4-0.3-6.6
						c0-41.1,31.8-74.4,71.1-74.4c9.3,0,18.1,1.9,26.2,5.3C477.7,942.2,536.5,911.5,606.6,911.5 M606.6,906.5
						c-35.8,0-68.9,7.9-95.9,22.8c-26.4,14.6-46.1,35.6-57.3,60.9c-7.6-2.6-15.5-3.9-23.5-3.9c-41.7,0-75.6,35.2-76.1,78.6
						c-5.3-1.6-10.7-2.5-16.3-2.5c-32.4,0-62.4,29.7-62.9,62.3c-0.3,17.7,4.9,32,15.3,42.6c17.6,17.9,45.3,19.3,53.3,19.3
						c1.3,0,2.1,0,2.5,0H773h0c2.8,0.1,51.5,1.2,64.7,1.2c20.3,0,38.5-5.9,52.8-17.1c13-10.2,22.2-24.5,26-40.4
						c3.1-12.7-0.9-27.3-11-40c-12-15.3-30.3-24.7-47.7-24.7c-6.3,0-12.4,1.2-18.1,3.6c-6.1-11.5-14.7-21.3-25.4-28.5
						c-12.3-8.4-26.6-12.8-41.4-12.8c-4.3,0-8.7,0.4-13.1,1.2c0.1-1.8,0.2-3.7,0.2-5.4c0-29.2-16.3-58.7-44.6-81
						C686,919.3,647.4,906.5,606.6,906.5L606.6,906.5z"/>
				</g>
				<g clip-path="url(#SVGID_2_)">
					<path fill="#FFFFFF" d="M1231,836.9c-4.9,0-23.2-0.4-23.9-0.4l-157.6,0c-0.1,0-0.5,0-0.9,0c-3,0-13.4-0.5-20.1-7.3
						c-4-4-5.9-9.5-5.8-16.2c0.2-12.4,11.6-23.6,23.9-23.6c1.8,0,3.6,0.2,5.4,0.7c0.6-16,13.2-28.8,28.7-28.8c2.8,0,5.6,0.4,8.3,1.3
						c8.7-19,30.2-30.7,56.9-30.7c15.2,0,29.6,4.8,40.6,13.4c10.6,8.4,16.7,19.5,16.7,30.4c0,0.4,0,0.8,0,1.2
						c1.4-0.2,2.8-0.3,4.1-0.3c10.3,0,19.8,5.8,24.9,15.1c2-0.8,4.2-1.1,6.4-1.1c6.6,0,13.6,3.6,18.1,9.4c3.8,4.8,5.3,10.4,4.2,15.3
						C1257.5,828.3,1245.9,836.9,1231,836.9z"/>
					<path fill="#384AA5" d="M1145.7,734.3c31,0,54.8,20.6,54.8,41.3c0,1.5-0.1,3-0.4,4.4c2.2-0.6,4.6-1,7-1
						c10.5,0,19.5,6.5,23.7,15.8c0,0,0.1,0,0.1,0c0,0,0,0,0.1,0c2.4-1.3,4.9-1.8,7.4-1.8c11.4,0,22.2,11.9,19.9,21.6
						c-2.5,10.6-12.2,19.8-27.3,19.8c-5,0-23.9-0.4-23.9-0.4c0,0,0,0,0,0c0,0-157.7,0-157.7,0s-0.3,0-0.9,0c-4.4,0-23.8-1.1-23.5-21
						c0.2-11.2,10.6-21.2,21.4-21.2c2.8,0,5.5,0.7,8,1.8c-0.1-0.8-0.1-1.6-0.1-2.4c0-15.2,11.7-27.5,26.2-27.5c3.4,0,6.7,0.7,9.7,2
						C1098.1,745.6,1119.8,734.3,1145.7,734.3 M1145.7,729.3c-26.7,0-48.6,11.5-58.2,30.3c-2.3-0.5-4.6-0.8-7-0.8
						c-15.9,0-29,12.4-31,28.3c-1-0.1-2.1-0.2-3.1-0.2c-13.6,0-26.2,12.4-26.4,26.1c-0.1,7.4,2.1,13.4,6.6,18
						c7.2,7.3,17.7,8.1,21.9,8.1c0.5,0,0.8,0,1,0h157.5c1.4,0,19,0.4,23.9,0.4c8.2,0,15.6-2.4,21.4-7c5.3-4.2,9.2-10.1,10.7-16.7
						c1.4-5.6-0.3-12-4.6-17.5c-5-6.4-12.7-10.3-20.1-10.3c-1.8,0-3.6,0.2-5.3,0.7c-5.7-9-15.5-14.6-26.1-14.6c-0.5,0-1.1,0-1.6,0
						c-0.5-11.2-6.9-22.4-17.6-30.8C1176.4,734.2,1161.4,729.3,1145.7,729.3L1145.7,729.3z"/>
				</g>
				<g clip-path="url(#SVGID_2_)">
					<path fill="#FFFFFF" d="M979.3,472.1c-1.3,0-6.1-0.1-6.3-0.1l-41.4,0c-0.1,0-0.2,0-0.3,0c-1.3,0-4.4-0.2-6.6-2.5
						c-1-1-2.1-2.7-2.1-5.6c0.1-4.2,3.8-7.9,8-8c1-4.2,4.7-7.4,9.1-7.4c0.4,0,0.8,0,1.2,0.1c2.9-4.9,8.8-7.8,16-7.8
						c8.5,0,15.8,5.3,16.8,11.8c2.7,0.2,5.1,1.6,6.8,3.7c0.3,0,0.6-0.1,0.9-0.1c2.3,0,4.7,1.2,6.2,3.2c1.4,1.7,1.9,3.8,1.4,5.6
						C988,468.5,984.7,472.1,979.3,472.1z"/>
					<path fill="#384AA5" d="M956.8,443.2c8.2,0,14.4,5.4,14.4,10.9c0,0.4,0,0.8-0.1,1.2c0.6-0.2,1.2-0.3,1.8-0.3
						c2.8,0,5.1,1.7,6.3,4.2c0,0,0,0,0,0c0,0,0,0,0,0c0.6-0.3,1.3-0.5,2-0.5c3,0,5.8,3.1,5.2,5.7c-0.7,2.8-3.2,5.2-7.2,5.2
						c-1.3,0-6.3-0.1-6.3-0.1h0h-41.5c0,0-0.1,0-0.2,0c-1.2,0-6.3-0.3-6.2-5.5c0-3,2.8-5.6,5.6-5.6c0.7,0,1.5,0.2,2.1,0.5
						c0-0.2,0-0.4,0-0.6c0-4,3.1-7.2,6.9-7.2c0.9,0,1.8,0.2,2.6,0.5C944.3,446.2,950,443.2,956.8,443.2 M956.8,438.2
						c-7.4,0-13.7,2.9-17.2,7.8c-5,0-9.2,3.2-11,7.6c-4.7,1-8.5,5.4-8.6,10.3c-0.1,3.7,1.5,6.1,2.8,7.4c2.9,2.9,6.8,3.2,8.4,3.2
						c0.1,0,0.2,0,0.3,0h41.4c0.6,0,5.1,0.1,6.3,0.1c5.9,0,10.8-3.6,12-9c0.6-2.6-0.1-5.4-1.9-7.7c-2-2.5-4.9-4-7.9-4.1
						c-1.6-1.7-3.6-2.8-5.8-3.4C973.5,443.5,965.7,438.2,956.8,438.2L956.8,438.2z"/>
				</g>
				<g clip-path="url(#SVGID_2_)">
					<g>
						<polyline fill="#87CE95" stroke="#384AA5" stroke-width="5" stroke-miterlimit="10" points="1270.7,740.7 1209.4,808.1 
							1183.7,795.2 526.5,1513.8 1333,1513.8 1376.4,1327.3 1904.3,1337.8 1397.3,824.3 1346.9,773.2 1327,796 1269.3,739.3 						
							"/>
						<polygon fill="#FFFFFF" stroke="#384AA5" stroke-width="3" stroke-miterlimit="10" points="1270.7,740.7 1250,809.6 
							1259.2,818.7 1250,837.6 1250,867 1287.7,808.5 1328.1,795.4 						"/>
						<polygon fill="#FFFFFF" stroke="#384AA5" stroke-width="3" stroke-miterlimit="10" points="1439.5,867.7 1397.7,853.2 
							1382.3,889.2 1366.3,863.9 1369.8,845.4 1331.3,822.9 1336.7,806.1 1347,772.3 						"/>
					</g>
					<polygon fill="#FFFFFF" stroke="#384AA5" stroke-width="3" stroke-miterlimit="10" points="1210.2,807.3 1182.2,837.5 
						1182.2,824.6 1188.7,818.2 1184.5,794.5 					"/>
				</g>
				<g clip-path="url(#SVGID_2_)">
					<path fill="#FFFFFF" d="M1328.5,688.8c-3.1,0-14.4-0.3-14.9-0.3l-97.8,0c-0.1,0-0.3,0-0.6,0c-2.5,0-8.9-0.5-13.2-4.8
						c-2.7-2.7-4-6.3-3.9-10.7c0.1-8.2,7.6-15.6,15.8-15.6c0.8,0,1.7,0.1,2.5,0.2c0.9-9.9,9-17.7,18.7-17.7c1.6,0,3.1,0.2,4.7,0.6
						c5.8-11.7,19.3-18.9,35.8-18.9c19.3,0,36.3,13,36.5,27.9c0.5,0,1.1-0.1,1.6-0.1c6.5,0,12.5,3.5,15.9,9.2
						c1.1-0.3,2.3-0.5,3.5-0.5c4.4,0,9,2.4,12,6.2c2.6,3.2,3.6,7,2.8,10.3C1345.5,684.5,1336.4,688.8,1328.5,688.8z"/>
					<path fill="#384AA5" d="M1275.5,624.2c19.3,0,34,12.8,34,25.7c0,0.9-0.1,1.8-0.2,2.7c1.4-0.4,2.8-0.6,4.3-0.6
						c6.5,0,12.1,4,14.7,9.8c0,0,0,0,0.1,0c0,0,0,0,0,0c1.5-0.8,3.1-1.1,4.6-1.1c7.1,0,13.8,7.4,12.3,13.4
						c-1.6,6.6-7.6,12.3-16.9,12.3c-3.1,0-14.8-0.3-14.8-0.3s0,0,0,0h-97.9c0,0-0.2,0-0.5,0c-2.7,0-14.8-0.7-14.6-13
						c0.1-7,6.6-13.1,13.3-13.1c1.8,0,3.4,0.4,4.9,1.1c0-0.5-0.1-1-0.1-1.5c0-9.4,7.3-17.1,16.3-17.1c2.1,0,4.2,0.4,6,1.2
						C1246,631.2,1259.5,624.2,1275.5,624.2 M1275.5,619.2c-16.7,0-30.5,7-37.1,18.6c-1.1-0.2-2.2-0.3-3.3-0.3
						c-10.2,0-18.8,7.5-20.8,17.4c-0.1,0-0.2,0-0.3,0c-9.6,0-18.1,8.4-18.3,18.1c-0.1,5.1,1.5,9.4,4.6,12.5c5,5,12.1,5.6,15,5.6
						c0.3,0,0.5,0,0.6,0h97.8c1,0,11.9,0.3,14.9,0.3c5.5,0,10.5-1.6,14.5-4.7c3.7-2.9,6.3-6.9,7.3-11.4c1-4.1-0.2-8.6-3.2-12.5
						c-3.5-4.5-8.7-7.1-14-7.1c-0.8,0-1.6,0.1-2.4,0.2c-3.8-5.3-9.8-8.6-16.3-8.8c-0.9-6.9-5-13.6-11.5-18.7
						C1295.4,622.4,1285.7,619.2,1275.5,619.2L1275.5,619.2z"/>
				</g>
				<path clip-path="url(#SVGID_2_)" fill="#384AA5" stroke="#FFFFFF" stroke-width="10" stroke-miterlimit="10" d="M187,1331.8
					v-152.5h67v-9.6h24.3v-18.3h47.8v18.3h23.4v-60.9l67,16.2v31.1l20.5,25.4v-99.9h0.2c0-24.6,19.9-44.5,44.5-44.5v16.7
					c18.5,0.6,33.3,15.7,33.3,34.4l0,0h0.2v44H582v37.4h24.3v-18.3h47.8v18.3h23.4v-60.9l67,16.2v31.1h40v175.7H187z"/>
				<path clip-path="url(#SVGID_2_)" fill="#384AA5" stroke="#FFFFFF" stroke-width="10" stroke-miterlimit="10" d="M340,1500.8
					v-159.4h205.6v-10.1H571v-19.2h49.9v19.2h24.4v-63.6l70,16.9v32.5h21.5v-57.5l0.2-19.2c0,0,20.8,0.3,46.5,0.3l0,0
					c19.3,0.6,18.9,0.5,34.6,0.5l0.2,5h0.2v46h69.9v39.1h25.4v-19.2h49.9v19.2h24.4v-63.6l70,16.9v32.5h129.8l0-31.3h48.1l-1.6,31.3
					h110.7v183.7H340z"/>
				<g clip-path="url(#SVGID_2_)">
					<path fill="#FFFFFF" d="M368.6,736.1c-23.2,0-42.1-13.6-42.1-30.4c0-13.8,13.1-26,31.5-29.4c2.6-20.7,26.7-36.7,56-36.7
						c27.1,0,49.8,13.4,55.1,32.2c22.2,1,39.4,14.1,39.4,30.3c0,16.8-18.9,30.4-42.1,30.4L368.6,736.1L368.6,736.1z"/>
					<path fill="#384AA5" d="M413.9,642.2c27,0,49.3,14,53.2,32.2c21.5,0.3,38.9,12.6,38.9,27.9c0,15.4-17.7,27.9-39.6,27.9
						l-97.8,3.5c-21.9,0-39.6-12.5-39.6-27.9c0-13.4,13.4-24.6,31.3-27.3C361.4,658.3,385,642.2,413.9,642.2 M413.9,637.2
						c-29.8,0-54.4,16-58.2,37.1c-8.2,1.8-15.5,5.3-21.1,10.1c-6.9,5.9-10.7,13.5-10.7,21.4c0,9.1,4.9,17.6,13.7,23.8
						c8.3,5.9,19.3,9.1,30.9,9.1h0.1l0.1,0l97.7-3.5c11.6,0,22.5-3.2,30.8-9.1c8.8-6.2,13.7-14.7,13.7-23.8c0-17.2-17.3-31-40-32.7
						C464.5,650.6,441.3,637.2,413.9,637.2L413.9,637.2z"/>
				</g>
				<g clip-path="url(#SVGID_2_)">
					<g>
						<path fill="#FFFFFF" d="M564.5,801.3c-7.3-18.5-8.4-39.3-3.3-58.6c5.3-20,16.8-37.2,33.1-49.9c12.6-9.8,27.5-16.2,43.1-18.6
							l15.3-2.4l-11,10.9c-34,33.6-55.5,71.1-67.7,118.1l-3.9,14.9L564.5,801.3z"/>
						<path fill="#384AA5" d="M638.2,679.1c-38.8,38.3-58.3,79-69,120.4c-14.1-35.8-3.6-78,28.2-102.8
							C609.7,687.2,623.8,681.3,638.2,679.1 M667.3,664.4l-30.6,4.8c-16.5,2.6-32.2,9.4-45.4,19.6c-17.2,13.4-29.3,31.6-34.9,52.6
							c-5.4,20.3-4.2,42.3,3.5,61.7l11.3,28.7l7.7-29.8c11.9-46.1,33-82.9,66.4-115.8L667.3,664.4L667.3,664.4z"/>
					</g>
					<path fill="none" d="M692.1,959c73,206.9,23,316.7-42.5,470.7"/>
					<path fill="none" d="M930,959c73,206.9-3.4,382-68.8,536"/>
					<g>
						<path fill="#F9A987" d="M1085.1,1357.3c-2.7,0-6.5-0.2-9.1-1.1c-9-3.1-44.1-21-61.5-37.9c-5.9-5.7-8.8-12-8.5-18.8
							c0.5-13.2,13-24.5,24.5-34.1c5.1-4.2,11.6-6.3,19.5-6.3c13.1,0,25.8,5.8,27.6,6.8c2.8,1.1,17.4,8.5,40.3,45
							c7.5,12,9,22.2,4.4,30.5c-3.2,5.8-9.1,10.1-17.6,12.9C1099,1356.2,1091.8,1357.3,1085.1,1357.3
							C1085.1,1357.3,1085.1,1357.3,1085.1,1357.3z"/>
						<path fill="#384AA5" d="M1050.1,1264.2c12.8,0,25.7,6.3,25.7,6.3s14.2,4.9,38.1,43c19.8,31.5-12.5,38.7-28.7,38.7
							c-3.4,0-6.1-0.3-7.4-0.8c-7.9-2.7-42.5-20.1-59.7-36.8s0.9-33.1,15.8-45.4C1038.4,1265.5,1044.2,1264.2,1050.1,1264.2
							 M1050.1,1254.2c-9.1,0-16.7,2.5-22.7,7.4c-12.4,10.2-25.7,22.5-26.4,37.7c-0.3,8.2,3,15.8,10,22.6c18.8,18.3,55,36.1,63.4,39
							c2.6,0.9,6.2,1.3,10.7,1.3c5.3,0,32-0.9,41.7-18.4c3.8-6.9,6.1-18.6-4.5-35.6c-22.9-36.5-38.2-45.1-42.5-46.9
							C1077.2,1260.2,1063.9,1254.2,1050.1,1254.2L1050.1,1254.2z"/>
					</g>
					<path fill="none" stroke="#384AA5" stroke-width="5" stroke-miterlimit="10" stroke-dasharray="12" d="M1048.9,1264.2
						c10.6,34.3,34.9,62.5,66.5,78.3"/>
					<g>
						<path fill="#F9A987" d="M1315.8,1143.5c-12.4,0-22.8-0.9-30.7-2.7c-7.3-1.7-12.5-5.2-15.5-10.6c-5.8-10.5-1.6-24.9,2.8-37.6
							c6.4-18.3,33.4-21.5,36.5-21.8c0.6-0.1,1.6-0.2,3.1-0.2c6.4,0,21.3,2,48.6,15.7c16.1,8.1,18.5,18,17.6,24.9
							c-2,15.8-22.3,28.6-28.7,30C1345.1,1142.1,1331.3,1143.5,1315.8,1143.5C1315.8,1143.5,1315.8,1143.5,1315.8,1143.5z"/>
						<path fill="#384AA5" d="M1312,1075.5c5.2,0,19.2,1.6,46.4,15.2c35.7,17.9-2.6,43.9-9.9,45.5c-4.3,0.9-17.9,2.3-32.7,2.3
							c-10.3,0-21.1-0.7-29.6-2.6c-20.8-4.7-14.6-25.6-9-41.7c5.6-16.2,32.4-18.5,32.4-18.5S1310.4,1075.5,1312,1075.5 M1312,1065.5
							c-1.6,0-2.9,0.1-3.7,0.2c-4.9,0.5-33.3,4.2-40.6,25.2c-4.8,13.8-9.3,29.5-2.5,41.7c2.5,4.6,7.9,10.6,18.8,13
							c8.3,1.9,19,2.8,31.8,2.8c14.3,0,29.2-1.3,34.8-2.5c5.3-1.2,12.9-6.2,18-10.6c5.9-5.2,13.3-13.4,14.6-23.7
							c0.8-6-0.7-11.9-4.3-17c-3.5-5-8.7-9.2-16.1-12.9C1350.7,1075.7,1328,1065.5,1312,1065.5L1312,1065.5z"/>
					</g>
					<path fill="none" stroke="#384AA5" stroke-width="5" stroke-miterlimit="10" stroke-dasharray="12" d="M1276,1097.6
						c25.6,18.9,57.3,28.7,89.7,26.8"/>
					<g>
						<path fill="#F9A987" d="M628.4,1192.2c-12.6,0-22.8-5.6-29.5-16.1c-9.1-14.4-9.5-34.3-6.6-40.3c4.1-8.7,27.3-41.2,49-55.5
							c5.2-3.4,10.8-5.2,16.5-5.2c18.2,0,34,17.1,47.5,33.1c17,20.2,0.4,46.3-1.5,49.2c-1.7,3-11.8,16.6-57.7,31.7
							C639.9,1191.1,633.9,1192.2,628.4,1192.2C628.4,1192.2,628.4,1192.2,628.4,1192.2z"/>
						<path fill="#384AA5" d="M657.9,1080.1c16.3,0,31.6,17,43.7,31.3c15.4,18.3-1.9,43.4-1.9,43.4s-6.4,13.6-55,29.5
							c-6.1,2-11.5,2.9-16.2,2.9c-32.9,0-34.7-42.7-31.6-49.3c3.6-7.6,25.9-39.5,47.3-53.4C648.8,1081.4,653.4,1080.1,657.9,1080.1
							 M657.9,1070.1c-6.7,0-13.2,2-19.2,6c-23.6,15.5-47,49.4-50.8,57.5c-3.7,7.8-2.8,29.8,6.9,45.1c7.7,12.1,19.3,18.4,33.7,18.4
							c6,0,12.5-1.1,19.3-3.4c45.7-15,57.5-28.7,60.4-33.8c1.3-1.9,5.3-8.5,7.8-17.3c4.1-14.5,1.7-27.6-6.8-37.7
							C695,1088.1,678.2,1070.1,657.9,1070.1L657.9,1070.1z"/>
					</g>
					<path fill="none" stroke="#384AA5" stroke-width="5" stroke-miterlimit="10" stroke-dasharray="12" d="M606.5,1177.8
						c35.4-16.6,68.1-38.1,97.2-63.5"/>
					<g>
						<path fill="#56C9ED" d="M1115.9,738.1c-12.7,0-43.3-10.4-105.6-36.1c-38.1-15.7-63.2-26.7-78.9-34.9
							c-17.7-9.2-23.7-14.6-23-20.7c0.8-7.4,10.4-9,23.6-11.2c13.6-2.2,32.2-5.3,35.1-14.6c9.4-29.9,36.7-62.2,74.5-62.2
							c7.3,0,14.8,1.2,22.2,3.6c19.3,6.3,33.2,17.4,41.1,33.2c9.7,19.3,9.9,44.1,0.6,71.8c-4.2,12.5,5.3,28.6,13,41.5
							c6.4,10.8,11,18.7,7.6,24.6C1124.3,736.5,1120.9,738.1,1115.9,738.1C1115.9,738.1,1115.9,738.1,1115.9,738.1z"/>
						<path fill="#384AA5" d="M1041.6,563.6c6.6,0,13.5,1.1,20.7,3.4c45.2,14.6,52.8,56.2,38.5,98.7c-9.5,28.3,38.1,67.4,15.2,67.4
							c-11.5,0-40.7-9.8-103.7-35.7c-188.8-77.6-51.2-40.7-40.3-75.1C981,593.3,1006.8,563.6,1041.6,563.6 M1041.6,553.6
							c-18.6,0-36.3,7.3-51.3,21.1c-12.7,11.7-22.6,27.6-27.9,44.5c-0.7,2.2-3.9,4.4-9,6.2c-6.5,2.3-14.8,3.7-22.1,4.9
							c-5.4,0.9-10.6,1.7-14.7,2.9c-8,2.3-12.4,6.6-13.1,12.6c-1.1,9.8,8.2,16.6,25.7,25.7c15.8,8.2,41,19.3,79.3,35
							c73.6,30.2,96.2,36.4,107.5,36.4c8.6,0,12.6-3.9,14.5-7.2c4.8-8.5-0.7-17.8-7.7-29.6c-6.8-11.4-16-27.1-12.5-37.4
							c9.8-29,9.5-55.2-0.8-75.7c-8.6-17-23.4-29-44-35.7C1057.4,554.9,1049.4,553.6,1041.6,553.6L1041.6,553.6z"/>
					</g>
					<g>
						<path fill="#FFFFFF" stroke="#384AA5" stroke-miterlimit="10" d="M1100.4,681.7c-4.8,17,10,37.5,17.6,51.2
							C1132.4,730.9,1105.9,705.8,1100.4,681.7z"/>
						<path fill="#FFFFFF" d="M923.4,656.9c15.5-3.2,43.8-4.8,48.5-19.7c10.8-34.5,45.2-69.9,90.4-55.3c29,9.4,42.5,29.9,44.7,54.6
							c2.5-31.2-10-58.4-44.7-69.6c-45.2-14.6-79.5,20.8-90.4,55.3C963.9,647.8,886.2,634.1,923.4,656.9z"/>
					</g>
					<path fill="#FFFFFF" stroke="#384AA5" stroke-width="5" stroke-miterlimit="10" d="M1049.7,609.6
						c-21.7-6.1-31.9,10.6-37.2,26.3c-5.3,15.7-24.5,17.9,14.2,36.4c38.7,18.6,28.1-4.7,33.4-20.4
						C1065.4,636.3,1071.4,615.7,1049.7,609.6z"/>
					<path fill="#FFFFFF" stroke="#384AA5" stroke-width="5" stroke-miterlimit="10" d="M636.8,660.1c-9.2,16.9,2.8,28.5,14.8,35.8
						c12,7.3,10.2,23.7,32.9-4.9c22.7-28.6,1.4-24.2-10.7-31.5C661.9,652.1,646,643.2,636.8,660.1z"/>
					<path fill="#384AA5" stroke="#384AA5" stroke-width="5" stroke-miterlimit="10" d="M1049.7,609.6
						c-21.7-6.1-31.9,10.6-37.2,26.3c-5.3,15.7-24.5,17.9,14.2,36.4c38.7,18.6,28.1-4.7,33.4-20.4
						C1065.4,636.3,1071.4,615.7,1049.7,609.6z"/>
					<g>
						<path fill="#56C9ED" d="M643,785.4c-2,0-3.9-0.8-5.3-2.3c-3.5-3.7-3.1-10.4-2.5-20.6c0.7-11.5,1.6-27.3-5.1-31.2
							c-18.6-10.8-32.6-28.5-37.5-47.2c-4-15.3-1.6-30.9,6.8-45.1c11.6-19.5,28.8-29.9,49.7-29.9c14.5,0,30.6,5.1,46.4,14.8
							c2.8,1.7,6.3,2.6,10.7,2.6c8.2,0,17.5-3,25.6-5.6c6.6-2.1,11.9-3.8,16-3.8c5.2,0,7.4,2.8,8.2,4.4c3.4,6.5,1.8,16.3-49.3,89
							C657.9,780,649.5,785.4,643,785.4z"/>
						<path fill="#384AA5" d="M649.1,614.2c14.2,0,29.3,5.2,43.8,14c3.9,2.4,8.5,3.3,13.3,3.3c15.5,0,33.6-9.4,41.6-9.4
							c10.3,0,4.1,15.4-45.2,85.5c-38.7,55.1-53.9,72.7-59.6,72.7c-8.9,0,5.9-43.9-10.3-53.4c-26.6-15.5-49.5-50.6-28.9-85.4
							C615.2,622.4,631.4,614.2,649.1,614.2 M649.1,604.2c-22.7,0-41.4,11.2-53.9,32.3c-9.1,15.3-11.6,32.2-7.3,48.9
							c5.2,20,20,38.8,39.8,50.3c0.9,0.5,2.1,2.8,2.7,7.6c0.7,5.7,0.3,12.8-0.1,19c-0.7,11.1-1.1,19,3.8,24.3
							c2.3,2.5,5.5,3.8,8.9,3.8c6.8,0,13.1-4.9,25.1-19.3c9.8-11.8,23.3-30.1,42.7-57.6c20.4-29,33.5-48.7,41.2-62.2
							c9.8-16.9,12-25.3,8.5-32c-1.1-2.1-4.6-7.1-12.7-7.1c-4.9,0-10.5,1.8-17.5,4.1c-7.8,2.5-16.7,5.4-24.1,5.4
							c-3.4,0-6-0.6-8.1-1.8C681.5,609.6,664.6,604.2,649.1,604.2L649.1,604.2z"/>
					</g>
					<g>
						<path fill="#FFFFFF" d="M603.8,656.6c20.6-34.7,56.5-33.3,89.1-13.4c16.7,10.2,45.2-6.6,55.4-6.1c17.6-35.9-31.2,5.9-55.4-8.9
							c-32.6-19.9-68.5-21.3-89.1,13.4c-7.1,12-9.1,24.1-7.4,35.4C597.3,670.3,599.7,663.5,603.8,656.6z"/>
						<g>
							<path fill="#FFFFFF" d="M639.8,777.4c-0.7-3.2-0.4-8.5,0-14.6c0.1-1.3,0.2-2.6,0.2-3.9l1,0c0.5,6.1,0.1,13-0.2,18.4l-0.2,3.6
								L639.8,777.4z"/>
							<path fill="#384AA5" d="M640.5,758.9c0.5,5.9,0.2,12.5-0.2,18.3C639.5,773.4,640.1,766.5,640.5,758.9 M641.5,758.8l-2,0
								c-0.1,1.3-0.1,2.6-0.2,3.9c-0.4,6.1-0.7,11.4,0.1,14.7l1.6,7l0.4-7.2C641.6,771.8,642,765,641.5,758.8L641.5,758.8z"/>
						</g>
					</g>
					<path fill="#384AA5" stroke="#384AA5" stroke-width="5" stroke-miterlimit="10" d="M636.8,660.1c-9.2,16.9,2.8,28.5,14.8,35.8
						c12,7.3,10.2,23.7,32.9-4.9c22.7-28.6,1.4-24.2-10.7-31.5C661.9,652.1,646,643.2,636.8,660.1z"/>
					<g>
						<path fill="#56C9ED" d="M1047.2,1331.1c-20.8,0-39.1-3.4-54.4-10.2c-76.2-33.7-185.9-86.6-275.9-147.6l-0.2-0.2
							c-51.2-38.8-91.1-80.8-118.6-124.8c-22.2-35.6-29.6-62.4-31.8-72.2l0-0.1c-0.3-1.5-0.6-3-0.9-4.5
							c-12.9-70.1-6.6-140.1-4.3-159.9l0-0.3l0.1-0.2c7.7-35.1,20-65.3,37.6-92.1c21.3-32.4,50.4-60.5,89-86
							c60.1-39.7,134.7-48,186.7-48c51,0,103.5,8.2,147.6,23c44.6,14.9,76.9,35.4,91.2,57.7c33.6,52.6,34.1,98.9,32.8,116.4l0,0.4
							l-0.1,0.4c-0.5,2-0.7,4-0.7,5.9c0,18.5,19.5,35.7,51.8,64.2c19.7,17.3,44.1,38.9,72,67.6c43.7,45.1,49.9,115.2,47.4,166.1
							l0,0.2l0,0.2c-3.6,28.6-15.5,73.3-51.5,123.3l-0.3,0.4l-0.3,0.3c-51.5,50.2-119.1,93.4-137.9,103.4
							C1110.7,1322.6,1080,1331.1,1047.2,1331.1C1047.2,1331.1,1047.2,1331.1,1047.2,1331.1z"/>
						<path fill="#384AA5" d="M874.6,589.8c104.8,0,206.5,34.4,234.6,78.4c32.9,51.4,33.3,96.5,32,113.3c-0.5,2.3-0.8,4.7-0.8,6.9
							c-0.1,33,50.1,57.8,125.2,135.3c42.1,43.5,48.5,111.2,46,162.4c-3.7,29.2-15.7,72.4-50.6,121
							c-50.9,49.6-117.4,92.2-136.7,102.5c-15.8,8.4-46,16.4-77,16.4c-18.1,0-36.5-2.7-52.4-9.8C860.6,1257,773,1205.2,719.8,1169.2
							C600.5,1078.8,575.7,994.9,571.3,975c-0.3-1.5-0.6-3-0.9-4.5v0c-12.6-68.8-6.7-136.7-4.3-158.4
							c13.4-61.3,43.6-121.6,124.5-175.1C741.4,603.5,808.6,589.8,874.6,589.8 M874.6,579.8c-35.4,0-69.1,3.8-100,11.3
							c-34.1,8.3-64.2,20.9-89.4,37.6c-39.2,25.9-68.8,54.5-90.4,87.5c-18,27.4-30.5,58.1-38.3,93.8l-0.1,0.5l-0.1,0.5
							c-2.3,20-8.7,90.6,4.4,161.3c0.3,1.5,0.6,3.1,0.9,4.6l0,0.1l0,0.1c2.2,10.1,9.9,37.6,32.4,73.8c27.8,44.5,68.1,87,119.8,126.2
							l0.2,0.2l0.2,0.1c90.3,61.2,200.3,114.3,276.6,148.1c15.9,7,34.9,10.6,56.4,10.6c33.6,0,65.3-8.8,81.7-17.6
							c19-10.1,87.1-53.6,139-104.2l0.6-0.6l0.5-0.7c36.7-50.9,48.8-96.4,52.4-125.6l0-0.4l0-0.4c2.5-51.9-3.9-123.4-48.8-169.8
							c-28-28.9-52.6-50.5-72.3-67.9c-31.3-27.5-50.1-44.2-50.1-60.4c0-1.5,0.2-3.1,0.6-4.8l0.2-0.7l0.1-0.7
							c1.4-18,0.9-65.6-33.5-119.4c-14.9-23.2-48.2-44.4-93.8-59.8C979.1,588.1,926.1,579.8,874.6,579.8L874.6,579.8z"/>
					</g>
					<g>
						<path fill="#FFFFFF" d="M1141.2,804c-0.5,2.3-0.8,4.7-0.8,6.9c-0.1,33,50.1,57.8,125.2,135.3c34.3,35.4,44.9,86.9,46.3,132.4
							c1.5-50.1-6.2-113.5-46.3-154.9c-68.5-70.6-116.2-97.6-124.1-126.7C1141.5,799.7,1141.3,802,1141.2,804z"/>
						<path fill="#FFFFFF" d="M566.1,834.6c13.4-61.3,43.6-121.6,124.5-175.1c131.4-86.8,372.7-40.4,418.5,31.2
							c23.1,36.1,30.2,69,31.9,91.3c0-0.2,0.1-0.4,0.1-0.5c1.3-16.8,0.9-61.9-32-113.3c-45.8-71.6-287.2-118-418.5-31.2
							c-80.9,53.5-111.2,113.8-124.5,175.1c-1.5,12.8-4.1,41.7-3.5,77.3C563.2,864.3,565,844.6,566.1,834.6z"/>
					</g>
					<path fill="none" stroke="#384AA5" stroke-width="5" stroke-miterlimit="10" stroke-dasharray="12" d="M1053.3,610.9
						c5.4-14.1,9.5-28.4,12.2-42.8"/>
					<path fill="none" stroke="#384AA5" stroke-width="5" stroke-miterlimit="10" stroke-dasharray="12" d="M613.1,629.3
						c7.9,9.9,16.4,19.2,25.4,28"/>
					<g>
						<path fill="#FFFFFF" d="M929.7,850c-28.5,0-54.8-12.9-72.3-35.4c-15-19.3-21.6-43.3-18.5-67.5c3-24.2,15.3-45.9,34.6-60.8
							c16.2-12.6,35.6-19.2,56.1-19.2c28.5,0,54.8,12.9,72.3,35.4c15,19.3,21.6,43.3,18.5,67.5c-3,24.2-15.3,45.9-34.6,60.8
							C969.5,843.4,950.1,850,929.7,850z"/>
						<path fill="#384AA5" d="M929.5,669.6c26.5,0,52.8,11.8,70.3,34.4c30.2,38.8,23.1,94.7-15.7,124.9
							c-16.2,12.6-35.4,18.7-54.5,18.7c-26.5,0-52.8-11.8-70.3-34.4c-30.1-38.8-23.1-94.7,15.7-124.8
							C891.2,675.7,910.5,669.6,929.5,669.6 M929.6,664.6v5V664.6c-21,0-41,6.8-57.6,19.8c-19.8,15.4-32.5,37.6-35.6,62.5
							c-3.1,24.9,3.6,49.5,19,69.4c17.9,23.1,45,36.3,74.3,36.3c21,0,40.9-6.8,57.6-19.8c19.8-15.4,32.5-37.6,35.6-62.5
							c3.1-24.9-3.6-49.5-19-69.4C985.9,677.8,958.8,664.6,929.6,664.6L929.6,664.6z"/>
					</g>
					<g>
						<path fill="none" stroke="#384AA5" stroke-width="5" stroke-miterlimit="10" d="M842.1,593.3c-1.9,2.7-3.8,5.5-5.6,8.3"/>
						<path fill="none" stroke="#384AA5" stroke-width="5" stroke-miterlimit="10" stroke-dasharray="19.2234,19.2234" d="
							M826.4,617.9c-29.6,51.3-46.6,110.9-46.6,174.4c0,13,0.7,25.8,2.1,38.4"/>
						<path fill="none" stroke="#384AA5" stroke-width="5" stroke-miterlimit="10" d="M783.1,840.3c0.5,3.3,1,6.6,1.5,9.9"/>
					</g>
					<path fill="#FFFFFF" stroke="#384AA5" stroke-width="5" stroke-miterlimit="10" d="M602,726.7c-0.2,3.2-2.9,5.6-6.1,5.4
						c-3.2-0.2-5.6-2.9-5.4-6.1c0.2-3.2,2.9-5.6,6.1-5.4S602.2,723.6,602,726.7z"/>
					<path fill="none" stroke="#384AA5" stroke-width="5" stroke-miterlimit="10" stroke-dasharray="12" d="M929.1,847.5
						c7.3-24.5,11.7-56,11.7-90.5c0-33-5.9-63.4-14.7-87.4"/>
					<path fill="#384AA5" stroke="#384AA5" stroke-width="5" stroke-miterlimit="10" d="M953.9,713.9c8.7,11.9,6.1,28.6-5.8,37.3
						c-11.9,8.7-28.6,6.1-37.3-5.8c-8.7-11.9-6.1-28.6,5.8-37.3C928.5,699.4,945.2,702,953.9,713.9z"/>
					<path fill="#FFFFFF" stroke="#384AA5" stroke-width="5" stroke-miterlimit="10" d="M932.4,730.9c11.2-8.2,13.7-24.9,22.8-14.7
						c-0.4-0.7-0.8-1.5-1.3-2.2c-8.7-11.9-25.4-14.5-37.3-5.8c-11.9,8.7-14.5,25.4-5.8,37.3c0.5,0.7,1.2,1.3,1.7,1.9
						C905.6,735.7,921.2,739,932.4,730.9z"/>
					<path fill="#FFFFFF" stroke="#384AA5" stroke-width="5" stroke-miterlimit="10" d="M931.6,716.4c0.2,3.2-2.3,6-5.6,6.2
						c-3.2,0.2-6-2.3-6.2-5.6c-0.2-3.2,2.3-6,5.6-6.2C928.6,710.7,931.4,713.2,931.6,716.4z"/>
					<g>
						<path fill="#FFFFFF" stroke="#384AA5" stroke-width="5" stroke-miterlimit="10" d="M931.6,716.4c0.2,3.2-2.3,6-5.6,6.2
							c-3.2,0.2-6-2.3-6.2-5.6c-0.2-3.2,2.3-6,5.6-6.2C928.6,710.7,931.4,713.2,931.6,716.4z"/>
					</g>
					<g>
						<path fill="#FFFFFF" d="M786.9,874.1c-10.7-0.1-20.7-2.4-28.3-6.7c-8-4.5-12.5-10.7-12.4-17.4c0.1-13.3,17.9-23.7,40.6-23.7
							l0.3,0c10.7,0.1,20.7,2.4,28.3,6.7c8,4.5,12.5,10.7,12.4,17.4c-0.1,13.3-17.9,23.7-40.6,23.7L786.9,874.1z"/>
						<path fill="#384AA5" d="M786.8,828.7c0.1,0,0.2,0,0.3,0c21.2,0.1,38.3,9.8,38.2,21.6c-0.1,11.8-17.1,21.2-38.1,21.2
							c-0.1,0-0.2,0-0.3,0c-21.2-0.1-38.3-9.8-38.2-21.6C748.8,838.2,765.8,828.7,786.8,828.7 M786.8,823.7L786.8,823.7
							c-11,0-21.4,2.4-29.3,6.8c-8.8,4.9-13.7,11.8-13.8,19.4c0,7.6,4.8,14.6,13.7,19.6c8,4.5,18.4,7,29.5,7l0.4,0
							c11,0,21.4-2.4,29.3-6.8c8.8-4.9,13.7-11.8,13.8-19.4c0-7.6-4.8-14.6-13.7-19.6c-8-4.5-18.4-7-29.5-7L786.8,823.7L786.8,823.7
							z"/>
					</g>
					<g>
						<path fill="none" stroke="#384AA5" stroke-width="5" stroke-miterlimit="10" d="M936.3,1289.6c3.3-0.2,6.7-0.5,10-0.7"/>
						<path fill="none" stroke="#384AA5" stroke-width="5" stroke-miterlimit="10" stroke-dasharray="19.7791,19.7791" d="
							M966,1286.8c206-25,316-164.7,262.2-387.2"/>
						<path fill="none" stroke="#384AA5" stroke-width="5" stroke-miterlimit="10" d="M1225,890.3c-0.9-2.5-2.1-5.6-3.6-9.3"/>
					</g>
					<path fill="none" stroke="#384AA5" stroke-width="5" stroke-miterlimit="10" stroke-dasharray="20" d="M788.8,833.4
						c-2.5,21.7-8.4,89.6,4.3,158.4l0,0v0c0.3,1.5,0.6,3,0.9,4.5c4.4,20,29.2,103.8,148.5,194.2c42,28.5,133.4,80,227.2,90.5"/>
					
						<line fill="#FFFFFF" stroke="#384AA5" stroke-width="10" stroke-linecap="round" stroke-miterlimit="10" x1="1284.3" y1="1012.7" x2="1268.6" y2="1025.6"/>
					
						<line fill="#FFFFFF" stroke="#384AA5" stroke-width="10" stroke-linecap="round" stroke-miterlimit="10" x1="1270.9" y1="1009.5" x2="1282.1" y2="1028.8"/>
					<g>
						<path fill="#FFFFFF" d="M1147.8,864.7c0,0,11.8-47.6-4.7-62.2"/>
						<g>
							<path fill="#384AA5" d="M1147.2,803.5c-0.3-0.4-0.7-0.8-1.1-1c-0.4-0.2-0.8-0.4-1.2-0.5c-0.8-0.2-1.4,0-1.9,0.5
								c-0.4,0.5-0.6,1.2-0.5,1.9c0,0.3,0.1,0.7,0.3,1c0.1,0.4,0.3,0.7,0.6,1c0.1,0.1,0.3,0.3,0.5,0.7c0.3,0.4,0.6,0.9,1.1,1.6
								c0.8,1.4,1.8,3.5,2.6,6.1c1.7,5.3,2.5,12.7,2.4,20.2c0,7.4-0.7,14.9-1.4,20.4c-0.7,5.5-1.2,9.2-0.9,9.3
								c0.6,0.2,4.8-14.3,5.7-29.6c0.5-7.6,0-15.5-1.6-21.5c-0.8-3-1.8-5.5-2.8-7.2c-0.5-0.9-0.9-1.5-1.2-2.1
								C1147.5,803.9,1147.2,803.6,1147.2,803.5z"/>
						</g>
					</g>
					<g>
						<path fill="#FFFFFF" d="M1120.3,837.9c0,0,24.2-11.1,22.2-45.9"/>
						<g>
							<path fill="#384AA5" d="M1145,794.7c-0.1-1.6-1.2-2.8-2.5-2.8c-1.3,0.1-2.3,1.4-2.3,2.8c0,0.4,0.2,3.6-0.2,8.3
								c-0.2,2.3-0.6,5-1.3,7.8c-0.7,2.8-1.7,5.7-3,8.4c-1.3,2.7-2.8,5.4-4.5,7.6c-1.7,2.3-3.5,4.3-5.1,5.8c-3.3,3.2-6,4.8-5.8,5
								c0.1,0.3,3.2-0.8,7-3.6c1.9-1.4,4-3.3,6-5.6c2-2.3,3.9-4.9,5.5-7.8c1.6-2.9,2.8-5.9,3.7-8.9c0.9-3,1.5-5.8,1.9-8.3
								C1145.1,798.7,1145,795.1,1145,794.7z"/>
						</g>
					</g>
					<g>
						<path fill="#384AA5" d="M863.8,844.5c-1.4-0.1-2.6,1.3-2.6,3c0,1.7,1,3.2,2.2,3.3c0.1,0,0.3,0,0.7,0c0.4,0,0.9,0.1,1.5,0.1
							c0.6,0,1.4,0.1,2.2,0.2c0.8,0.1,1.8,0.2,2.7,0.4c3.9,0.6,9,2,13.1,4.9c1,0.7,2,1.5,2.9,2.4c0.9,0.9,1.7,1.8,2.4,2.7
							c1.4,1.9,2.4,3.9,3.1,5.8c1.4,3.7,1.6,6.4,2,6.4c0.4,0,1.1-2.8,0.3-7c-0.4-2.1-1.2-4.6-2.5-7c-0.6-1.2-1.5-2.4-2.4-3.6
							c-0.9-1.1-2-2.2-3.1-3.2c-2.3-2-4.9-3.5-7.5-4.7c-2.6-1.1-5.1-1.9-7.3-2.4c-1.1-0.3-2.1-0.5-3-0.6c-0.9-0.2-1.7-0.3-2.4-0.4
							c-0.7-0.1-1.2-0.2-1.7-0.2C864.2,844.5,863.9,844.5,863.8,844.5z"/>
					</g>
					<g>
						<path fill="#384AA5" d="M1045.6,586.4c-1.4-0.1-2.6,1.3-2.6,3s1,3.2,2.2,3.3c0.1,0,0.3,0,0.7,0c0.4,0,0.9,0.1,1.5,0.1
							c0.6,0,1.4,0.1,2.2,0.2c0.8,0.1,1.8,0.2,2.7,0.4c3.9,0.6,9,2,13.1,4.9c1,0.7,2,1.5,2.9,2.4c0.9,0.9,1.7,1.8,2.4,2.7
							c1.4,1.9,2.4,3.9,3.1,5.8c1.4,3.7,1.6,6.4,2,6.4c0.4,0,1.1-2.8,0.3-7c-0.4-2.1-1.2-4.6-2.5-7c-0.6-1.2-1.5-2.4-2.4-3.6
							c-0.9-1.1-2-2.2-3.1-3.2c-2.3-2-4.9-3.5-7.5-4.7c-2.6-1.1-5.1-1.9-7.3-2.4c-1.1-0.3-2.1-0.5-3-0.6c-0.9-0.2-1.7-0.3-2.4-0.4
							c-0.7-0.1-1.2-0.2-1.7-0.2C1045.9,586.5,1045.7,586.4,1045.6,586.4z"/>
					</g>
					<path fill="#FFFFFF" d="M958.9,649.7l10.1,8c3.2,0.4,6.3,0.8,9.5,1.3c0,0,0.1,0,0.1,0c22.3,2.2,40.7,19.6,44.4,41.5l0.1,0.1
						c0.1,0,0.4-1.4,0.4-3.8c0-2.4-0.3-6-1.3-10.1c-0.5-2.1-1.2-4.3-2.1-6.5c-0.4-1.1-1-2.3-1.5-3.4c-0.3-0.6-0.6-1.1-0.9-1.7
						c-0.2-0.3-0.3-0.6-0.5-0.9c-0.2-0.3-0.3-0.6-0.5-0.9c-0.4-0.6-0.7-1.1-1.1-1.7c-0.4-0.6-0.8-1.1-1.2-1.7l-0.6-0.8l-0.7-0.8
						c-0.4-0.5-0.9-1.1-1.3-1.6c-1.9-2.1-3.9-4.2-6.2-5.9c-4.5-3.6-9.6-6.5-14.6-8.6c-0.6-0.3-1.3-0.5-1.9-0.8
						c-0.6-0.2-1.3-0.4-1.9-0.7c-1.2-0.4-2.4-0.9-3.7-1.2c-1.2-0.3-2.4-0.7-3.5-1c-1.2-0.3-2.3-0.5-3.4-0.8c-2.2-0.5-4.2-0.8-6-1.1
						c-1.8-0.3-3.4-0.5-4.8-0.6c-1.4-0.1-2.5-0.3-3.3-0.4c-0.8,0-1.3-0.1-1.5-0.1c-2.8-0.1-5.1,0.8-5.1,2
						C956.1,648.4,957.3,649.3,958.9,649.7z"/>
					<g>
						<path fill="#384AA5" d="M961.3,651.3c-2.8-0.1-5.1,1.2-5.2,2.9c0,1.7,2.1,3.3,4.8,3.4c0.2,0,0.7,0,1.4,0.1
							c0.8,0.1,1.8,0.2,3.1,0.3c1.3,0.1,2.8,0.2,4.6,0.5c1.7,0.2,3.7,0.4,5.7,0.9c1,0.2,2.1,0.4,3.2,0.6c1.1,0.3,2.2,0.5,3.4,0.8
							c1.2,0.2,2.3,0.7,3.5,1c0.6,0.2,1.2,0.4,1.8,0.6c0.6,0.2,1.2,0.4,1.8,0.7c4.8,1.8,9.6,4.2,13.9,7.4c2.2,1.6,4.2,3.4,6,5.2
							c0.4,0.5,0.9,1,1.3,1.5l0.7,0.7l0.6,0.8c0.4,0.5,0.8,1,1.2,1.5c0.4,0.5,0.7,1,1.1,1.6l0.5,0.8l0.5,0.8c0.3,0.5,0.6,1.1,1,1.6
							c0.6,1.1,1.2,2.1,1.6,3.2c1,2.1,1.8,4.1,2.4,6.1c1.3,3.9,1.9,7.2,2.2,9.6c0.4,2.4,0.5,3.7,0.7,3.8c0.2,0,0.5-1.4,0.6-3.8
							c0.1-2.5-0.2-6-1.1-10.2c-0.5-2.1-1.1-4.3-2-6.6c-0.4-1.2-1-2.3-1.5-3.5c-0.3-0.6-0.6-1.2-0.9-1.7c-0.2-0.3-0.3-0.6-0.5-0.9
							l-0.5-0.9c-0.4-0.6-0.7-1.2-1.1-1.8c-0.4-0.6-0.8-1.1-1.2-1.7l-0.6-0.9l-0.7-0.8c-0.4-0.6-0.9-1.1-1.3-1.7
							c-1.9-2.1-4-4.2-6.2-6.1c-4.5-3.7-9.7-6.6-14.7-8.8c-0.6-0.3-1.3-0.5-1.9-0.8c-0.6-0.2-1.3-0.5-1.9-0.7
							c-1.3-0.4-2.5-0.9-3.7-1.2c-1.2-0.4-2.4-0.7-3.6-1c-1.2-0.3-2.3-0.5-3.4-0.8c-2.2-0.5-4.2-0.8-6-1.1c-1.8-0.3-3.4-0.5-4.8-0.7
							c-1.4-0.2-2.5-0.3-3.3-0.4C962,651.4,961.5,651.4,961.3,651.3z"/>
					</g>
					<g>
						<path fill="#384AA5" d="M726.7,850.8c1.3-0.1,2.3-1.5,2.2-3.3c0-1.7-1.2-3.1-2.6-3c-0.1,0-0.3,0-0.8,0.1
							c-0.4,0.1-1,0.1-1.7,0.2c-0.7,0.1-1.5,0.2-2.4,0.4c-0.9,0.2-1.9,0.3-3,0.6c-2.2,0.5-4.7,1.3-7.3,2.4c-2.6,1.1-5.2,2.7-7.5,4.7
							c-1.2,1-2.2,2.1-3.1,3.2c-0.9,1.2-1.7,2.3-2.4,3.6c-1.4,2.4-2.1,4.9-2.5,7c-0.8,4.3-0.1,7.1,0.3,7c0.4,0,0.6-2.7,2-6.4
							c0.7-1.8,1.7-3.9,3.1-5.8c0.7-1,1.5-1.9,2.4-2.7c0.9-0.8,1.9-1.7,2.9-2.4c4.1-2.9,9.2-4.3,13.1-4.9c1-0.2,1.9-0.3,2.7-0.4
							c0.8-0.1,1.6-0.1,2.2-0.2c0.6,0,1.1-0.1,1.5-0.1C726.4,850.8,726.6,850.8,726.7,850.8z"/>
					</g>
					<g>
						<path fill="#FFFFFF" d="M764.3,980c-12.7-0.1-22.9-10.4-22.9-23.1l0.3-62.7c0.1-12.6,10.4-22.9,23-22.9h0.1
							c12.7,0.1,22.9,10.4,22.9,23.1l-0.3,62.7c-0.1,12.6-10.4,22.9-23,22.9H764.3z"/>
						<path fill="#384AA5" d="M764.7,873.9C764.8,873.9,764.8,873.9,764.7,873.9c11.4,0.1,20.5,9.3,20.5,20.6l-0.3,62.7
							c-0.1,11.3-9.2,20.4-20.5,20.4c0,0-0.1,0-0.1,0c-11.3-0.1-20.4-9.3-20.4-20.6l0.3-62.7C744.3,883,753.4,873.9,764.7,873.9
							 M764.7,868.9L764.7,868.9c-14,0-25.4,11.4-25.5,25.4l-0.3,62.7c0,6.8,2.6,13.2,7.4,18.1c4.8,4.8,11.2,7.5,18,7.5l0.1,0
							c14,0,25.4-11.4,25.5-25.4l0.3-62.7c0-6.8-2.6-13.2-7.4-18c-4.8-4.8-11.2-7.5-18-7.5L764.7,868.9L764.7,868.9z"/>
					</g>
					<g>
						<path fill="#FFFFFF" d="M808.3,980.2c-12.7-0.1-22.9-10.4-22.9-23.1l0.3-62.7c0.1-12.6,10.4-22.9,23-22.9l0.1,0
							c6.1,0,11.9,2.4,16.2,6.8c4.3,4.4,6.7,10.1,6.7,16.3l-0.3,62.7c-0.1,12.6-10.4,22.9-23,22.9H808.3z"/>
						<path fill="#384AA5" d="M808.7,874.1C808.7,874.1,808.8,874.1,808.7,874.1c11.4,0.1,20.5,9.3,20.5,20.6l-0.3,62.7
							c-0.1,11.3-9.2,20.4-20.5,20.4c0,0-0.1,0-0.1,0c-11.3-0.1-20.4-9.3-20.4-20.6l0.3-62.7C788.3,883.2,797.4,874.1,808.7,874.1
							 M808.7,869.1L808.7,869.1c-14,0-25.4,11.4-25.5,25.4l-0.3,62.7c-0.1,14,11.3,25.5,25.4,25.6l0.1,0c14,0,25.4-11.4,25.5-25.4
							l0.3-62.7c0-6.8-2.6-13.2-7.4-18c-4.8-4.8-11.2-7.5-18-7.5L808.7,869.1L808.7,869.1z"/>
					</g>
					<g>
						<path fill="#F9A987" d="M838.6,918.3c-10,0-21.1-3.7-31-7.1c-8-2.7-15.6-5.2-20.9-5.2c-5.4,0-13,2.5-21,5.1
							c-9.7,3.2-20.8,6.8-30.6,6.8c0,0,0,0,0,0c-8.1,0-14.5-2.4-19.3-7.3c-6.4-6.5-7.7-16.4-3.4-26.6c7.8-18.8,33.8-37.8,74-37.8
							l0.6,0c40.5,0.2,66.5,19.4,74.2,38.4c4.2,10.3,2.8,20.2-3.6,26.7C852.8,916,846.6,918.3,838.6,918.3z"/>
						<path fill="#384AA5" d="M786.4,848.7c0.2,0,0.4,0,0.6,0c60.5,0.3,86.2,43.6,68.8,60.8c-4.7,4.7-10.7,6.4-17.2,6.4
							c-17.6,0-39.3-12.2-51.9-12.3c0,0-0.1,0-0.1,0c-12.5,0-34.1,11.8-51.5,11.8c-6.7,0-12.8-1.7-17.5-6.5
							C700.5,891.5,726.4,848.7,786.4,848.7 M786.4,843.7L786.4,843.7c-19,0-36.4,4.2-50.4,12.2c-12.3,7-21.5,16.7-25.9,27.2
							c-4.7,11.2-3.2,22.1,3.9,29.3c5.3,5.3,12.4,8,21.1,8c10.2,0,21.5-3.7,31.4-6.9c7.8-2.5,15.2-4.9,20.1-4.9l0.1,0
							c4.9,0,12.3,2.5,20.1,5.1c10,3.4,21.4,7.2,31.8,7.2c8.5,0,15.5-2.6,20.8-7.8c7.2-7.1,8.8-18.1,4.2-29.4
							c-4.3-10.6-13.5-20.4-25.9-27.5c-14-8.1-31.5-12.4-50.7-12.5L786.4,843.7L786.4,843.7z"/>
					</g>
					<path fill="#FFFFFF" d="M787,863.7c41.9,0.2,67.1,21.1,72.9,39.6c7.5-19.6-18.8-54.3-72.9-54.6c-54.3-0.3-80.9,34.5-73.3,54.1
						C719.5,884.3,745,863.5,787,863.7z"/>
					<g>
						<path fill="#384AA5" d="M786.9,874.1c-10.7-0.1-20.7-2.4-28.3-6.7c-8-4.5-12.5-10.7-12.4-17.4c0.1-13.3,17.9-23.7,40.6-23.7
							l0.3,0c10.7,0.1,20.7,2.4,28.3,6.7c8,4.5,12.5,10.7,12.4,17.4c-0.1,13.3-17.9,23.7-40.6,23.7L786.9,874.1z"/>
						<path fill="#384AA5" d="M786.8,828.7c0.1,0,0.2,0,0.3,0c21.2,0.1,38.3,9.8,38.2,21.6c-0.1,11.8-17.1,21.2-38.1,21.2
							c-0.1,0-0.2,0-0.3,0c-21.2-0.1-38.3-9.8-38.2-21.6C748.8,838.2,765.8,828.7,786.8,828.7 M786.8,823.7L786.8,823.7
							c-11,0-21.4,2.4-29.3,6.8c-8.8,4.9-13.7,11.8-13.8,19.4c0,7.6,4.8,14.6,13.7,19.6c8,4.5,18.4,7,29.5,7l0.4,0
							c11,0,21.4-2.4,29.3-6.8c8.8-4.9,13.7-11.8,13.8-19.4c0-7.6-4.8-14.6-13.7-19.6c-8-4.5-18.4-7-29.5-7L786.8,823.7L786.8,823.7
							z"/>
					</g>
					<g>
						<path fill="#FFFFFF" d="M824.4,853.8c-2.8-10.1-18.9-17.7-37.3-17.8l-0.3,0c-18.6,0-34.3,7.4-37.1,17.5l-0.5,1.7l-0.5-1.7
							c-0.3-1.2-0.5-2.4-0.5-3.6c0.1-12,17.4-21.7,38.6-21.7l0.3,0c10.3,0,20,2.3,27.3,6.5c7.4,4.2,11.4,9.7,11.4,15.6
							c0,1.2-0.2,2.3-0.5,3.5l-0.5,1.7L824.4,853.8z"/>
						<path fill="#384AA5" d="M786.8,828.7c0.1,0,0.2,0,0.3,0c21.2,0.1,38.3,9.8,38.2,21.6c0,1.1-0.2,2.2-0.5,3.3
							c-2.9-10.2-18.7-18.1-37.7-18.2c-0.1,0-0.2,0-0.3,0c-19,0-34.7,7.7-37.6,17.9c-0.3-1.1-0.5-2.3-0.5-3.4
							C748.8,838.2,765.8,828.7,786.8,828.7 M786.8,827.7L786.8,827.7c-10.3,0-20.1,2.2-27.4,6.3c-7.5,4.2-11.7,9.8-11.7,15.9
							c0,1.2,0.2,2.5,0.5,3.7l1,3.4l1-3.4c2.8-9.8,18.5-17.2,36.7-17.2l0.3,0c18.2,0.1,34,7.6,36.8,17.4l1,3.4l1-3.4
							c0.3-1.2,0.5-2.4,0.5-3.6c0-6.1-4.1-11.8-11.7-16.1c-7.4-4.2-17.2-6.5-27.6-6.5L786.8,827.7L786.8,827.7L786.8,827.7z"/>
					</g>
					<path fill="none" stroke="#384AA5" stroke-width="10" stroke-miterlimit="10" d="M1143.8,975.7c0,219.4,55.3,273.9,168.3,397.3
						"/>
					<g>
						<path fill="#F9A987" d="M1159.3,1115.1c-9.6,0-48.9-7.1-71.1-20.8c-26.6-16.4-10.5-51.1-1.9-69.8
							c8.1-17.5,26.8-20.1,37.2-20.1c4,0,7,0.4,8,0.5c3.5,0.3,20,3.5,53.2,38.7c16.8,17.9,15.4,33.2,11.2,42.9
							C1188.3,1104.1,1166.5,1115.1,1159.3,1115.1z"/>
						<path fill="#384AA5" d="M1123.5,1009.5c4.4,0,7.4,0.5,7.4,0.5s15,0,50.1,37.2c35.1,37.2-13.4,63-21.7,63
							c-8.3,0-46.8-6.7-68.5-20c-21.7-13.4-10-41.7,0-63.4C1097.7,1011.8,1113.9,1009.5,1123.5,1009.5 M1123.5,999.5
							c-20.1,0-34.9,8.2-41.7,23c-5.3,11.5-11.1,24.8-12.7,37.8c-2.7,21.6,7.5,32.8,16.6,38.4c24.1,14.8,64.7,21.5,73.7,21.5
							c9.5,0,32.8-12.3,41.1-31.6c4.8-11.1,6.5-28.4-12.2-48.3c-33-35-50.5-39.8-56.3-40.3C1130.7,999.8,1127.6,999.5,1123.5,999.5
							L1123.5,999.5z"/>
					</g>
					<path fill="#FFFFFF" d="M1090.8,1041.6c10-21.7,40.1-16.7,40.1-16.7s15,0,50.1,37.2c6.3,6.7,9.9,13,11.5,18.9
						c2.7-9.5,0.6-21-11.5-33.9c-35.1-37.2-50.1-37.2-50.1-37.2s-30.1-5-40.1,16.7c-6.9,15.1-14.7,33.3-11.6,47.6
						C1081.1,1063.4,1086.2,1051.8,1090.8,1041.6z"/>
					<path fill="none" stroke="#384AA5" stroke-width="5" stroke-miterlimit="10" stroke-dasharray="12" d="M1079.2,1059.5
						c31.6,18,66.7,30.7,104,36.7"/>
					
						<line fill="#FFFFFF" stroke="#384AA5" stroke-width="10" stroke-linecap="round" stroke-miterlimit="10" x1="1154.8" y1="967.1" x2="1133.9" y2="984.2"/>
					
						<line fill="#FFFFFF" stroke="#384AA5" stroke-width="10" stroke-linecap="round" stroke-miterlimit="10" x1="1136.9" y1="962.7" x2="1151.9" y2="988.6"/>
					<path fill="#FFFFFF" d="M1111.5,983.4L1111.5,983.4L1111.5,983.4c0-1.3-1.2-2.2-2.6-2.1c-0.1,0-0.3,0-0.7,0.1
						c-0.4,0-1,0.1-1.6,0.2c-0.7,0.1-1.5,0.2-2.4,0.3c-0.9,0.2-1.9,0.3-3,0.6c-2.2,0.5-4.6,1.2-7.2,2.3c-2.5,1.1-5.1,2.6-7.3,4.5
						c-1.1,0.9-2.2,2-3.1,3.1c-0.9,1.1-1.7,2.3-2.4,3.4c-1.4,2.3-2.2,4.8-2.6,6.8c-0.9,4.2-0.3,7,0,7l0,0h0c0,0,0,0,0.1-0.1
						l29.8-23.6c0,0,0,0,0,0c0.4,0,0.6,0,0.7,0C1110.5,985.7,1111.6,984.6,1111.5,983.4L1111.5,983.4z"/>
					<g>
						<path fill="#384AA5" d="M1109.3,991.9c1.3-0.1,2.3-1.5,2.2-3.3s-1.2-3.1-2.6-3c-0.1,0-0.3,0-0.8,0.1c-0.4,0.1-1,0.1-1.7,0.2
							c-0.7,0.1-1.5,0.2-2.4,0.4c-0.9,0.2-1.9,0.3-3,0.6c-2.2,0.5-4.7,1.3-7.3,2.4c-2.6,1.1-5.2,2.7-7.5,4.7c-1.2,1-2.2,2.1-3.1,3.2
							c-0.9,1.2-1.7,2.3-2.4,3.6c-1.4,2.4-2.1,4.9-2.5,7c-0.8,4.3-0.1,7.1,0.3,7c0.4,0,0.6-2.7,2-6.4c0.7-1.8,1.7-3.9,3.1-5.8
							c0.7-1,1.5-1.9,2.4-2.7c0.9-0.8,1.9-1.7,2.9-2.4c4.1-2.9,9.2-4.3,13.1-4.9c1-0.2,1.9-0.3,2.7-0.4c0.8-0.1,1.6-0.1,2.2-0.2
							c0.6,0,1.1-0.1,1.5-0.1C1109,991.9,1109.2,991.9,1109.3,991.9z"/>
					</g>
					<path fill="none" stroke="#384AA5" stroke-width="10" stroke-miterlimit="10" d="M1276,1019.1c0,164.2,41.4,205,125.9,297.4"/>
					<g>
						<path fill="#FFFFFF" d="M652.1,858.5c-28.5,0-54.8-12.9-72.3-35.4c-15-19.3-21.6-43.3-18.5-67.5c3-24.2,15.3-45.9,34.6-60.8
							c16.2-12.6,35.6-19.2,56.1-19.2c28.5,0,54.8,12.9,72.3,35.4c30.9,39.8,23.7,97.4-16.1,128.4
							C691.9,851.8,672.5,858.5,652.1,858.5z"/>
						<path fill="#384AA5" d="M651.9,678c26.5,0,52.8,11.8,70.3,34.4c30.2,38.8,23.1,94.7-15.7,124.9
							c-16.2,12.6-35.4,18.7-54.5,18.7c-26.5,0-52.8-11.8-70.3-34.4c-30.1-38.8-23.1-94.7,15.7-124.8
							C613.6,684.1,632.9,678,651.9,678 M651.9,673v5V673c-21,0-41,6.8-57.6,19.8c-19.8,15.4-32.5,37.6-35.6,62.5
							c-3.1,24.9,3.6,49.5,19,69.4c17.9,23.1,45,36.3,74.3,36.3c21,0,40.9-6.8,57.6-19.8c19.8-15.4,32.5-37.6,35.6-62.5
							c3.1-24.9-3.6-49.5-19-69.4C708.3,686.3,681.2,673,651.9,673L651.9,673z"/>
					</g>
					<path fill="none" stroke="#384AA5" stroke-width="5" stroke-miterlimit="10" stroke-dasharray="12" d="M628.4,681.2
						c-18.4,21.7-29.9,47.4-29.9,74.9c0,38.6,15.5,73.5,40.7,98.9"/>
					<g>
						<path fill="#384AA5" stroke="#384AA5" stroke-width="5" stroke-miterlimit="10" d="M628,739.6c-0.8,14.7-13.4,26-28.2,25.2
							c-14.7-0.8-26-13.4-25.1-28.1c0.8-14.7,13.4-26,28.1-25.2C617.5,712.3,628.8,724.9,628,739.6z"/>
						<path fill="#FFFFFF" stroke="#384AA5" stroke-width="5" stroke-miterlimit="10" d="M601.3,739.3c12-6.9,16.4-23.2,24.3-12.1
							c-0.4-0.8-0.6-1.6-1.1-2.4c-7.4-12.8-23.7-17.2-36.5-9.8c-12.8,7.4-17.2,23.7-9.8,36.5c0.4,0.8,1,1.4,1.5,2.1
							C574.1,741.2,589.2,746.2,601.3,739.3z"/>
					</g>
					<path fill="#FFFFFF" stroke="#384AA5" stroke-width="5" stroke-miterlimit="10" d="M602,726.7c-0.2,3.2-2.9,5.6-6.1,5.4
						c-3.2-0.2-5.6-2.9-5.4-6.1c0.2-3.2,2.9-5.6,6.1-5.4S602.2,723.6,602,726.7z"/>
				</g>
				<use xlink:href="#SVGID_1_"  overflow="visible" fill="none" stroke="#384AA5" stroke-width="5" stroke-miterlimit="10"/>
			</g>
		</g>
		<g>
			
				<line fill="none" stroke="#FFFFFF" stroke-width="10" stroke-linecap="round" stroke-miterlimit="10" x1="444.1" y1="1155.4" x2="459.3" y2="1155.4"/>
			
				<line fill="none" stroke="#FFFFFF" stroke-width="10" stroke-linecap="round" stroke-miterlimit="10" x1="532" y1="1254" x2="564.6" y2="1254"/>
			
				<line fill="none" stroke="#FFFFFF" stroke-width="10" stroke-linecap="round" stroke-miterlimit="10" x1="736.8" y1="1280.2" x2="765.7" y2="1280.2"/>
			
				<line fill="none" stroke="#FFFFFF" stroke-width="10" stroke-linecap="round" stroke-miterlimit="10" x1="736.9" y1="1317.2" x2="782.3" y2="1317.2"/>
			
				<line fill="none" stroke="#FFFFFF" stroke-width="10" stroke-linecap="round" stroke-miterlimit="10" x1="508.5" y1="1189.6" x2="548.6" y2="1189.6"/>
			
				<line fill="none" stroke="#FFFFFF" stroke-width="10" stroke-linecap="round" stroke-miterlimit="10" x1="542.6" y1="1220.7" x2="586" y2="1220.7"/>
			<path fill="none" stroke="#FFFFFF" stroke-width="10" stroke-linecap="round" stroke-miterlimit="10" d="M863.8,1322.9"/>
			<path fill="none" stroke="#FFFFFF" stroke-width="10" stroke-linecap="round" stroke-miterlimit="10" d="M815.6,1322.9"/>
			
				<line fill="none" stroke="#FFFFFF" stroke-width="10" stroke-linecap="round" stroke-miterlimit="10" x1="815.6" y1="1411" x2="863.8" y2="1411"/>
			
				<line fill="none" stroke="#FFFFFF" stroke-width="10" stroke-linecap="round" stroke-miterlimit="10" x1="815.6" y1="1344.3" x2="843.3" y2="1344.3"/>
			
				<line fill="none" stroke="#FFFFFF" stroke-width="10" stroke-linecap="round" stroke-miterlimit="10" x1="841.8" y1="1376.9" x2="869.5" y2="1376.9"/>
			
				<line fill="none" stroke="#FFFFFF" stroke-width="10" stroke-linecap="round" stroke-miterlimit="10" x1="439.1" y1="1129" x2="474.9" y2="1129"/>
			
				<line fill="none" stroke="#FFFFFF" stroke-width="10" stroke-linecap="round" stroke-miterlimit="10" x1="439.1" y1="1102.5" x2="459.3" y2="1102.5"/>
			
				<line fill="none" stroke="#FFFFFF" stroke-width="10" stroke-linecap="round" stroke-miterlimit="10" x1="439.1" y1="1077.7" x2="467.1" y2="1077.7"/>
			
				<line fill="none" stroke="#FFFFFF" stroke-width="10" stroke-linecap="round" stroke-miterlimit="10" x1="509.5" y1="1155.4" x2="553.2" y2="1155.4"/>
		</g>
	</g>
</g>
</svg>
