<?xml version="1.0" encoding="utf-8"?>
<!-- Generator: Adobe Illustrator 18.0.0, SVG Export Plug-In . SVG Version: 6.00 Build 0)  -->
<!DOCTYPE svg PUBLIC "-//W3C//DTD SVG 1.1//EN" "http://www.w3.org/Graphics/SVG/1.1/DTD/svg11.dtd">
<svg version="1.1" id="Layer_1" xmlns="http://www.w3.org/2000/svg" xmlns:xlink="http://www.w3.org/1999/xlink" x="0px" y="0px"
	 viewBox="0 0 2350 2350" enable-background="new 0 0 2350 2350" xml:space="preserve">
<g>
	<g>
		<g>
			<path fill="#FFBA8E" d="M1175,2310c-154,0-303.4-30.2-444-89.6c-67.6-28.6-132.8-64-193.8-105.2
				c-60.4-40.8-117.2-87.7-168.8-139.3s-98.5-108.4-139.3-168.8c-41.2-61-76.6-126.2-105.2-193.8c-59.5-140.6-89.6-290-89.6-444
				s30.2-303.4,89.6-444c28.6-67.6,64-132.8,105.2-193.8c40.8-60.4,87.7-117.2,139.3-168.8s108.4-98.5,168.8-139.3
				c61-41.2,126.2-76.6,193.8-105.2c140.6-59.5,290-89.6,444-89.6s303.4,30.2,444,89.6c67.6,28.6,132.8,64,193.8,105.2
				c60.4,40.8,117.2,87.7,168.8,139.3c51.6,51.6,98.5,108.4,139.3,168.8c41.2,61,76.6,126.2,105.2,193.8
				c59.5,140.6,89.6,290,89.6,444s-30.2,303.4-89.6,444c-28.6,67.6-64,132.8-105.2,193.8c-40.8,60.4-87.7,117.2-139.3,168.8
				c-51.6,51.6-108.4,98.5-168.8,139.3c-61,41.2-126.2,76.6-193.8,105.2C1478.4,2279.8,1329,2310,1175,2310z M1175,465.9
				c-95,0-187.1,18.6-273.8,55.3c-83.8,35.4-159,86.2-223.6,150.8C613,736.6,562.3,811.8,526.8,895.6
				c-36.7,86.7-55.3,178.9-55.3,273.8c0,95,18.6,187.1,55.3,273.8c35.4,83.8,86.2,159,150.8,223.6
				c64.6,64.6,139.8,115.3,223.6,150.8c86.7,36.7,178.9,55.3,273.8,55.3c95,0,187.1-18.6,273.8-55.3c83.8-35.4,159-86.2,223.6-150.8
				c64.6-64.6,115.3-139.8,150.8-223.6c36.7-86.7,55.3-178.9,55.3-273.8c0-95-18.6-187.1-55.3-273.8
				c-35.4-83.8-86.2-159-150.8-223.6c-64.6-64.6-139.8-115.3-223.6-150.8C1362.1,484.5,1270,465.9,1175,465.9z"/>
			<path fill="#231F20" d="M1175,38.6c624.5,0,1130.8,506.3,1130.8,1130.8S1799.6,2300.2,1175,2300.2S44.3,1793.9,44.3,1169.4
				S550.5,38.6,1175,38.6 M1175,1882.7c394,0,713.3-319.4,713.3-713.3S1569,456.1,1175,456.1s-713.3,319.4-713.3,713.3
				S781.1,1882.7,1175,1882.7 M1175,19c-78,0-156,7.9-231.8,23.4c-73.9,15.1-146.5,37.7-216,67c-68.2,28.8-133.9,64.5-195.4,106.1
				c-60.9,41.2-118.2,88.4-170.2,140.5c-52.1,52.1-99.3,109.3-140.5,170.2c-41.6,61.5-77.2,127.3-106.1,195.4
				c-29.4,69.4-51.9,142.1-67,216c-15.5,75.8-23.4,153.8-23.4,231.8c0,78,7.9,156,23.4,231.8c15.1,73.9,37.7,146.5,67,216
				c28.8,68.2,64.5,133.9,106.1,195.4c41.2,60.9,88.4,118.2,140.5,170.2c52.1,52.1,109.3,99.3,170.2,140.5
				c61.5,41.6,127.3,77.2,195.4,106.1c69.4,29.4,142.1,51.9,216,67c75.8,15.5,153.8,23.4,231.8,23.4c78,0,156-7.9,231.8-23.4
				c73.9-15.1,146.5-37.7,216-67c68.2-28.8,133.9-64.5,195.4-106.1c60.9-41.2,118.2-88.4,170.2-140.5
				c52.1-52.1,99.3-109.3,140.5-170.2c41.6-61.5,77.2-127.3,106.1-195.4c29.4-69.4,51.9-142.1,67-216
				c15.5-75.8,23.4-153.8,23.4-231.8c0-78-7.9-156-23.4-231.8c-15.1-73.9-37.7-146.5-67-216c-28.8-68.2-64.5-133.9-106.1-195.4
				c-41.2-60.9-88.4-118.2-140.5-170.2c-52.1-52.1-109.3-99.3-170.2-140.5c-61.5-41.6-127.3-77.2-195.4-106.1
				c-69.4-29.4-142.1-51.9-216-67C1331.1,26.8,1253.1,19,1175,19L1175,19z M1175,1863c-93.7,0-184.5-18.3-270-54.5
				c-41.1-17.4-80.7-38.9-117.8-64c-36.7-24.8-71.3-53.3-102.7-84.7c-31.4-31.4-59.9-65.9-84.7-102.7c-25.1-37.1-46.6-76.7-64-117.8
				c-36.2-85.5-54.5-176.3-54.5-270s18.3-184.5,54.5-270c17.4-41.1,38.9-80.7,64-117.8c24.8-36.7,53.3-71.3,84.7-102.7
				c31.4-31.4,65.9-59.9,102.7-84.7c37.1-25.1,76.7-46.6,117.8-64c85.5-36.2,176.3-54.5,270-54.5s184.5,18.3,270,54.5
				c41.1,17.4,80.7,38.9,117.8,64c36.7,24.8,71.3,53.3,102.7,84.7c31.4,31.4,59.9,65.9,84.7,102.7c25.1,37.1,46.6,76.7,64,117.8
				c36.2,85.5,54.5,176.3,54.5,270s-18.3,184.5-54.5,270c-17.4,41.1-38.9,80.7-64,117.8c-24.8,36.7-53.3,71.3-84.7,102.7
				c-31.4,31.4-65.9,59.9-102.7,84.7c-37.1,25.1-76.7,46.6-117.8,64C1359.5,1844.7,1268.7,1863,1175,1863L1175,1863z"/>
		</g>
		<g>
			<path fill="#FFFFFF" d="M1175,2310c-144.4,0-285.2-26.6-418.4-79.2c-128.6-50.8-246-123.9-348.8-217.4
				C199,1823.4,68.5,1564.8,40.3,1285.1l-0.9-9.2l109.2-17.4c3.7-0.6,6.4-3.9,6.4-7.8v-0.2c0-55.9,45.5-101.4,101.4-101.4
				c22.1,0,43.1,7,60.7,20.2c17,12.8,29.9,30.9,36.1,51.2c0.8,2.6,3.1,4.3,5.7,4.3c0.3,0,0.6,0,0.9-0.1l112.9-18l0.7,10.7
				c12,177.5,90.3,342.6,220.5,464.7c130.8,122.7,301.6,190.3,481,190.3c178.4,0,348.5-66.9,479-188.3
				c129.8-120.8,208.7-284.4,222.1-460.6l0.8-10.7l104.6,17.2c4.3-20.9,15.1-40,31.1-54.5c18.7-17,42.9-26.4,68.3-26.4
				c0.6,0,1.2,0,1.9,0c27,0.5,52.2,11.5,71.1,31.1c18.9,19.6,29,45.3,28.4,72.4c-0.1,3.4-0.3,6.9-0.7,10.3l128.4,21l-1,9.3
				c-30,277.9-161.3,534.5-369.6,722.7c-102.6,92.7-219.6,165.2-347.7,215.5C1459,2283.6,1318.8,2310,1175,2310z"/>
			<path fill="#231F20" d="M256.3,1159c41.1,0,75.9,27.1,87.5,64.5c2.1,6.7,8.3,11.2,15.1,11.2c0.8,0,1.7-0.1,2.5-0.2l102.3-16.3
				c25.1,371,334,664.2,711.3,664.2c375.3,0,682.8-289.9,710.9-658l103.9,17.1c4.6-46.3,43.6-82.4,91.1-82.4c0.6,0,1.1,0,1.7,0
				c50.4,0.9,90.9,43.1,89.8,93.5c-0.1,6.4-0.9,12.6-2.3,18.6l129,21.1C2237.9,1858.9,1758,2300.1,1175,2300.1
				c-585.7,0-1067.5-445.4-1125-1016l100-15.9c8.6-1.4,14.7-8.8,14.7-17.5c0-0.1,0-0.1,0-0.2C164.8,1200,205.8,1159,256.3,1159
				 M2080.9,1139.4c-27.8,0-54.4,10.3-74.9,29c-15.1,13.8-26.1,31.3-31.8,50.6l-85.1-14l-21.2-3.5l-1.6,21.4
				c-6.7,87.7-29.6,172.2-68.2,250.9c-18.6,38.1-40.9,74.7-66.3,108.8c-25.2,33.9-53.6,65.6-84.5,94.4
				c-128.7,119.8-296.4,185.7-472.3,185.7c-176.9,0-345.4-66.6-474.3-187.6c-31-29.1-59.4-61.1-84.6-95.3
				c-25.3-34.4-47.6-71.4-66.1-109.8c-38.3-79.5-60.8-164.7-66.8-253.1l-1.5-21.5l-21.3,3.4l-99,15.8c-7.2-21-20.8-39.7-38.6-53.1
				c-19.3-14.5-42.4-22.2-66.6-22.2c-29.7,0-57.6,11.6-78.6,32.6c-20.7,20.7-32.2,48-32.6,77.2L47,1264.7l-18.3,2.9l1.9,18.5
				c28.4,282.1,160.1,542.9,370.7,734.5c51.1,46.5,106.7,88.6,165.2,125.1c59.1,36.9,121.9,68.6,186.6,94.1
				c134.3,53,276.3,79.9,422,79.9c145,0,286.4-26.6,420.2-79.2c64.4-25.3,127-56.7,185.9-93.3c58.3-36.2,113.8-78,164.8-124.1
				c210.1-189.8,342.5-448.7,372.8-728.9l2-18.5l-18.4-3l-110.3-18.1c0-0.6,0-1.2,0.1-1.8c0.6-29.7-10.4-57.9-31.1-79.4
				c-20.7-21.5-48.4-33.6-78-34.2C2082.3,1139.4,2081.6,1139.4,2080.9,1139.4L2080.9,1139.4z"/>
		</g>
		<g>
			<g>
				<path fill="#FFFFFF" stroke="#231F20" stroke-width="8" stroke-linecap="round" stroke-miterlimit="10" d="M335.5,863.5
					l-9.1,28.9l-30.2-9.5L322,801l30.2,9.5l-5.9,18.8l71.8,22.6l-9.5,30.2l-12.7-4c2.6,6.2,4.1,13.1,4.6,20.8
					c0.5,11-0.9,22.1-4.5,33.3c-9,28.5-25.2,48.5-48.6,60.1c-23.1,11.2-49.1,12.3-77.9,3.2c-18.2-5.7-34-14.9-47.4-27.6
					c-26.9-25.2-34.3-57-22.2-95.4c6.7-21.3,17.9-36.5,33.5-45.6l-14.3-4.5l9.5-30.2l65.2,20.5l-10.7,33.9l-3.5,0.1
					c-24.8-0.3-40.9,11.5-48.5,35.4c-7.7,24.5-2.3,44.7,16.3,60.5c9.1,7.5,19.7,13.1,31.8,16.9c20.2,6.4,37.5,6.7,52,1.1
					c15.5-5.9,26.2-18.3,32.2-37.3c5.8-18.4,4.7-35.8-3.3-52.2L335.5,863.5z"/>
				<path fill="#FFFFFF" stroke="#231F20" stroke-width="8" stroke-linecap="round" stroke-miterlimit="10" d="M332.1,651.5
					c-6.5-26.4-1-51.6,16.4-75.5c16.9-23.3,38.8-36.2,65.8-38.6c25.4-2.4,49.8,5,73.3,22.1c23.4,17,37.9,38,43.4,62.8
					c5.8,26.3,0.3,51.1-16.6,74.4C498,719.2,476.5,732,450,735c-25.8,3-50-3.7-72.5-20.1C353.3,697.4,338.1,676.2,332.1,651.5z
					 M446.6,700.5c16.9-0.8,30.6-8.5,41.2-23.1c11-15.1,14-30.9,9-47.5c-4.6-15.4-15-28.9-31.1-40.6c-15.9-11.6-32-17.3-48-17.1
					c-17.5,0.3-31.7,7.9-42.5,22.8c-11.5,15.9-14.5,32.1-8.9,48.8c5.1,15,16.3,28.8,33.4,41.2C414.9,696.2,430.5,701.4,446.6,700.5z
					"/>
				<path fill="#FFFFFF" stroke="#231F20" stroke-width="8" stroke-linecap="round" stroke-miterlimit="10" d="M618.9,528.2
					l-80.2-109l-19.9,14.6l-18.8-25.5l81.4-59.9c41.9-30.8,74.7-30.2,98.3,1.9c12.8,17.5,16.3,35.2,10.3,53.2
					c-5.1,15.3-16.5,29.4-34.1,42.3l-34,25l26.3,35.8l19.9-14.6l18.8,25.5l-69.1,50.8l-18.8-25.5L618.9,528.2z M601.9,443.6
					l34.3-25.3c20.6-15.2,25.4-30.3,14.2-45.4c-6.4-8.7-13.7-12.4-21.9-11.4c-6.8,0.8-15.3,5-25.6,12.5L569.1,399L601.9,443.6z"/>
				<path fill="#FFFFFF" stroke="#231F20" stroke-width="8" stroke-linecap="round" stroke-miterlimit="10" d="M843.1,293.5
					l81.4-26.5l-13.9-42.9l-23.5,7.6l-9.8-30.1l81.7-26.6l9.8,30.1l-23.6,7.7L987,341.6l23.6-7.7l9.8,30.1l-81.7,26.6l-9.8-30.1
					l23.5-7.6L934.9,299l-81.4,26.5l17.5,53.8l23.5-7.6l9.8,30.1l-81.6,26.5l-9.8-30.1l23.5-7.6l-41.8-128.7l-23.5,7.6l-9.8-30.1
					l81.6-26.5l9.8,30.1l-23.5,7.6L843.1,293.5z"/>
				<path fill="#FFFFFF" stroke="#231F20" stroke-width="8" stroke-linecap="round" stroke-miterlimit="10" d="M1149.9,191.4
					l0.7,45.8l81.8-1.3l0.5,33.5l-81.8,1.3l0.8,52.3l73.8-1.2l-0.4-22.6l31.8-0.5l0.9,56.2l-166.7,2.7l-0.5-31.7l24.7-0.4
					l-2.2-135.3l-24.7,0.4l-0.5-31.7l166.7-2.7l0.9,56.2l-31.8,0.5l-0.4-22.7L1149.9,191.4z"/>
				<path fill="#FFFFFF" stroke="#231F20" stroke-width="8" stroke-linecap="round" stroke-miterlimit="10" d="M1512.9,390.1
					l24.3,7.8l-9.7,30.1l-81.7-26.4l9.7-30.1l14.8,4.8l-2.9-11.5c-6.4-23.7-11.8-38.2-16.1-43.5c-2.3-2.9-4.9-5.2-7.6-6.9
					c-2.1-1.3-6-2.8-11.7-4.7l-21.7-7l-15.8,49.1l23.5,7.6l-9.7,30.1l-81.6-26.3l9.7-30.1l23.5,7.6l41.6-128.8l-23.5-7.6l9.7-30.1
					l107.9,34.8c16.5,5.3,28.8,11.2,36.8,17.5c8.2,6.7,13.6,15.5,16.2,26.4c2.6,10.8,2.2,21.6-1.3,32.4c-4.5,14-13,24.5-25.4,31.3
					c-9.1,4.9-20.1,7.1-33.2,6.5C1496.4,336.5,1504.6,358.9,1512.9,390.1z M1420.2,271.4l45.1,14.5c10.2,3.3,18.4,4.8,24.5,4.5
					c5.6-0.3,10.2-1.9,13.8-4.8c3.9-3.2,6.6-7.1,8.1-11.8c2.2-6.8,1.5-13.1-2-19c-3.5-6.1-11.2-11.1-23.1-15l-50.8-16.4
					L1420.2,271.4z"/>
				<path fill="#FFFFFF" stroke="#231F20" stroke-width="8" stroke-linecap="round" stroke-miterlimit="10" d="M1815,382.3
					l25.6,18.7l-40.5,55.5l-27.8-20.3l1.2-3.5c7.9-23.8,3.6-41.6-12.7-53.5c-19.6-14.3-39.2-14.5-58.9-0.6
					c-9.4,6.8-17.6,14.9-24.5,24.3c-9,12.3-15,24.3-18.1,35.9c-3.3,12.1-2.8,23,1.3,32.9c3.1,7.1,7.7,12.9,13.8,17.4
					c1.4,1,3,2.1,4.8,3.2c8.8,4.8,18.3,6.6,28.5,5.6c11.1-1.3,21.3-5.8,30.5-13.5l3.5-3l26.2,26.4l-4.3,3.5
					c-15.2,12.6-32.2,19.6-51.1,21c-17.7,1.2-34.2-2.5-49.5-11.1c-3-1.7-5.8-3.6-8.5-5.5c-11.1-8.1-19.5-18.4-25.3-30.9
					c-7.8-16.9-9.4-35.2-4.8-55c4.1-17.3,11.6-33.5,22.6-48.6c12.1-16.5,25.7-28.6,41.1-36.3c15.5-7.8,31.3-10.9,47.5-9.4
					c15.7,1.6,30.6,7.6,44.6,17.8c14.2,10.4,23.3,23.3,27.4,38.9L1815,382.3z"/>
				<path fill="#FFFFFF" stroke="#231F20" stroke-width="8" stroke-linecap="round" stroke-miterlimit="10" d="M1930,531.3
					c27.1,1.8,49.5,14.6,67.1,38.5c17.1,23.1,22.7,47.9,16.9,74.4c-5.4,24.9-19.8,46-43.2,63.2c-23.3,17.2-47.6,24.7-73,22.4
					c-26.8-2.4-48.8-15.1-65.9-38.3c-16.6-22.5-22.3-46.8-17.2-73c5-25.5,18.7-46.5,41.1-63.1C1879.9,537.7,1904.6,529.7,1930,531.3
					z M1848.7,625.7c-4.3,16.3-1.1,31.7,9.6,46.2c11.1,15,25.3,22.7,42.5,22.9c16.1,0.2,32.1-5.6,48.1-17.4
					c15.9-11.7,26.1-25.3,30.8-40.7c5-16.8,2-32.6-8.9-47.4c-11.6-15.8-26.2-23.5-43.8-23.2c-15.9,0.3-32.4,6.8-49.4,19.4
					C1862.4,596.8,1852.8,610.2,1848.7,625.7z"/>
				<path fill="#FFFFFF" stroke="#231F20" stroke-width="8" stroke-linecap="round" stroke-miterlimit="10" d="M2128.2,917.2
					l-7.8-24.4l30.2-9.6l26.1,81.7l-30.2,9.6l-7.5-23.6L2010,992.1l5.6,17.6l-30.2,9.6l-26-81.6l30.2-9.6l3.5,11.1l76.7-96.1
					l-97.4,31.1l7.8,24.6l-30.2,9.6l-26.1-81.7l30.2-9.6l7.5,23.5l128.9-41.2l-7.5-23.5l30.2-9.6l17.9,56.2l-100,125.8L2128.2,917.2
					z"/>
			</g>
		</g>
		<g>
			<g>
				<path fill="#EED898" stroke="#231F20" stroke-width="10" stroke-miterlimit="10" d="M261,1545.2l116.7-56.7l-10.3-21.3
					l27.3-13.3l38.5,79.3c6.3,12.9,10.3,23.2,12.1,31c2.6,11,2.6,21.6,0.1,31.9c-6.7,25.7-25.6,46.1-56.6,61.1
					c-24.5,11.9-46.8,16-66.9,12.4c-24.9-4.3-44.5-21.2-58.8-50.6l-39.8-81.8l27.3-13.3L261,1545.2z M391.4,1520.6l-113.5,55.2
					l13,26.7c8.5,17.5,17.7,27.9,27.6,31.3c14.4,5,32.8,2.1,55.1-8.7c28.4-13.8,41.8-30.8,40.1-50.9c-0.5-6.1-3.6-15.2-9.6-27.3
					L391.4,1520.6z"/>
				<path fill="#EED898" stroke="#231F20" stroke-width="10" stroke-miterlimit="10" d="M529.5,1737.2l-32.4,29.7l53,57.9
					l-23.7,21.7l-53-57.9l-37,33.8l47.8,52.2l16-14.6l20.6,22.5l-39.7,36.4l-108-117.9l22.4-20.5l16,17.4l95.7-87.6l-16-17.4
					l22.4-20.5l108,117.9l-39.7,36.4l-20.6-22.5l16.1-14.7L529.5,1737.2z"/>
				<path fill="#EED898" stroke="#231F20" stroke-width="10" stroke-miterlimit="10" d="M780.1,1933.7l-21.2-12.4l15.4-26.2
					l70.9,41.6l-15.4,26.2l-20.5-12l-65.7,111.9l15.3,9l-15.4,26.2l-70.8-41.6l15.4-26.2l9.6,5.6l-6.8-117.7l-49.6,84.6l21.3,12.5
					l-15.4,26.2l-70.9-41.6l15.4-26.2l20.4,12l65.7-111.9l-20.4-12l15.4-26.2l48.8,28.6l9.1,153.8L780.1,1933.7z"/>
				<path fill="#EED898" stroke="#231F20" stroke-width="10" stroke-miterlimit="10" d="M1013,2014.1l6.5-29.7l80.3,17.6l-6.5,29.7
					l-23.9-5.2l-77.4,115.9l13.3,2.9l-6.5,29.7l-80.3-17.6l6.5-29.7l12.6,2.8l-21.3-137.5l-26.6-5.8l6.5-29.7l80.3,17.6l-6.5,29.7
					l-17.6-3.9l15.8,121.5l66.5-103.4L1013,2014.1z"/>
				<path fill="#EED898" stroke="#231F20" stroke-width="10" stroke-miterlimit="10" d="M1217.9,2030.1l3.2,43.8l78.3-5.8l2.4,32
					l-78.3,5.8l3.7,50l70.6-5.2l-1.6-21.6l30.4-2.3l4,53.7l-159.5,11.8l-2.2-30.3l23.6-1.7l-9.6-129.4l-23.6,1.7l-2.2-30.3
					l159.5-11.8l4,53.7l-30.4,2.3l-1.6-21.7L1217.9,2030.1z"/>
				<path fill="#EED898" stroke="#231F20" stroke-width="10" stroke-miterlimit="10" d="M1608.1,2062.1l22.7-9l11.2,28.2l-76.6,30.3
					l-11.2-28.2l13.9-5.5l-9.2-6.8c-19.2-13.7-32-21.1-38.5-22.4c-3.5-0.7-6.8-0.9-9.9-0.4c-2.3,0.3-6.1,1.6-11.5,3.7l-20.4,8.1
					l18.2,46l22-8.7l11.2,28.2l-76.5,30.2l-11.2-28.2l22-8.7l-47.7-120.7l-22,8.7l-11.2-28.2l101.1-40c15.5-6.1,28.1-9.3,37.9-9.5
					c10.1,0,19.5,3.2,28.1,9.7c8.5,6.4,14.7,14.6,18.8,24.8c5.2,13.2,5.3,26,0.3,38.6c-3.7,9.2-10.6,17.5-20.6,25
					C1563.2,2032.4,1582.9,2044,1608.1,2062.1z M1467.1,2030.7l42.2-16.7c9.6-3.8,16.5-7.6,20.9-11.6c4-3.6,6.4-7.6,7.3-12
					c0.9-4.7,0.5-9.3-1.2-13.7c-2.5-6.3-6.9-10.6-13-12.9c-6.3-2.4-15.1-1.4-26.3,3l-47.6,18.8L1467.1,2030.7z"/>
				<path fill="#EED898" stroke="#231F20" stroke-width="10" stroke-miterlimit="10" d="M1741.7,2016.5l-20.8-29.7l29.5-20.7
					l17.6,25.1c3,4.3,5.4,9.3,7,14.9c2.1,7.6,1.7,13.5-1.2,17.7l-0.5,0.7l-17.6,12.3l-0.2-8.9c-0.1-5-2.2-10.7-6.1-16.9
					L1741.7,2016.5z"/>
				<path fill="#EED898" stroke="#231F20" stroke-width="10" stroke-miterlimit="10" d="M1812.1,1699.3l20.6-22.3l48.3,44.7
					l-22.5,24.3l-3.2-1.5c-21.8-10.1-39.2-8.1-52.3,6.1c-15.8,17.1-18.2,35.8-7.2,56c5.4,9.7,12.2,18.4,20.4,26
					c10.7,9.9,21.4,17,32.2,21.2c11.1,4.5,21.6,5.3,31.5,2.4c7.1-2.2,13.2-5.9,18.1-11.3c1.2-1.2,2.3-2.7,3.5-4.2
					c5.5-7.8,8.4-16.7,8.5-26.6c0-10.7-3.1-20.9-9.5-30.5l-2.4-3.7l28.1-22l2.8,4.5c10.3,15.9,15.1,32.9,14.3,51
					c-0.8,17-6.2,32.2-16.1,45.9c-2,2.7-4,5.2-6.2,7.5c-8.9,9.7-19.7,16.5-32.3,20.6c-17,5.5-34.6,5-52.9-1.6
					c-16-5.8-30.6-14.8-43.7-26.9c-14.4-13.3-24.4-27.7-30-43.1c-5.7-15.6-6.9-31-3.7-46.3c3.3-14.8,10.6-28.3,21.9-40.5
					c11.4-12.4,24.8-19.6,40.1-21.8L1812.1,1699.3z"/>
				<path fill="#EED898" stroke="#231F20" stroke-width="10" stroke-miterlimit="10" d="M1910,1608.5c-10.5-23.9-9.5-48.5,2.9-74.1
					c12.1-24.8,30.7-40.6,55.7-47.4c23.6-6.4,47.9-3.6,72.9,8.7c25,12.2,42.1,29.6,51.4,52.1c9.9,23.9,8.8,48.2-3.3,73
					c-11.7,24.1-29.9,39.7-54.5,47c-23.9,7.1-47.8,4.8-71.8-6.9C1937.6,1648.3,1919.8,1630.9,1910,1608.5z M2026.3,1635.8
					c15.8-3.6,27.5-13.1,35.1-28.6c7.9-16.1,8.1-31.5,0.6-46.3c-6.9-13.8-19-24.8-36.1-33.2c-17-8.3-33.1-11-48.2-8.1
					c-16.5,3.2-28.6,12.7-36.4,28.6c-8.2,16.9-8.4,32.8-0.3,47.5c7.3,13.3,20.2,24.5,38.4,33.4
					C1995.6,1637,2011.3,1639.2,2026.3,1635.8z"/>
			</g>
		</g>
		<g>
			<path fill="#9BDAD9" d="M189.7,1418.2c-36,0-67-26.9-72.1-62.6l-22.1-155.1c-2.7-19.3,2.2-38.5,13.9-54.1s28.7-25.7,48-28.4
				l155.1-22.1c3.4-0.5,6.9-0.7,10.4-0.7c36,0,67,26.9,72.1,62.6l22.1,155.1c5.7,39.8-22.1,76.8-61.9,82.5l-155.1,22.1
				C196.7,1417.9,193.2,1418.2,189.7,1418.2z"/>
			<g>
				<path fill="#231F20" d="M322.9,1100.1c33.3,0,62.3,24.5,67.1,58.3l22.1,155.1c5.3,37.1-20.5,71.5-57.7,76.8l-155.1,22.1
					c-3.2,0.5-6.5,0.7-9.7,0.7c-33.3,0-62.3-24.5-67.1-58.3l-22.1-155.1c-5.3-37.1,20.5-71.5,57.7-76.8l155.1-22.1
					C316.5,1100.3,319.7,1100.1,322.9,1100.1 M322.9,1090.1c-3.7,0-7.4,0.3-11.1,0.8L156.7,1113c-42.5,6.1-72.2,45.6-66.1,88.1
					l22.1,155.1c2.7,18.7,12,35.7,26.3,48c14.2,12.2,32.2,18.9,50.8,18.9c3.7,0,7.4-0.3,11.1-0.8l155.1-22.1
					c42.5-6.1,72.2-45.6,66.1-88.1L400,1157.1c-2.7-18.7-12-35.7-26.3-48C359.5,1096.8,341.5,1090.1,322.9,1090.1L322.9,1090.1z"/>
			</g>
		</g>
		<g>
			<g>
				<path fill="#FFFFFF" stroke="#231F20" stroke-width="10" stroke-miterlimit="10" d="M234.5,1334.5c-1.6,0.2-4.2,0.3-7.7,0.2
					c-3.5-0.1-6,0-7.5,0.2l-28.7,3.8c-2.5,0.3-6.2,1.2-11.1,2.5c-4.9,1.3-8.7,2.1-11.2,2.5c-0.7,0.1-1.8,0.1-3.2,0
					c-1.4-0.1-2.5-0.1-3.2,0c-5.9,0.8-10.2-1-12.9-5.5c-1.7-2.8-3-7.3-3.8-13.6c-1.7-12.2-0.3-22.7,3.9-31.7
					c3.3-6.9,9.2-14.1,17.6-21.7c8-7,16-13.9,23.9-20.9c9.3-8.9,13.2-18.1,12-27.6c-0.3-2.5-2.7-4.7-7.2-6.5
					c-4.4-1.9-8.6-2.6-12.5-2c-6.9,0.9-13.8,5-20.7,12.2c-6.9,7.2-11.7,11-14.6,11.4c-3.5,0.5-6.6,0-9.4-1.3c-3.5-1.6-5.6-4.3-6.1-8
					c-0.5-4,0.6-7.6,3.5-10.9c6.9-8,13.1-14.1,18.5-18c7.8-5.8,16.3-9.3,25.3-10.5c11.3-1.5,21.8,0,31.7,4.7
					c11.3,5.4,17.7,13.5,19.1,24.4c1.5,11.1,0.3,20.8-3.8,29.3c-3.1,6.7-8.6,13.6-16.4,20.6c-7.4,6.3-14.9,12.5-22.3,18.7
					c-11.3,9.8-16.7,19.9-16.2,30.3c3.5-0.9,8.7-2.2,15.6-3.7c13.8-2.6,23.6-4.3,29.6-5.1c5.6-0.8,11.3-0.3,17.1,1.4
					c7.2,2.1,11.1,5.5,11.7,10.1c0.5,3.4-0.3,6.5-2.4,9.4C241.2,1332.2,238.2,1334,234.5,1334.5z"/>
				<path fill="#FFFFFF" stroke="#231F20" stroke-width="10" stroke-miterlimit="10" d="M328.2,1325.4c-21.5,2.9-38.4-4.2-50.7-21.5
					c-9-12.8-15-30.1-18-51.9c-2.5-18.6,0-35.6,7.5-50.9c9-18.4,23.4-28.9,43-31.6c18.6-2.5,34.1,3,46.4,16.6
					c10.4,11.5,16.8,26.3,19.3,44.2c4,29,2,51.5-5.9,67.3C361.9,1313.4,348,1322.7,328.2,1325.4z M313.4,1194.8
					c-10.5,1.4-18.3,7.8-23.2,19.2c-4.4,9.9-5.7,20.8-4.1,32.9c2.2,15.9,5.3,27.9,9.5,36.1c6.7,13.2,16.4,18.9,29.2,17.2
					c10.7-1.5,18-7.4,22-17.9c4-10.5,4.7-25.4,2-44.9c-2.1-15.6-6.1-26.9-12-34C330.9,1196.3,323.1,1193.5,313.4,1194.8z"/>
			</g>
		</g>
		<g>
			<path fill="#9BDAD9" d="M2162.2,1419.1c-3.8,0-7.6-0.3-11.4-0.9L1996,1394c-19.2-3-36.2-13.3-47.6-29.1
				c-11.5-15.7-16.1-35-13.1-54.2l24.2-154.8c2.7-17.3,11.5-33,24.8-44.3c13.2-11.2,29.9-17.3,47.1-17.3c3.8,0,7.6,0.3,11.4,0.9
				l154.8,24.2c19.2,3,36.2,13.3,47.6,29.1c11.5,15.7,16.1,35,13.1,54.2l-24.2,154.8c-2.7,17.3-11.5,33-24.8,44.3
				C2196.1,1412.9,2179.4,1419.1,2162.2,1419.1C2162.2,1419.1,2162.2,1419.1,2162.2,1419.1z"/>
			<g>
				<path fill="#231F20" d="M2031.4,1099.2c3.5,0,7,0.3,10.6,0.8l154.8,24.2c37.1,5.8,62.4,40.5,56.6,77.6l-24.2,154.8
					c-5.2,33.5-34.1,57.4-67,57.4c-3.5,0-7-0.3-10.6-0.8l-154.8-24.2c-37.1-5.8-62.4-40.5-56.6-77.6l24.2-154.8
					C1969.7,1123.1,1998.6,1099.2,2031.4,1099.2 M2031.4,1089.2c-18.4,0-36.3,6.6-50.3,18.5c-14.2,12.1-23.7,28.9-26.6,47.4
					l-24.2,154.8c-3.2,20.6,1.8,41.1,14,58c12.3,16.8,30.3,27.8,50.9,31.1l154.8,24.2c4,0.6,8.1,0.9,12.1,0.9
					c18.4,0,36.3-6.6,50.3-18.5c14.2-12.1,23.7-28.9,26.6-47.4l24.2-154.8c6.6-42.4-22.5-82.4-64.9-89l-154.8-24.2
					C2039.5,1089.5,2035.5,1089.2,2031.4,1089.2L2031.4,1089.2z"/>
			</g>
		</g>
		<g>
			<g>
				<path fill="#FFFFFF" stroke="#231F20" stroke-width="10" stroke-miterlimit="10" d="M2034.9,1321.8l-38.6-6.4
					c-12.3-2-17.8-6.8-16.5-14.6c1.4-8.7,9-11.9,22.6-9.7c1.3,0.2,2.7,0.5,4.3,0.8l14-86.3c-6.3,3-10.3,4.3-11.9,4
					c-3.6-0.6-6.6-2.4-8.9-5.4c-2.3-3-3.1-6.3-2.6-9.7c0.6-3.6,3.3-6.9,8.3-9.9l12.3-6.2l13.4-7.6c5.4-2.7,10.4-3.7,15-3
					c5.8,1,8.2,4.9,7,11.9c-1.3,7.7-3.3,18.5-6.3,32.4c-2.9,13.9-6.5,33.9-10.7,59.9l-3.8,23.5l6.4,1c3.8,0.6,6.7,2.3,8.9,5.1
					c2.2,2.8,3,6,2.4,9.6c-0.6,3.6-2.3,6.3-5.3,8.3C2042,1321.7,2038.6,1322.4,2034.9,1321.8z"/>
				<path fill="#FFFFFF" stroke="#231F20" stroke-width="10" stroke-miterlimit="10" d="M2145.3,1346.8c-18.4-3-30.8-11.7-37.5-26.1
					c-5.3-11.5-6.6-25.7-3.9-42.6c5.1-31.6,23-56.8,53.6-75.5c3.9-2.7,7.8-5.4,11.7-8c5.4-3.4,9.7-4.9,12.8-4.4
					c3.6,0.6,6.5,2.3,8.8,5.2c2.3,2.9,3.3,6,2.8,9.5c-0.4,3.3-4.9,7.9-13.6,13.9c-6.2,4.1-12.3,8.1-18.4,12.1
					c-6.9,4.9-12.2,9.9-15.7,15c3.7-0.8,7.1-1.3,10.3-1.4c3.1-0.2,5.9,0,8.5,0.4c16.2,2.6,28.1,8.9,35.6,18.8s10,22.4,7.6,37.5
					c-2.6,15.7-9.3,27.8-20.4,36.3C2175.8,1346.4,2161.7,1349.5,2145.3,1346.8z M2157.7,1270.7c-4.8-0.8-9.2-0.7-13.3,0.2
					c-2.1,0.5-6.2,2-12.1,4.3c-0.7,2.6-1.2,5.1-1.6,7.3c-2,12.3-1.4,21.8,1.7,28.6c3.2,6.8,8.9,10.9,17.2,12.2
					c8.5,1.4,15.5-0.4,21.1-5.3c5.4-4.7,8.8-11.8,10.3-21.2c1.2-7.3-0.2-13.1-4.1-17.4C2173.1,1275,2166.7,1272.1,2157.7,1270.7z"/>
			</g>
		</g>
	</g>
	<g>
		<g>
			<g>
				<defs>
					<circle id="SVGID_1_" cx="1175" cy="1175.5" r="717.4"/>
				</defs>
				<use xlink:href="#SVGID_1_"  overflow="visible" fill="#9BDAD9"/>
				<clipPath id="SVGID_2_">
					<use xlink:href="#SVGID_1_"  overflow="visible"/>
				</clipPath>
				<g clip-path="url(#SVGID_2_)">
					<rect x="409.8" y="356.7" fill="#BBD2DC" width="1540.9" height="1280.7"/>
					<path fill="#231F20" d="M1951.2,1637.9H409.4V356.2h1541.9V1637.9z M410.3,1636.9h1539.9V357.2H410.3V1636.9z"/>
				</g>
				<g clip-path="url(#SVGID_2_)">
					<g>
						<path fill="#FFFFFF" d="M1059.2,1522.3c-17.5,0-83.5-1.6-85.9-1.6H406.6c-0.4,0-1.5,0.1-3.2,0.1c-10.5,0-46.6-1.8-69.5-25.1
							c-13.5-13.7-20.2-32.3-19.8-55.3c0.6-42.4,39.6-81,81.7-81c8,0,15.8,1.3,23.3,3.9c0-0.4,0-0.8,0-1.3
							c0-57.1,44.5-103.6,99.2-103.6c10.9,0,21.7,1.9,32.1,5.6c14.6-33.9,40.7-62,75.9-81.5c35.5-19.6,79.2-30,126.4-30
							c53.7,0,104.6,16.8,143.3,47.3c37.2,29.3,58.6,68,58.6,106.2c0,3-0.2,6.2-0.5,9.3c6.4-1.4,12.9-2,19.3-2
							c36.7,0,70.6,21.6,87.7,55.3c7.9-3.5,16.2-5.2,24.9-5.2c22.6,0,46.3,12.3,61.9,32.2c13,16.4,18.2,35.3,14.2,51.7
							c-5,20.7-17,39.4-33.9,52.6C1109.5,1514.6,1085.7,1522.3,1059.2,1522.3z"/>
					</g>
					<g>
						<g>
							<path fill="#231F20" d="M752.6,1157.6c111.5,0,197,73.9,197,148.6c0,5.4-0.5,10.7-1.4,15.9c8-2.3,16.4-3.7,25.2-3.7
								c37.7,0,70.2,23.2,85.3,56.7c0.1,0,0.3,0,0.4,0c0.1,0,0.2,0,0.2,0c8.7-4.6,17.7-6.6,26.7-6.6c41,0,79.8,42.7,71.4,77.8
								c-9.2,38.2-43.9,71.1-98.1,71.1c-17.9,0-85.8-1.6-85.8-1.6c0,0,0,0-0.1,0c0,0-566.8,0-566.8,0s-1.1,0.1-3.1,0.1
								c-15.7,0-85.4-4-84.4-75.4c0.6-40.3,38.3-76.1,76.8-76.1c10.2,0,19.9,2.4,28.6,6.5c-0.2-2.9-0.4-5.8-0.4-8.7
								c0-54.5,42.2-98.7,94.3-98.7c12.3,0,24,2.6,34.8,7C581.5,1198.3,659.6,1157.6,752.6,1157.6 M752.6,1147.7
								c-48,0-92.6,10.6-128.7,30.6c-34.7,19.2-60.8,46.6-76.2,79.7c-9.6-3-19.5-4.5-29.4-4.5c-27.9,0-54.1,11.3-73.8,32
								c-18.4,19.2-29,44.4-30.2,71.3c-6-1.5-12.2-2.3-18.5-2.3c-44.7,0-86,40.9-86.6,85.8c-0.4,24.3,6.8,44.1,21.2,58.8
								c10.5,10.7,24.6,18.3,41.8,22.6c13.4,3.4,25.3,3.9,31.2,3.9c1.7,0,2.8,0,3.3-0.1h566.6c4.1,0.1,68.3,1.6,85.9,1.6
								c27.6,0,52.5-8.1,72-23.3c17.8-13.9,30.4-33.6,35.6-55.3c4.3-17.9-1.2-38.2-15.1-55.9c-16.6-21-41.8-34-65.8-34
								c-7.8,0-15.4,1.3-22.6,3.9c-8.2-14.7-19.6-27.2-33.3-36.5c-16.9-11.4-36.5-17.5-56.7-17.5c-4.6,0-9.3,0.3-14,1
								c0-1.1,0.1-2.3,0.1-3.4c0-39.7-22-79.8-60.4-110C859.3,1164.9,807.3,1147.7,752.6,1147.7L752.6,1147.7z"/>
						</g>
					</g>
				</g>
				<g clip-path="url(#SVGID_2_)">
					<g>
						<path fill="#FFFFFF" d="M1581,1060.1c-6.5,0-30.1-0.6-31.7-0.6h-209.1c-0.2,0-0.7,0-1.3,0c-5.4,0-18.8-1-27.9-10.2
							c-5.6-5.7-8.3-13.3-8.2-22.6c0.3-17.2,16.1-32.9,33.3-32.9c1.9,0,3.8,0.2,5.6,0.5c1.7-21.1,18.8-37.8,39.6-37.8
							c3.4,0,6.8,0.5,10.2,1.4c12.2-25.1,40.9-40.5,76.3-40.5c20.5,0,40,6.4,54.8,18.1c14.4,11.4,22.7,26.4,22.8,41.4
							c1.3-0.1,2.6-0.2,3.8-0.2c13.8,0,26.6,7.6,33.8,19.7c2.5-0.8,5.1-1.2,7.8-1.2c9.3,0,18.9,5,25.3,13.1
							c5.4,6.8,7.5,14.7,5.8,21.7c-2,8.3-6.8,15.8-13.6,21.1C1600.9,1057.1,1591.5,1060.1,1581,1060.1z"/>
					</g>
					<g>
						<g>
							<path fill="#231F20" d="M1467.8,922.4c41.1,0,72.7,27.3,72.7,54.8c0,2-0.2,3.9-0.5,5.9c3-0.9,6.1-1.3,9.3-1.3
								c13.9,0,25.9,8.6,31.5,20.9c0,0,0.1,0,0.1,0c0,0,0.1,0,0.1,0c3.2-1.7,6.5-2.4,9.8-2.4c15.1,0,29.4,15.8,26.3,28.7
								c-3.4,14.1-16.2,26.3-36.2,26.3c-6.6,0-31.7-0.6-31.7-0.6c0,0,0,0,0,0c0,0-209.2,0-209.2,0s-0.4,0-1.1,0
								c-5.8,0-31.5-1.5-31.1-27.8c0.2-14.9,14.1-28.1,28.3-28.1c3.8,0,7.3,0.9,10.6,2.4c-0.1-1.1-0.2-2.1-0.2-3.2
								c0-20.1,15.6-36.4,34.8-36.4c4.5,0,8.9,0.9,12.8,2.6C1404.7,937.5,1433.5,922.4,1467.8,922.4 M1467.8,912.6
								c-18.8,0-36.2,4.2-50.5,12.1c-12.4,6.8-22,16.3-28.4,27.7c-2.5-0.4-5-0.7-7.6-0.7c-21.7,0-39.8,16.1-43.8,37.3
								c-0.5,0-0.9,0-1.4,0c-9.4,0-19,4.1-26.3,11.3c-7.4,7.2-11.7,16.9-11.9,26.5c-0.2,10.7,3.1,19.5,9.6,26.1
								c10.4,10.5,25.4,11.6,31.4,11.6c0.6,0,1.1,0,1.4,0h208.9c2.1,0,25.3,0.6,31.8,0.6c11.6,0,22.1-3.4,30.4-9.9
								c7.7-6,13.1-14.5,15.4-23.9c2-8.5-0.4-17.9-6.8-25.9c-7.4-9.3-18.3-14.9-29.2-14.9c-1.9,0-3.7,0.2-5.5,0.5
								c-8.2-11.5-21.2-18.7-35.2-19c-1.7-14.7-10.4-29.1-24.4-40.2C1510,919.4,1489.4,912.6,1467.8,912.6L1467.8,912.6z"/>
						</g>
					</g>
				</g>
				<g clip-path="url(#SVGID_2_)">
					<g>
						<path fill="#FFFFFF" d="M1247,575.2c-1.8,0-8.2-0.2-8.4-0.2l-54.9,0c-0.1,0-0.2,0-0.4,0c-1.7,0-6.1-0.3-9.2-3.5
							c-1.4-1.4-3-3.9-2.9-7.8c0.1-5.8,5-10.9,10.7-11.2c1.6-5.7,6.6-9.8,12.6-9.8c0.4,0,0.9,0,1.3,0.1c4.1-6.5,12-10.4,21.5-10.4
							c11.4,0,21.1,7,22.8,15.7c3.4,0.4,6.5,2.1,8.7,4.8c0.3,0,0.6,0,0.9,0c3.3,0,6.5,1.7,8.7,4.4c1.9,2.4,2.7,5.3,2,8
							C1259,571.2,1253.6,575.2,1247,575.2z"/>
					</g>
					<g>
						<g>
							<path fill="#231F20" d="M1217.2,536.2c10.8,0,19.2,7.2,19.2,14.4c0,0.5-0.1,1-0.1,1.5c0.8-0.2,1.6-0.4,2.4-0.4
								c3.7,0,6.8,2.3,8.3,5.5c0,0,0,0,0,0c0,0,0,0,0,0c0.8-0.4,1.7-0.6,2.6-0.6c4,0,7.8,4.2,6.9,7.6c-0.9,3.7-4.3,6.9-9.5,6.9
								c-1.7,0-8.3-0.2-8.3-0.2h0h-55.1c0,0-0.1,0-0.3,0c-1.5,0-8.3-0.4-8.2-7.3c0.1-3.9,3.7-7.4,7.5-7.4c1,0,1.9,0.2,2.8,0.6
								c0-0.3,0-0.6,0-0.8c0-5.3,4.1-9.6,9.2-9.6c1.2,0,2.3,0.2,3.4,0.7C1200.6,540.2,1208.2,536.2,1217.2,536.2 M1217.2,528.4
								c-10,0-18.5,3.8-23.5,10.3c-6.6,0.3-12.2,4.4-14.8,10.3c-6.5,1.7-11.6,7.7-11.7,14.7c-0.1,5.3,2.2,8.7,4.1,10.7
								c4.1,4.2,9.8,4.6,12,4.6c0.2,0,0.3,0,0.5,0h54.9c1,0,6.7,0.2,8.4,0.2c8.4,0,15.3-5.2,17.2-12.9c0.9-3.8-0.1-7.9-2.8-11.3
								c-2.7-3.5-6.8-5.6-11-5.9c-2-2-4.6-3.5-7.3-4.3C1239.9,535.4,1229.3,528.4,1217.2,528.4L1217.2,528.4z"/>
						</g>
					</g>
				</g>
				<g clip-path="url(#SVGID_2_)">
					<g>
						<g>
							<g>
								<polygon fill="#B8A999" points="421.1,1962.2 1517.5,996.8 1551.1,1013.6 1632.6,922.2 1708.1,996.5 1734.5,966.2 
									1805.6,1038.1 2227.3,1468.6 1778.6,1712.9 1720.7,1962.2 								"/>
							</g>
							<g>
								<path fill="#231F20" d="M1632.8,930.1l75.6,74.3l26.3-30.2l66.9,67.8l416.7,425.3l-444.6,242l-57.5,247.5h-1281
									l1082.9-953.5l34.1,17L1632.8,930.1 M1632.3,914.4l-7.5,8.5l-74.9,84.1l-26.7-13.3l-6.5-3.3l-5.5,4.8L428.3,1948.7
									l-21.5,18.9h28.6h1281h8.6l1.9-8.4l56.4-242.8l440.3-239.7l12.6-6.8l-10-10.2l-416.7-425.3l-67-67.8l-8.2-8.3l-7.7,8.8
									l-18.8,21.6l-67.4-66.2L1632.3,914.4L1632.3,914.4z"/>
							</g>
						</g>
						<g>
							<g>
								<polygon fill="#FFFFFF" points="1613.5,1027.6 1595.9,1013.5 1637.5,927.8 1693.4,982.7 1643.1,1009.6 1612.1,1069.8 
																	"/>
							</g>
							<g>
								<path fill="#231F20" d="M1639,936.1l46.2,45.4l-45.8,24.5l-21.6,42l0.8-22.6l-16.5-13.3L1639,936.1 M1636.1,919.5l-6,12.3
									l-36.9,76l-3.4,7l6.1,4.9l12.7,10.2l-0.6,17.7l-1.5,43.9l20.1-39l20.2-39.3l43.1-23l11.8-6.3l-9.5-9.4l-46.2-45.4
									L1636.1,919.5L1636.1,919.5z"/>
							</g>
						</g>
						<g>
							<g>
								<polygon fill="#FFFFFF" points="1753.2,1095.7 1757.7,1072.6 1705.8,1042.3 1737,969.3 1876.6,1111.2 1802.8,1086.6 
									1780.6,1138.8 								"/>
							</g>
							<g>
								<path fill="#231F20" d="M1738.6,978l120.1,122.1l-58.6-19.6l-20.4,47.8l-21.3-33.6l4.7-24.6l-51.1-29.8L1738.6,978
									 M1735.3,960.7l-5.8,13.5l-26.6,62.2l-3.4,8l7.5,4.4l45.1,26.3l-3.4,17.8l-0.7,3.8l2.1,3.3l21.3,33.6l10,15.8l7.3-17.2
									l16.8-39.5l50,16.7l38.8,13l-28.7-29.2l-120.1-122.1L1735.3,960.7L1735.3,960.7z"/>
							</g>
						</g>
					</g>
					<g>
						<g>
							<polygon fill="#FFFFFF" points="1485.9,1071.8 1513.8,1025 1522.2,999.7 1549.6,1014.1 1493.8,1077.6 							"/>
						</g>
						<g>
							<path fill="#231F20" d="M1525,1006.7l16.8,8.8l-51.7,58.8l28.2-47.3L1525,1006.7 M1519.3,992.7l-3.6,11l-6.4,19.3l-27.7,46.4
								l15.8,11.5l51.7-58.8l8.3-9.4l-11.1-5.8l-16.8-8.8L1519.3,992.7L1519.3,992.7z"/>
						</g>
					</g>
				</g>
				<g clip-path="url(#SVGID_2_)">
					<g>
						<path fill="#FFFFFF" d="M1710.4,862.8c-4.1,0-19.1-0.4-19.8-0.4l-129.8,0c-0.2,0-0.4,0-0.8,0c-3.4,0-12.1-0.6-17.9-6.6
							c-3.6-3.7-5.4-8.6-5.3-14.7c0.2-11.2,10.4-21.3,21.5-21.3c0.9,0,1.8,0.1,2.7,0.2c1.5-13.1,12.3-23.3,25.4-23.3
							c2,0,3.9,0.2,5.8,0.7c7.9-15.5,25.8-25,47.9-25c12.9,0,25.2,4.1,34.6,11.5c8.9,7,14.1,16.2,14.5,25.5c0.5,0,1,0,1.5,0
							c8.7,0,16.7,4.6,21.4,12.1c1.4-0.4,2.9-0.6,4.4-0.6c6,0,12.3,3.2,16.4,8.4c3.5,4.4,4.9,9.6,3.8,14.2
							C1733.5,856.8,1721.2,862.8,1710.4,862.8z"/>
					</g>
					<g>
						<g>
							<path fill="#231F20" d="M1640.1,776.4c25.5,0,45.2,16.9,45.2,34.1c0,1.2-0.1,2.4-0.3,3.6c1.8-0.5,3.8-0.8,5.8-0.8
								c8.7,0,16.1,5.3,19.6,13c0,0,0.1,0,0.1,0c0,0,0,0,0,0c2-1.1,4.1-1.5,6.1-1.5c9.4,0,18.3,9.8,16.4,17.8
								c-2.1,8.8-10.1,16.3-22.5,16.3c-4.1,0-19.7-0.4-19.7-0.4s0,0,0,0h-129.9c0,0-0.3,0-0.7,0c-3.6,0-19.6-0.9-19.3-17.3
								c0.1-9.2,8.8-17.4,17.6-17.4c2.3,0,4.6,0.5,6.6,1.5c-0.1-0.7-0.1-1.3-0.1-2c0-12.5,9.7-22.6,21.6-22.6c2.8,0,5.5,0.6,8,1.6
								C1600.9,785.7,1618.8,776.4,1640.1,776.4 M1640.1,768.5c-12,0-23.1,2.7-32.2,7.7c-7.6,4.2-13.6,9.9-17.7,16.8
								c-1.3-0.2-2.5-0.3-3.8-0.3c-13.8,0-25.4,9.9-28.6,23.1c-13.1,0.3-24.7,11.9-24.9,25.2c-0.1,8.9,3.5,14.4,6.5,17.5
								c6.9,7,16.8,7.8,20.7,7.8c0.4,0,0.7,0,0.9,0h129.7c1.4,0,15.8,0.4,19.8,0.4c17.1,0,27.5-11.2,30.1-22.3
								c1.4-5.8-0.3-12.2-4.5-17.6c-4.9-6.2-12.2-9.9-19.5-9.9c-0.9,0-1.8,0.1-2.7,0.2c-5.1-6.7-12.8-11-21.1-11.6
								c-1.5-9.1-7-17.9-15.6-24.6C1667,772.9,1653.9,768.5,1640.1,768.5L1640.1,768.5z"/>
						</g>
					</g>
				</g>
				<g clip-path="url(#SVGID_2_)">
					<g>
						<path fill="#EED898" d="M191.8,1719.1v-210.2h88.9v-12.8H313v-24.3h71.2v24.3h23.2v-81.9l96.8,23.4v43l19.4,24v-125.4h0.4
							c2-32.9,29.4-59,62.8-59h3.9v22.5c23.8,2.5,42.2,21.5,44.1,45.3h0.4v58.4h88.7v49.7h24.4v-24.3h71.2v47.8h49.1v-34l70.8,24.2
							v40.2h53.1v169.2H191.8z"/>
					</g>
					<g>
						<g>
							<path fill="#231F20" d="M586.8,1324.2v22.2c24.5,0.8,44.2,20.9,44.2,45.6h0.2v58.4h88.7v49.7h32.2v-24.3h63.4v47.8h57v-32.4
								l63,21.5v41.3h53.1v161.3H195.8v-202.4h88.9V1500H317v-24.3h63.4v24.3h31v-80.8l88.9,21.5v41.3l27.3,33.7v-132.6h0.3
								C527.8,1350.6,554.2,1324.2,586.8,1324.2 M594.6,1316.3h-7.9c-34.2,0-62.5,25.8-66.4,59h-0.7v7.9v110.3l-11.5-14.3v-38.5
								v-6.2l-6-1.5l-88.9-21.5l-9.7-2.3v10v72.9h-15.3v-16.5v-7.9h-7.9H317h-7.9v7.9v16.5h-24.4h-7.9v7.9v4.9h-81.1h-7.9v7.9v202.4
								v7.9h7.9h792.8h7.9v-7.9v-161.3v-7.9h-7.9h-45.2v-33.4v-5.6l-5.3-1.8l-63-21.5l-10.4-3.6v11v24.6h-41.2v-40v-7.9h-7.9h-63.4
								h-7.9v7.9v16.5h-16.5v-41.8v-7.9h-7.9h-80.9V1392v-7.9h-0.8c-1.6-11-6.7-21.3-14.6-29.4c-7.9-8.2-18.1-13.5-29.1-15.4v-15.1
								V1316.3L594.6,1316.3z"/>
						</g>
					</g>
				</g>
				<g clip-path="url(#SVGID_2_)">
					<g>
						<path fill="#EED898" d="M394.9,1943.4v-219.3h272.8v-13.4h33.7v-25.4h74.1v25.4H800v-85.5l100.8,24.4v42.3h20.6v-72.3
							l0.3-29.5l3.9,0c0.3,0,28,0.3,61.6,0.3l0.1,0c21,0.7,24.3,0.7,36.4,0.7c2.6,0,5.7,0,9.4,0l3.7,0l0.3,6.6h0.4v61h92.7v51.9
							h25.8v-25.4h74.1v25.4h54v-85.5l100.8,24.4v42.3H1520l0-41.5h71.9l-2.1,41.5h146.7v251.5H394.9z"/>
					</g>
					<g>
						<g>
							<path fill="#231F20" d="M925.6,1594.1c0,0,27.6,0.3,61.7,0.3c25.7,0.8,25.1,0.6,45.9,0.7l0.3,6.6h0.2v61h92.7v51.9h33.7
								v-25.4h66.2v25.4h61.9v-84.5l92.9,22.5v43.1h142.7l0-41.5h63.9l-2.1,41.5h146.9v243.7H398.9V1728h272.8v-13.4h33.7v-25.4
								h66.2v25.4H804v-84.5l92.9,22.5v43.1h28.5v-76.3L925.6,1594.1 M917.9,1586.1l-0.1,7.9l-0.3,25.5v0v0v68.4h-12.8v-35.3v-6.2
								l-6-1.5l-92.9-22.5l-9.7-2.3v10v76.6h-16.7v-17.6v-7.9h-7.9h-66.2h-7.9v7.9v17.6h-25.8h-7.9v7.9v5.5H398.9H391v7.9v211.5v7.9
								h7.9h1333.7h7.9v-7.9v-243.7v-7.9h-7.9h-138.6l1.7-33.3l0.4-8.3h-8.3h-63.9h-7.9v7.9l0,33.7h-127v-35.3v-6.2l-6-1.5
								l-92.9-22.5l-9.7-2.3v10v76.6h-46.2v-17.6v-7.9h-7.9h-66.2h-7.9v7.9v17.6h-18v-44v-7.9h-7.9h-84.9v-53.1v-7.9h-0.6l-0.3-6.6
								l-7.5,0c-3.7,0-6.8,0-9.4,0c-12.1,0-15.3,0-36.3-0.7l-0.1,0h-0.1c-33.6,0-61.3-0.3-61.6-0.3L917.9,1586.1L917.9,1586.1z"/>
						</g>
					</g>
				</g>
				<g clip-path="url(#SVGID_2_)">
					<g>
						<path fill="#FFFFFF" d="M436.7,925.5c-31.1,0-56.5-18.4-56.5-40.9c0-18.5,17.4-34.8,41.8-39.5c3.8-27.6,35.8-48.7,74.9-48.7
							c36,0,66.3,17.8,73.6,42.8c29.6,1.5,52.4,19,52.4,40.8c0,22.6-25.3,40.9-56.4,40.9L436.7,925.5L436.7,925.5z"/>
					</g>
					<g>
						<g>
							<path fill="#231F20" d="M496.9,800.2c35.8,0,65.4,18.5,70.5,42.7c28.6,0.4,51.6,16.8,51.6,37c0,20.4-23.5,37-52.6,37
								l-129.8,4.7c-29,0-52.6-16.6-52.6-37c0-17.8,17.8-32.6,41.5-36.2C427.2,821.6,458.5,800.2,496.9,800.2 M496.9,792.4
								c-39.7,0-72.6,21.2-78.3,49.4c-10.7,2.5-20.4,7.2-27.7,13.5c-9.4,8.1-14.6,18.5-14.6,29.4c0,12.5,6.7,24.1,18.7,32.6
								c11.2,7.9,26,12.3,41.7,12.3h0.1l0.1,0l129.6-4.7c15.6,0,30.3-4.4,41.5-12.3c12.1-8.5,18.7-20.1,18.7-32.6
								c0-12.4-6.5-23.8-18.4-32.3c-9.6-6.9-21.9-11.1-35.1-12.2c-4.2-11.5-13.1-21.9-25.7-29.6
								C533.6,797.1,515.5,792.4,496.9,792.4L496.9,792.4z"/>
						</g>
					</g>
				</g>
				<use xlink:href="#SVGID_1_"  overflow="visible" fill="none" stroke="#231F20" stroke-width="15" stroke-miterlimit="10"/>
			</g>
		</g>
		<g>
			<g>
				<line fill="#FFBA8E" x1="523.5" y1="1481.1" x2="557.1" y2="1481.1"/>
				<rect x="523.5" y="1477.2" fill="#231F20" width="33.6" height="7.9"/>
			</g>
			<g>
				<line fill="#FFBA8E" x1="653.6" y1="1612" x2="696.8" y2="1612"/>
				<rect x="653.6" y="1608.1" fill="#231F20" width="43.2" height="7.9"/>
			</g>
			<g>
				<line fill="#FFBA8E" x1="925.3" y1="1646.7" x2="980.4" y2="1646.7"/>
				<rect x="925.3" y="1642.8" fill="#231F20" width="55.1" height="7.9"/>
			</g>
			<g>
				<line fill="#FFBA8E" x1="924.4" y1="1692" x2="956.5" y2="1692"/>
				<rect x="924.4" y="1688" fill="#231F20" width="32.1" height="7.9"/>
			</g>
			<g>
				<line fill="#FFBA8E" x1="612.7" y1="1526.6" x2="666" y2="1526.6"/>
				<rect x="612.7" y="1522.7" fill="#231F20" width="53.2" height="7.9"/>
			</g>
			<g>
				<line fill="#FFBA8E" x1="667.6" y1="1567.8" x2="747.9" y2="1567.8"/>
				<rect x="667.6" y="1563.9" fill="#231F20" width="80.3" height="7.9"/>
			</g>
			<g>
				<line fill="#FFBA8E" x1="1029.8" y1="1820.3" x2="1093.8" y2="1820.3"/>
				<rect x="1029.8" y="1816.4" fill="#231F20" width="64" height="7.9"/>
			</g>
			<g>
				<line fill="#FFBA8E" x1="1000.7" y1="1731.8" x2="1064.6" y2="1731.8"/>
				<rect x="1000.7" y="1727.9" fill="#231F20" width="63.9" height="7.9"/>
			</g>
			<g>
				<line fill="#FFBA8E" x1="1064.6" y1="1775.1" x2="1142" y2="1775.1"/>
				<rect x="1064.6" y="1771.2" fill="#231F20" width="77.4" height="7.9"/>
			</g>
			<g>
				<line fill="#FFBA8E" x1="525.5" y1="1446.1" x2="577.8" y2="1446.1"/>
				<rect x="525.5" y="1442.2" fill="#231F20" width="52.4" height="7.9"/>
			</g>
			<g>
				<line fill="#FFBA8E" x1="525.5" y1="1411.1" x2="557.1" y2="1411.1"/>
				<rect x="525.5" y="1407.1" fill="#231F20" width="31.6" height="7.9"/>
			</g>
			<g>
				<line fill="#FFBA8E" x1="526.4" y1="1378.1" x2="567.5" y2="1378.1"/>
				<rect x="526.4" y="1374.2" fill="#231F20" width="41" height="7.9"/>
			</g>
			<g>
				<line fill="#FFBA8E" x1="623.8" y1="1481.1" x2="681.7" y2="1481.1"/>
				<rect x="623.7" y="1477.2" fill="#231F20" width="57.9" height="7.9"/>
			</g>
		</g>
	</g>
	<g>
		<defs>
			<circle id="SVGID_3_" cx="1175" cy="1175.5" r="717.4"/>
		</defs>
		<clipPath id="SVGID_4_">
			<use xlink:href="#SVGID_3_"  overflow="visible"/>
		</clipPath>
		<g clip-path="url(#SVGID_4_)">
			<g>
				<g>
					<path fill="#9BDAD9" d="M1139.3,1619.2c-3.7,0-7.8-0.7-12.3-2c-17.1-5-24.8-12.2-30.4-17.5c-0.8-0.8-1.6-1.5-2.4-2.3
						c-9.2-8.2-4.3-20.9-1.4-28.5c0.5-1.3,1-2.5,1.3-3.4c1-3,2.6-5.4,4.4-7.2c-26.3-10.6-58-26.6-84.9-49c-4.6-3.9-11.9-9.5-21-16.5
						c-19.3-14.9-47.9-37-79.8-64.4c-9.1,10.1-19.7,18.2-29.3,22.5c-4.6,2-8.4,3-12,3c-9.1,0-14.5-6-20.8-12.9
						c-1.1-1.2-2.2-2.4-3.4-3.7c-3.5-3.7-5.2-8.5-5-13.7c0.6-13.1,13.6-26.1,17.9-30.1l5-7.9C780,1305,722,1226.5,692.6,1152
						c-1.2,0.2-2.4,0.5-3.6,0.7c-5.3,0.9-10.7,1.3-16,1.3c-26.4,0-52.3-10.8-72.9-30.5c-20.3-19.4-34.1-46.2-38.9-75.4
						c-5.2-32.1,0.9-63.8,17.3-89.4c16.6-25.9,42-42.8,71.4-47.6c2.6-0.4,5.1-0.8,7.7-1c2.1-14.2,7.3-33.5,19.7-55.1
						c-7.4-6.1-14.2-14.1-21.7-23.9c-7.5-9.9-8.9-22-4-34.8c3.7-9.5,9.9-17.2,12.8-20.9l0.2-0.3c3.8-4.7,10.2-7.5,17.5-7.5
						c9,0,18.2,3.8,26.1,10.8c7.4,6.5,20.6,9.4,27.7,10.3c3.3-2.7,6.6-5.2,10-7.7l0.4-0.3l28-16.2l0.2-0.1c13.9-7,36.8-19,67.2-36.1
						c2.8-1.6,5.6-3.2,8.5-4.8c44.2-25.1,104.7-59.5,225.9-59.5c21.9,0,45.3,1.1,69.7,3.4c-0.5-9.8,1.5-20.8,9.7-29.3
						c11.7-12.2,28.3-26.8,41.7-26.8c0.5,0,1.1,0,1.6,0.1c0.8,0.1,2,0.1,3.3,0.2c11.3,0.5,37.7,1.7,47.4,24
						c7,16.1,4.3,36.5,0.3,49.2l0.3,0.1c2.6,0.7,64.3,17.3,110.4,99.7c7.6,13.6,14.6,26,21,37.3c32.2,57.1,49.9,88.6,60,118.1
						c10.9,31.9,36.3,106.6,87.3,130.4c7.5,3.5,15,6.6,22.3,9.5c38.5,15.7,75,30.6,102.6,104.7c5.9-3.1,8.2-4.8,8.9-5.5
						c6.8-6,15.9-13,25.7-13c2.3,0,4.5,0.4,6.6,1.1c7.2,2.6,18.3,9.9,11.4,29.2c-4,11.3-23.3,27.3-37.8,37.1
						c6,28.3,5.3,58.8-2.2,90.8c-6.5,27.9-18.2,56.9-34.5,86.2c-29.4,52.5-65.2,90.3-77,99.5c-8.9,6.9-35.9,26.4-54.1,39.3
						c0.8,4.1,1.2,8.9,1.2,14.5c0,23.6-17.5,42.7-39,42.7c-23.4,0-35.1-9.6-38-31.7c-32,3.8-128.2,6.8-186.7,6.8
						c-29.6,0-51.6-0.6-65.7-1.9c-2.5,16.4-13,28.1-16.5,31.5C1154.2,1614.3,1149.5,1619.2,1139.3,1619.2z"/>
				</g>
				<g>
					<path fill="#231F20" d="M1197.2,619c0.3,0,0.6,0,0.9,0c8.1,0.7,35.4-0.7,44.3,19.5c8.9,20.3-0.5,48.5-3.6,52.1l9.5,1.6
						c0,0,60.5,15.5,105.5,95.9c45,80.4,68.6,119.5,80.4,154.2s37.6,109.9,91.5,135c48.7,22.7,92,25.5,123.8,118
						c7.1-3.4,15.1-7.6,18.5-10.6c5.6-5,13.3-11,20.4-11c1.3,0,2.6,0.2,3.9,0.7c8.1,3,10.3,8.9,6.6,19.2
						c-3.2,8.8-21.9,25.2-39.3,36.2c30.6,124.1-86.7,256-109.7,273.8c-9.1,7-39.3,28.9-58.3,42.3c1.9,5.2,2.4,11.3,2.4,17.7
						c0,18.2-13,34.9-31.2,34.9c-21,0-30.2-7.9-30.8-33c-0.1,0-0.1,0.1-0.2,0.1c-9,3.5-115.7,8-193.7,8c-33.3,0-61.3-0.8-74.2-2.9
						c0.8,1.9,1.2,3.8,1,5.8c-1.7,17.8-15.2,29.8-15.2,29.8s-1.7,5-10.5,5c-2.7,0-6-0.5-10.1-1.7c-17.7-5.2-23.6-12.5-29.8-18.1
						c-6.2-5.5-0.1-17,2.2-23.6c2.2-6.6,9.6-8.1,9.6-8.1h8.1l0.3-2.1c-31.8-11.2-69.8-28.7-100.9-54.5
						c-15.4-12.8-57.3-43.2-106.7-86.1c-9.1,11.6-21.1,21.8-31.7,26.5c-3.6,1.6-6.4,2.3-8.8,2.3c-6.6,0-10.4-5.5-18.5-14.1
						c-11.1-11.8,13.3-33.3,13.3-33.3l9-14.3c-69.1-64.6-143.3-149.1-177.8-241.4c-3.2,0.9-6.4,1.6-9.8,2.1
						c-4.9,0.8-9.8,1.2-14.7,1.2c-50.5,0-94.7-42.5-104-99.3c-10.2-62.3,25.8-118.8,82.2-128c4.5-0.7,9-1.2,13.5-1.5
						c1.5-16.1,6.9-38.9,23.1-64.5c-9.3-5.9-17.3-15.3-25.9-26.5c-14-18.4,3.7-39.8,9-46.4c2.3-2.9,6.4-4.5,11.4-4.5
						c6.3,0,13.9,2.7,20.9,8.8c12.5,11.1,35.4,12.5,35.4,12.5v0c3.9-3.2,7.9-6.4,12.2-9.6l27.4-15.9c14.3-7.2,37.2-19.2,67.5-36.2
						c45.8-25.7,103.7-63.3,230.5-63.3c22.4,0,47,1.2,74,3.8l4.8,0.8c-2-9.4-2.8-23.4,6.3-33C1175.5,628.4,1189,619,1197.2,619
						 M1197.2,603.3C1197.2,603.3,1197.2,603.3,1197.2,603.3c-12.9,0-28.9,9.8-47.4,29.3c-6.6,6.9-10.5,15.9-11.6,26.2
						c-21.7-1.8-42.5-2.7-62.1-2.7c-123.3,0-184.8,35-229.8,60.5c-2.9,1.6-5.7,3.2-8.4,4.8c-30.3,17-53.1,28.9-66.9,35.9l-0.4,0.2
						l-0.4,0.2l-27.4,15.9l-0.8,0.5l-0.7,0.5c-2.5,1.9-5,3.8-7.5,5.7c-6.3-1.1-15.4-3.5-20.3-7.9c-9.3-8.2-20.5-12.8-31.3-12.8
						c-9.7,0-18.3,3.8-23.6,10.4l-0.2,0.3c-3.2,4-10,12.3-14.1,23c-5.9,15.3-4.1,30.4,5.1,42.4c6.2,8.1,11.9,15.1,18,20.9
						c-9.3,17.5-14.1,33.5-16.5,46.3c-0.7,0.1-1.4,0.2-2.2,0.3c-31.7,5.2-59,23.3-76.8,51.1c-17.4,27.2-24,60.9-18.4,94.9
						c5,30.9,19.7,59.2,41.2,79.8c22.1,21.1,49.9,32.7,78.3,32.7c4.9,0,9.8-0.3,14.7-1c30,72.4,86.2,148.3,167.4,225.9l-1.1,1.7
						c-1.8,1.8-4.8,4.8-7.9,8.6c-7.4,9.2-11.4,18-11.8,26.2c-0.3,7.4,2.1,14.1,7.1,19.5c1.2,1.3,2.3,2.5,3.4,3.7
						c6.9,7.6,14.1,15.4,26.6,15.4c4.7,0,9.6-1.2,15.2-3.7c8.7-3.9,18.1-10.6,26.7-18.9c29.8,25.3,56.2,45.8,74.5,59.9
						c9.1,7,16.3,12.6,20.8,16.4c15.5,12.9,40.9,30.5,78.4,46.7c-0.1,0.3-0.2,0.7-0.4,1c-0.3,0.8-0.7,1.9-1.1,3.1
						c-1.5,3.9-3.4,8.8-4.2,14.1c-1.8,12.6,4,19.9,7.6,23.1c0.7,0.6,1.5,1.4,2.3,2.1c6.2,5.8,14.7,13.8,33.6,19.3
						c5.2,1.5,10.1,2.3,14.5,2.3c11.7,0,19.2-5.2,23.1-11c4-4.1,12.5-14.1,16.5-28c14.3,0.9,34.2,1.4,59.5,1.4
						c36.6,0,82.7-1,123.3-2.7c28.5-1.2,46-2.3,56.9-3.3c1.7,6.7,4.7,13.5,10.1,19.1c10.3,10.6,24.5,11.8,34.3,11.8
						c13.3,0,25.5-5.7,34.3-16.1c8.1-9.4,12.5-21.7,12.5-34.5c0-4-0.2-7.6-0.6-10.9c18-12.8,42-30.2,50.4-36.7
						c12.2-9.5,49.1-48.3,79-101.8c16.7-29.9,28.6-59.6,35.3-88.2c7.3-31.2,8.4-61.2,3.3-89.1c6.4-4.5,12.5-9.5,17.9-14.4
						c15-13.6,17.7-21.2,18.6-23.7c3.1-8.7,3.5-16.2,1.1-22.9c-1.9-5.3-6.4-12.4-17.2-16.4c-3-1.1-6.1-1.6-9.3-1.6
						c-12.3,0-22.8,7.8-30.6,14.8c-11.9-29.1-26-50.5-43.7-66.5c-19.1-17.2-39.8-25.7-59.9-33.9c-7.2-2.9-14.6-6-21.9-9.4
						c-48-22.4-72.7-94.8-83.2-125.8c-10.3-30.2-28.1-61.9-60.6-119.5c-6.3-11.1-13.4-23.8-21-37.3c-39-69.7-89.5-94.1-108.1-101.1
						c0.7-3.1,1.1-5.4,1.2-6c1.7-10.8,2.5-26.7-3.8-41.1c-3.6-8.2-11.5-19.3-28.7-24.8c-9.9-3.2-19.7-3.6-25.5-3.9
						c-1.2-0.1-2.4-0.1-3-0.2C1198.8,603.3,1198,603.3,1197.2,603.3L1197.2,603.3L1197.2,603.3z"/>
				</g>
			</g>
			<g>
				<g>
					<path fill="#FFBA8E" d="M1139.3,1616.2c-3.4,0-7.3-0.6-11.5-1.9c-16.4-4.8-23.5-11.5-29.2-16.8c-0.8-0.8-1.7-1.6-2.5-2.3
						c-7.7-6.9-3.4-17.9-0.6-25.3c0.5-1.3,1-2.5,1.3-3.6c2.5-7.4,9.5-10.6,13.3-11.4l0.5-0.1h4.3l2.4-20l5.8,2.2
						c0.5,0.2,11.9,4.5,23.2,11.1c16.6,9.6,24.5,19.3,23.6,28.8c-1.7,17.2-13.1,29.4-16.1,32.3
						C1152.4,1611.7,1148.6,1616.2,1139.3,1616.2C1139.3,1616.2,1139.3,1616.2,1139.3,1616.2z"/>
				</g>
				<g>
					<path fill="#231F20" d="M1121.4,1541.7c0,0,45.4,17,43.6,34.8c-1.7,17.8-15.2,29.8-15.2,29.8s-1.7,5-10.5,5
						c-2.7,0-6-0.5-10.1-1.7c-17.7-5.2-23.6-12.5-29.8-18.1c-6.2-5.5-0.1-17,2.2-23.6c2.2-6.6,9.6-8.1,9.6-8.1h8.1L1121.4,1541.7
						 M1113.2,1528.1l-1.5,12.4l-1.2,9.5h-0.4l-1,0.2c-1.3,0.3-13.1,2.9-17,14.6c-0.3,0.9-0.8,2.1-1.2,3.3
						c-1.4,3.6-3.2,8.2-3.8,12.8c-1.4,9.4,2.4,14.9,5.7,17.9c0.8,0.7,1.6,1.4,2.4,2.2c5.8,5.4,13.7,12.8,31.2,17.9
						c4.7,1.4,9,2.1,12.9,2.1c9.7,0,15.7-4.3,18.5-8.9c4.1-4.1,15.3-17,17-34.8c1.1-11.7-7.4-22.7-26-33.5
						c-11.7-6.8-23.5-11.3-24-11.4L1113.2,1528.1L1113.2,1528.1z"/>
				</g>
			</g>
			<g>
				<g>
					<path fill="#FFBA8E" d="M1645.8,1241.4c-3.3,0-6.2-1.3-8.5-3.9c-8-9-5.7-32.5-5.2-37.1l0.3-2.8l2.6-1.1
						c6.6-2.8,24.7-11,29.6-15.4c6.4-5.7,14.9-12.2,23.7-12.2c1.9,0,3.8,0.3,5.6,1c13.7,5,12.8,16.6,9.6,25.4
						c-2.6,7.2-12.1,16.4-19.6,22.7c-9.6,8.1-21,16.1-30.6,21.2C1650.7,1240.7,1648.2,1241.4,1645.8,1241.4z"/>
				</g>
				<g>
					<path fill="#231F20" d="M1688.4,1173.8c1.3,0,2.6,0.2,3.9,0.7c8.1,3,10.3,8.9,6.6,19.2s-28.8,31-47.9,41.3
						c-2,1.1-3.7,1.6-5.2,1.6c-12.9,0-8.8-35.5-8.8-35.5s24.3-10.3,31-16.2C1673.6,1179.8,1681.3,1173.8,1688.4,1173.8 M1688.4,1164
						L1688.4,1164c-10.5,0-19.9,7.2-27,13.5c-3.4,3-17.3,9.9-28.3,14.5l-5.3,2.2l-0.7,5.7c0,0.3-0.8,7.1-0.7,15
						c0.2,12.3,2.5,20.8,7.1,25.9c3.2,3.6,7.5,5.5,12.1,5.5c3.2,0,6.5-0.9,9.9-2.7c18.2-9.8,47.3-32,52.5-46.7
						c7.7-21.7-6.2-29.4-12.5-31.7C1693.4,1164.4,1691,1164,1688.4,1164L1688.4,1164z"/>
				</g>
			</g>
			<g>
				<g>
					<path fill="#FFBA8E" d="M871.4,1450.9c-7.8,0-12.3-5-18.6-11.9c-1.1-1.2-2.2-2.4-3.5-3.8c-2.9-3.1-4.4-7.1-4.2-11.6
						c0.6-12.4,14-25.4,17.3-28.3l20-31.9l4,2.1c3.4,1.8,33,17.8,37.4,33.7c1.1,4,0.6,7.9-1.4,11.3c-9.6,15.9-26.1,31.4-40.3,37.7
						C878,1450.1,874.6,1450.9,871.4,1450.9C871.4,1450.9,871.4,1450.9,871.4,1450.9z"/>
				</g>
				<g>
					<path fill="#231F20" d="M884.2,1369.9c0,0,43.3,22.9,34.1,38c-9.1,15.2-24.8,29.8-38.1,35.7c-3.6,1.6-6.4,2.3-8.8,2.3
						c-6.6,0-10.4-5.5-18.5-14.1c-11.1-11.8,13.3-33.3,13.3-33.3L884.2,1369.9 M880.7,1357l-4.9,7.7l-17.3,27.5
						c-4.7,4.3-17.7,17.6-18.4,31.3c-0.3,5.8,1.6,11,5.5,15.1c1.2,1.3,2.3,2.5,3.4,3.7c6.6,7.2,12.3,13.5,22.2,13.5
						c3.9,0,7.9-1,12.8-3.2c15.2-6.8,32.3-22.7,42.5-39.6c2.7-4.5,3.4-9.8,1.9-15.1c-2.3-8.2-9.7-16.8-22.7-26
						c-8.7-6.2-16.8-10.5-17.1-10.7L880.7,1357L880.7,1357z"/>
				</g>
			</g>
			<g>
				
					<rect x="804.5" y="1394.8" transform="matrix(0.9339 0.3575 -0.3575 0.9339 676.4935 -174.0033)" fill="#231F20" width="8.8" height="696.3"/>
			</g>
			<g>
				
					<rect x="1090.2" y="1540.3" transform="matrix(0.9599 0.2802 -0.2802 0.9599 559.6269 -232.9796)" fill="#231F20" width="8.8" height="601.1"/>
			</g>
			<g>
				
					<rect x="1287.7" y="1791.7" transform="matrix(0.2641 0.9645 -0.9645 0.2641 2908.7217 -220.0372)" fill="#231F20" width="621.6" height="8.8"/>
			</g>
			<g>
				<g>
					<g>
						<path fill="#9BDAD9" d="M708.3,864.7c-0.3,0-0.6,0-0.9,0c-22.2-1.1-36.2-17.2-49.8-35.1c-7-9.2-8.3-20.4-3.6-32.5
							c3.5-9.2,9.6-16.7,12.5-20.3l0.2-0.3c3.4-4.2,9-6.5,15.6-6.5c8.4,0,17.1,3.6,24.5,10.2c9.1,8.1,26.3,10.8,32.2,11.2l5.1,0.3
							l0,26.4l-0.2,0.7C742.5,823.5,730.5,864.7,708.3,864.7C708.3,864.7,708.3,864.7,708.3,864.7z"/>
					</g>
					<g>
						<path fill="#231F20" d="M682.2,775.4c6.3,0,13.9,2.7,20.9,8.8c12.5,11.1,35.4,12.5,35.4,12.5l0,20.6c0,0-11.5,41.9-30.3,41.9
							c-0.2,0-0.4,0-0.6,0c-19.2-1-31.7-14.5-45.7-32.9c-14-18.4,3.7-39.8,9-46.4C673.2,777.1,677.3,775.4,682.2,775.4 M682.2,764.6
							c-8.2,0-15.4,3.1-19.8,8.6l-0.2,0.3c-3.1,3.8-9.5,11.7-13.3,21.7c-5.3,13.9-3.8,26.9,4.4,37.7c14.4,18.9,29.3,35.9,53.8,37.2
							c0.4,0,0.8,0,1.2,0c12.2,0,23-9.1,31.9-26.9c5.6-11.3,8.7-22.5,8.9-22.9l0.4-1.4l0-1.5l0-20.6l0-10.1l-10.1-0.6
							c-5.3-0.4-21-2.8-28.9-9.8C701.9,768.7,691.9,764.6,682.2,764.6L682.2,764.6z"/>
					</g>
				</g>
				<g>
					<g>
						<path fill="#231F20" d="M685.4,815.6C685.4,815.6,685.4,815.6,685.4,815.6c0.1,0.1,0.1,0.1,0.2,0.2c0.1,0.1,0.2,0.1,0.3,0.4
							c0,0.1,0,0.3,0,0.3c0,0,0,0.1,0,0.1c0,0,0,0,0,0l0,0l0.1,0l0.2,0.1c0.1,0.1,0.2,0.1,0.3,0.2l0.2,0.1l0.1,0.1
							c0.1,0.1,0.3,0.2,0.4,0.4c0.1,0.1,0.1,0.1,0.2,0.2c0,0.1,0,0,0,0c0,0,0,0,0,0c0,0-0.1-0.1-0.1-0.2c0-0.1,0-0.1,0-0.2
							c0-0.1,0-0.2-0.1-0.3c0-0.1,0-0.2,0-0.3l0-0.2c0-0.1,0,0,0,0c0,0,0,0.1-0.1,0.1c-0.2,0.1-0.6,0.1-1.1,0.1
							c-1-0.1-2.2-0.5-3.4-1c-1.2-0.4-2.3-0.9-3.3-1.3c-2-0.8-3.5-1.3-4.1-0.8c-0.6,0.5-0.1,2.1,1.2,4.1c0.6,1,1.5,2.1,2.6,3.2
							c1.1,1.1,2.3,2.2,4.1,3.2c0.9,0.5,1.9,0.9,3.1,1.2c1.3,0.2,2.9,0.2,4.5-0.4c0.8-0.3,1.5-0.8,2.2-1.3c0.6-0.5,1.1-1.1,1.5-1.6
							c0.8-1.1,1.2-2.1,1.5-2.9c0.7-1.9,0.8-3.9,0.6-5.2c-0.1-0.7-0.2-1.2-0.3-1.6c-0.1-0.4-0.2-0.6-0.2-0.7c-0.1-0.2-0.4-1-1.1-1.9
							c-0.7-0.9-1.6-2.1-2.8-3c-2.4-2-5.5-3.5-8.5-4.5c-6.1-2-12.2-2.2-12.6-0.7c-0.4,1.5,4.6,4.4,8.9,7.8c2.1,1.7,4,3.5,4.8,4.8
							c0.5,0.6,0.6,1.1,0.7,1.4C685.4,815.4,685.4,815.5,685.4,815.6z"/>
					</g>
				</g>
			</g>
			<g>
				<g>
					<path fill="#9BDAD9" d="M1238.3,1579.1c-42.3,0-68.9-1.3-79.1-3.8c-26.6-6.5-94-26.2-144.1-67.9c-4.7-3.9-11.9-9.5-21.1-16.6
						c-41.7-32.3-119.4-92.4-188.8-170.2c-85.6-96-130.3-187.8-132.8-272.8l-12.2-104.5c-0.7-3-4.4-22.6,3.6-50.8
						c14.1-49.5,53.3-86.9,83.7-109.6l0.2-0.2l27.8-16.1l0.1-0.1c13.9-7.1,36.8-19.1,67.3-36.1c2.8-1.6,5.6-3.2,8.5-4.8
						c44-25,104.2-59.2,224.7-59.2c23.3,0,48.4,1.3,74.5,3.8l0.2,0l98.5,16.8l0.2,0.1c2.6,0.7,63.3,17,108.9,98.5
						c7.6,13.6,14.6,26,21,37.3c32.1,57,49.8,88.4,59.8,117.7c11,32.2,36.6,107.6,88.6,131.8c7.6,3.5,15.1,6.6,22.4,9.6
						c22.6,9.2,44,18,63.5,38.4c21.5,22.5,37.6,56.2,50.6,106c7.7,29.6,7.7,61.8-0.1,95.7c-6.4,27.9-17.9,56.9-34.2,86.2
						c-29.3,52.6-65,90.4-76.8,99.6c-12.9,10-68,49.5-74.2,53.4l-1,0.6l-1.2,0.1c-0.3,0-30.5,3.7-42.9,8.5
						C1423.2,1574.9,1311.1,1579.1,1238.3,1579.1C1238.3,1579.1,1238.3,1579.1,1238.3,1579.1z"/>
				</g>
				<g>
					<path fill="#231F20" d="M1076.2,671.8c22.4,0,47,1.2,74,3.8l98.1,16.7c0,0,60.5,15.5,105.5,95.9c45,80.4,68.6,119.5,80.4,154.2
						s37.6,109.9,91.5,135s101.1,25.8,133.5,150.5c32.5,124.7-86.1,257.9-109.2,275.9c-12.8,10-67.9,49.4-73.8,53.1
						c0,0-31,3.7-44.3,8.9c-9,3.5-115.7,8-193.7,8c-36.8,0-67.1-1-77.8-3.6c-33.2-8.1-95.5-28.1-141.9-66.8
						c-46.5-38.7-334.6-237.4-340.8-455.8l-12.3-105.1c0,0-19.1-77.4,85.2-155.1l27.4-15.9c14.3-7.2,37.2-19.2,67.5-36.2
						C891.4,709.4,949.3,671.8,1076.2,671.8 M1076.2,661c-54,0-100.6,6.6-142.3,20.3c-36.1,11.8-62.1,26.6-85,39.6
						c-2.9,1.6-5.7,3.2-8.5,4.8c-30.3,17-53.2,29-67.1,36l-0.3,0.1l-0.3,0.2l-27.4,15.9l-0.5,0.3l-0.5,0.4
						c-24.7,18.4-44.8,38.4-59.7,59.4c-12.1,17.1-20.8,34.9-26,53c-8.1,28.5-4.7,48.9-3.8,53.2l12.1,104.1
						c2.6,86.2,47.7,179.1,134.2,276c69.7,78.2,147.7,138.5,189.6,170.9c9.1,7.1,16.3,12.6,20.9,16.5c51,42.5,119.3,62.4,146.3,69
						c10.6,2.6,37.7,3.9,80.4,3.9c36.5,0,82.5-1,123.1-2.7c66-2.8,72.1-5.2,74.5-6.1c9.8-3.8,33.4-7.2,41.6-8.2l2.4-0.3l2.1-1.3
						c6.3-3.9,61.7-43.7,74.7-53.7c12.1-9.4,48.6-47.9,78.2-101.2c16.6-29.8,28.3-59.3,34.7-87.6c7.9-34.8,8-67.9,0-98.3
						c-13.2-50.7-29.7-85.2-51.9-108.4c-20.3-21.2-42.2-30.2-65.4-39.7c-7.2-3-14.7-6-22.1-9.5c-21.1-9.8-40.1-29.8-56.6-59.4
						c-14.3-25.7-23.6-53-29.2-69.3c-10.1-29.8-27.9-61.3-60.2-118.6c-6.3-11.1-13.4-23.8-21-37.3
						c-46.7-83.5-109.6-100.4-112.2-101.1l-0.4-0.1l-0.4-0.1l-98.1-16.7l-0.4-0.1l-0.4,0C1124.9,662.3,1099.7,661,1076.2,661
						L1076.2,661z"/>
				</g>
			</g>
			<g>
				<polygon fill="#231F20" points="816.8,2162.3 808.5,2159.2 1066.1,1468.5 1055.4,1424.5 1064,1422.4 1075.4,1469.1 				"/>
			</g>
			<g>
				
					<rect x="1082.9" y="1438.6" transform="matrix(0.535 0.8448 -0.8448 0.535 1737.5542 -240.5791)" fill="#231F20" width="8.8" height="39.3"/>
			</g>
			<g>
				<polygon fill="#231F20" points="1368.2,2223.2 1339.5,1543.1 1318,1507.5 1325.5,1502.9 1348.2,1540.4 1348.3,1541.5 
					1377,2222.8 				"/>
			</g>
			<g>
				
					<rect x="1352.7" y="1492.8" transform="matrix(0.863 0.5052 -0.5052 0.863 953.303 -477.5119)" fill="#231F20" width="8.8" height="52.6"/>
			</g>
			<g>
				<polygon fill="#231F20" points="1845.1,2050.8 1559.5,1320.4 1528.2,1309.1 1531.2,1300.8 1566.3,1313.4 1567,1315.3 
					1853.3,2047.6 				"/>
			</g>
			<g>
				<rect x="1558.5" y="1277.3" fill="#231F20" width="8.8" height="39.6"/>
			</g>
			<g>
				<g>
					<path fill="#FFBA8E" d="M1365.9,1313.6c-10.8,0-38.1-9.6-52.1-27.8c-8.2-10.7-12.9-19.3-15-27.1c-2.8-10.5-0.7-20,6.5-29.8
						c6.5-8.9,14-10.8,19.2-10.8c6.3,0,12.9,2.7,19.6,8c6.2,5,12.4,12.2,17.9,20.9c6.6,10.5,11.7,23.6,14.2,36
						c1.9,9.8,2.8,22.6-3.6,28.6C1371,1312.9,1368.9,1313.6,1365.9,1313.6z"/>
				</g>
				<g>
					<path fill="#231F20" d="M1324.4,1223c5.4,0,11,2.6,16.5,6.9c6,4.8,11.8,11.7,16.8,19.7c13.1,20.9,19.1,51.2,11.4,58.3
						c-0.5,0.5-1.7,0.8-3.2,0.8c-9.5,0-35.4-9.1-48.2-25.9c-7.6-10-12.2-18.1-14.1-25.3c-2.5-9.5-0.3-17.4,5.7-25.6
						C1313.8,1225.7,1319,1223,1324.4,1223 M1324.4,1213.2L1324.4,1213.2c-6.3,0-15.4,2.2-23.1,12.8c-8.1,11.1-10.4,21.9-7.2,34
						c2.2,8.5,7.3,17.6,15.8,28.8c15.2,19.8,44.1,29.8,56,29.8c4.2,0,7.5-1.1,9.9-3.4c6.5-6,8.2-17.2,5.1-33.1
						c-2.6-13-8-26.7-14.8-37.7c-5.8-9.2-12.3-16.8-19-22.1C1339.5,1216.2,1331.9,1213.2,1324.4,1213.2L1324.4,1213.2z"/>
				</g>
			</g>
			<g>
				<g>
					<g>
						<path fill="#FFFFFF" d="M865.1,1215.3c-6.5,0-11.7-1.4-14.6-2.2c-2.4-0.6-8.6-2.3-14.4-39.3l-0.1-0.4v-14.5l55.8-10.1l0.9,4.8
							c0.7,3.7,7.1,36.2,7.5,41.1c0.6,8.4-2.9,10-16.1,16.3C878.1,1213.8,871.7,1215.3,865.1,1215.3
							C865.1,1215.3,865.1,1215.3,865.1,1215.3z"/>
					</g>
					<g>
						<path fill="#231F20" d="M888,1154.5c0,0,7,35.8,7.4,40.6c0.4,4.8,0,5.2-13.3,11.4c-6.2,2.9-12,3.8-16.9,3.8
							c-5.7,0-10.3-1.2-13.3-2c-5.5-1.5-10.8-35.4-10.8-35.4v-10L888,1154.5 M895.8,1143.1l-9.5,1.7l-47,8.5l-8.1,1.5v8.2v10v0.8
							l0.1,0.8c0.1,0.4,1.4,8.9,3.5,17.8c1.3,5.4,2.6,9.9,3.8,13.3c1.8,4.8,4.7,10.6,10.7,12.2c3.1,0.8,8.7,2.3,15.8,2.3
							c7.3,0,14.4-1.6,21.1-4.8c7.5-3.6,11.3-5.4,14-7.7c5.6-4.8,5.1-10.6,4.9-13.4c-0.4-5-5.9-33.2-7.5-41.7L895.8,1143.1
							L895.8,1143.1z"/>
					</g>
				</g>
				<g>
					
						<rect x="841.2" y="1177.5" transform="matrix(0.1692 0.9856 -0.9856 0.1692 1887.7842 125.3704)" fill="#231F20" width="56.7" height="9.8"/>
				</g>
				<g>
					<g>
						<path fill="#FFBA8E" d="M828.2,1179.4c-1.6,0-3.1-0.1-4.4-0.3c-16.8-2.1-27.8-13-30.1-30c-1.8-12.9,4.3-27.1,6.7-30.9
							c3.7-5.7,15.8-16.1,55.1-21.6c5.1-0.7,10.2-1.6,15.1-2.5c8.7-1.6,16.9-3.1,24.3-3.1c6.4,0,11.6,1.1,16,3.5
							c9.2,4.9,15.2,16.6,17.7,34.8c3.5,25.1-3.9,33.4-62.1,43.6c-5,0.9-9.7,1.9-14.3,2.9C843,1177.7,835.1,1179.4,828.2,1179.4
							C828.2,1179.4,828.2,1179.4,828.2,1179.4z"/>
					</g>
					<g>
						<path fill="#231F20" d="M894.8,1095.9c5.1,0,9.7,0.8,13.7,2.9c7.9,4.2,12.9,15.3,15.1,31.1c2.8,20.4,0.5,27.8-58.1,38.1
							c-14.8,2.6-27.5,6.4-37.3,6.4c-1.3,0-2.6-0.1-3.8-0.2c-16.4-2.1-24.1-13.2-25.9-25.8c-1.6-11.5,4-24.6,5.9-27.5
							c6.3-9.7,29.1-16.2,51.6-19.4C870.4,1099.6,883.8,1095.9,894.8,1095.9 M894.8,1086.1c-7.9,0-16.3,1.6-25.2,3.2
							c-4.8,0.9-9.8,1.8-14.8,2.5c-21.6,3-49.4,9.5-58.5,23.8c-3.1,4.9-9.4,20.2-7.4,34.2c2.6,19.1,15.5,31.9,34.4,34.2
							c1.6,0.2,3.3,0.3,5,0.3c7.5,0,15.6-1.7,24.9-3.7c4.5-1,9.2-2,14.1-2.8c31.5-5.6,47.3-10.4,56.3-17.1
							c12.9-9.7,11.1-23.2,9.8-32c-2.7-19.8-9.5-32.7-20.2-38.4C908,1087.4,902,1086.1,894.8,1086.1L894.8,1086.1z"/>
					</g>
				</g>
				<g>
					<g>
						<path fill="#B8A999" d="M826.6,1108.7c-13.6,0-21.4-5-23.3-14.8c-1.4-7.3,1.6-14.5,8.5-20.5c6.5-5.7,16.2-9.8,28.1-12.1
							c5.5-1,10.8-1.6,15.7-1.6c16.7,0,29.1,6.1,33.1,16.3c2.4,6.2,2.4,11.5-0.1,15.9c-4.8,8.5-17.2,10.4-31.6,12.7
							c-3.5,0.6-7.1,1.1-10.7,1.8C838.4,1108,832,1108.7,826.6,1108.7C826.6,1108.7,826.6,1108.7,826.6,1108.7z"/>
					</g>
					<g>
						<g>
							<path fill="#231F20" d="M855.6,1065.2c15,0,25.1,5.3,28.1,12.9c7.4,18.9-15.2,18.7-38.4,23.1c-7.4,1.4-13.6,2.1-18.7,2.1
								c-10.9,0-16.6-3.3-18-10.4c-2-10.4,9.1-21.8,32.2-26.2C846.2,1065.7,851.1,1065.2,855.6,1065.2 M855.6,1054.4
								c-5.3,0-10.9,0.6-16.7,1.7c-12.8,2.4-23.4,7-30.6,13.3c-8.2,7.1-11.9,16.5-10.2,25.6c1.3,6.7,4.9,11.9,10.6,15.2
								c4.6,2.7,10.5,4,18,4c5.7,0,12.5-0.8,20.7-2.3c3.5-0.7,7.1-1.2,10.6-1.8c15.7-2.5,29.3-4.6,35.4-15.3
								c3.3-5.8,3.5-12.7,0.4-20.6C888.9,1061.8,874.6,1054.4,855.6,1054.4L855.6,1054.4z"/>
						</g>
					</g>
				</g>
			</g>
			<g>
				<g>
					<path fill="#9BDAD9" d="M798.2,1304.4c0,0,20.8,0.8,28.9,0"/>
					<path fill="#231F20" d="M815.9,1308.7c-8.4,0-17.3-0.3-17.9-0.4c-2.2-0.1-3.9-1.9-3.8-4.1c0.1-2.2,1.9-3.8,4.1-3.8
						c0.2,0,20.6,0.8,28.4,0c2.2-0.2,4.1,1.4,4.3,3.5c0.2,2.2-1.4,4.1-3.5,4.3C824.6,1308.6,820.4,1308.7,815.9,1308.7z"/>
				</g>
				<g>
					<path fill="#9BDAD9" d="M878.2,1296.8c0,0,21.6-0.1,30-3.5"/>
					<path fill="#231F20" d="M878.2,1300.7c-2.2,0-3.9-1.8-3.9-3.9c0-2.2,1.7-3.9,3.9-3.9c5.8,0,22.2-0.6,28.5-3.2
						c2-0.8,4.3,0.1,5.1,2.1c0.8,2-0.1,4.3-2.1,5.1C900.9,1300.6,880.5,1300.7,878.2,1300.7C878.2,1300.7,878.2,1300.7,878.2,1300.7
						z"/>
				</g>
				<g>
					<path fill="#9BDAD9" d="M1050.6,1277.3c0,0,23.6-4.1,43.5-11.5"/>
					<path fill="#231F20" d="M1050.6,1281.2c-1.9,0-3.5-1.3-3.9-3.3c-0.4-2.1,1.1-4.2,3.2-4.6c0.2,0,23.5-4.2,42.8-11.3
						c2-0.7,4.3,0.3,5,2.3c0.7,2-0.3,4.3-2.3,5c-20,7.3-43.2,11.5-44.2,11.6C1051.1,1281.2,1050.8,1281.2,1050.6,1281.2z"/>
				</g>
				<g>
					<path fill="#9BDAD9" d="M1162,1236.5c0,0,37.6-3.3,47.9-13.5"/>
					<path fill="#231F20" d="M1162,1240.4c-2,0-3.7-1.5-3.9-3.6c-0.2-2.2,1.4-4.1,3.6-4.3c0.1,0,9.4-0.8,19.8-2.9
						c13-2.6,22.2-5.9,25.8-9.5c1.5-1.5,4-1.5,5.6,0c1.5,1.5,1.5,4,0,5.6c-11,10.9-46.4,14.3-50.4,14.6
						C1162.2,1240.4,1162.1,1240.4,1162,1240.4z"/>
				</g>
				<g>
					<path fill="#9BDAD9" d="M1284.4,1165.6c0,0,39.1-30.6,47.9-43"/>
					<path fill="#231F20" d="M1284.4,1169.5c-1.2,0-2.3-0.5-3.1-1.5c-1.3-1.7-1-4.2,0.7-5.5c0.4-0.3,38.8-30.4,47.2-42.2
						c1.3-1.8,3.7-2.2,5.5-0.9c1.8,1.3,2.2,3.7,0.9,5.5c-9.1,12.7-47.1,42.5-48.7,43.8C1286.1,1169.3,1285.3,1169.5,1284.4,1169.5z"
						/>
				</g>
				<g>
					<path fill="#9BDAD9" d="M1375.9,1065.2c0,0,24.3-30.2,23.6-42.7"/>
					<path fill="#231F20" d="M1375.9,1069.1c-0.9,0-1.7-0.3-2.5-0.9c-1.7-1.4-2-3.8-0.6-5.5c9-11.2,23.2-32,22.7-40
						c-0.1-2.2,1.5-4,3.7-4.2c2.2-0.1,4,1.5,4.2,3.7c0.4,6.1-3.6,15.5-12.2,28.4c-6,9.2-12.1,16.6-12.3,17
						C1378.2,1068.6,1377.1,1069.1,1375.9,1069.1z"/>
				</g>
				<g>
					<path fill="#9BDAD9" d="M1413.5,976c0,0,15.7-35.9,13.7-51.5"/>
					<path fill="#231F20" d="M1413.5,980c-0.5,0-1.1-0.1-1.6-0.3c-2-0.9-2.9-3.2-2-5.2c4.2-9.7,14.9-37.5,13.4-49.4
						c-0.3-2.2,1.3-4.1,3.4-4.4c2.2-0.3,4.1,1.3,4.4,3.4c2.1,16.5-13.4,52.1-14,53.6C1416.5,979.1,1415,980,1413.5,980z"/>
				</g>
				<g>
					<path fill="#9BDAD9" d="M900.9,1223c0,0,15.9,19.3,23.4,28.2"/>
					<path fill="#231F20" d="M924.3,1255.1c-1.1,0-2.2-0.5-3-1.4c-7.5-8.8-23.3-28-23.5-28.2c-1.4-1.7-1.1-4.2,0.5-5.5
						c1.7-1.4,4.2-1.1,5.5,0.5c0.2,0.2,15.9,19.4,23.4,28.1c1.4,1.7,1.2,4.1-0.4,5.5C926.1,1254.8,925.2,1255.1,924.3,1255.1z"/>
				</g>
				<g>
					<path fill="#9BDAD9" d="M956.9,1285.8c0,0,18.4,14.7,34.7,22.9"/>
					<path fill="#231F20" d="M991.6,1312.6c-0.6,0-1.2-0.1-1.8-0.4c-16.4-8.2-34.6-22.7-35.4-23.3c-1.7-1.4-2-3.8-0.6-5.5
						c1.4-1.7,3.8-2,5.5-0.6c0.2,0.1,18.3,14.6,34,22.4c1.9,1,2.7,3.3,1.8,5.3C994.4,1311.8,993,1312.6,991.6,1312.6z"/>
				</g>
				<g>
					<path fill="#9BDAD9" d="M1066.5,1355.2c0,0,26.9,36.6,43.1,43.4"/>
					<path fill="#231F20" d="M1109.6,1402.5c-0.5,0-1-0.1-1.5-0.3c-7.3-3.1-17.1-11.6-29.1-25.3c-8.8-10-15.4-19-15.7-19.4
						c-1.3-1.7-0.9-4.2,0.8-5.5c1.7-1.3,4.2-0.9,5.5,0.8c7.3,9.9,29,36.8,41.5,42.1c2,0.8,2.9,3.1,2.1,5.1
						C1112.6,1401.6,1111.2,1402.5,1109.6,1402.5z"/>
				</g>
				<g>
					<path fill="#9BDAD9" d="M1176,1451.1c0,0,30.8,33.9,50.4,40.6"/>
					<path fill="#231F20" d="M1226.4,1495.6c-0.4,0-0.8-0.1-1.3-0.2c-20.4-6.9-50.8-40.2-52.1-41.7c-1.5-1.6-1.3-4.1,0.3-5.6
						c1.6-1.5,4.1-1.3,5.6,0.3c0.3,0.3,30.3,33.3,48.8,39.5c2.1,0.7,3.2,2.9,2.5,5C1229.6,1494.5,1228.1,1495.6,1226.4,1495.6z"/>
				</g>
				<g>
					<path fill="#9BDAD9" d="M836.7,1033.6c0,0-13.3-26.6-14-42"/>
					<path fill="#231F20" d="M836.7,1037.5c-1.4,0-2.8-0.8-3.5-2.2c-0.6-1.1-13.7-27.5-14.4-43.6c-0.1-2.2,1.6-4,3.7-4.1
						c2.2-0.1,4,1.6,4.1,3.7c0.7,14.5,13.5,40.2,13.6,40.5c1,1.9,0.2,4.3-1.8,5.3C837.9,1037.4,837.3,1037.5,836.7,1037.5z"/>
				</g>
				<g>
					<path fill="#9BDAD9" d="M822.7,936.2c0,0-2.6-28.8,0-50.2"/>
					<path fill="#231F20" d="M822.7,940.1c-2,0-3.7-1.5-3.9-3.6c-0.1-1.2-2.7-29.4,0-51c0.3-2.2,2.2-3.7,4.4-3.4
						c2.2,0.3,3.7,2.2,3.4,4.4c-2.6,20.7,0,49,0,49.3c0.2,2.2-1.4,4.1-3.6,4.3C822.9,940.1,822.8,940.1,822.7,940.1z"/>
				</g>
				<g>
					<path fill="#9BDAD9" d="M817.5,822.6c0,0,9.6-22.9,12.2-38.4"/>
					<path fill="#231F20" d="M817.5,826.5c-0.5,0-1-0.1-1.5-0.3c-2-0.8-2.9-3.1-2.1-5.1c0.1-0.2,9.5-22.6,11.9-37.5
						c0.4-2.1,2.4-3.6,4.5-3.2c2.1,0.4,3.6,2.4,3.2,4.5c-2.6,15.8-12.1,38.3-12.5,39.2C820.5,825.6,819,826.5,817.5,826.5z"/>
				</g>
				<g>
					<path fill="#9BDAD9" d="M1294,772.5c0,0,33.2,37.6,38.4,53.8"/>
					<path fill="#231F20" d="M1332.4,830.2c-1.7,0-3.2-1.1-3.7-2.7c-4-12.7-28.5-42.1-37.6-52.4c-1.4-1.6-1.3-4.1,0.3-5.5
						c1.6-1.4,4.1-1.3,5.5,0.3c1.4,1.6,33.8,38.4,39.2,55.3c0.7,2.1-0.5,4.3-2.6,4.9C1333.2,830.2,1332.8,830.2,1332.4,830.2z"/>
				</g>
				<g>
					<path fill="#9BDAD9" d="M1370.4,894.7c0,0,21.7,46.8,21.7,55.6"/>
					<path fill="#231F20" d="M1392.1,954.2c-2.2,0-3.9-1.8-3.9-3.9c0-5.5-12.5-34.9-21.4-54c-0.9-2-0.1-4.3,1.9-5.2
						c2-0.9,4.3-0.1,5.2,1.9c3.7,8,22.1,48.1,22.1,57.3C1396.1,952.5,1394.3,954.2,1392.1,954.2z"/>
				</g>
				<g>
					<path fill="#9BDAD9" d="M1420.5,1001.9c0,0,10.7,30.2,19.6,37.6"/>
					<path fill="#231F20" d="M1440.1,1043.4c-0.9,0-1.8-0.3-2.5-0.9c-9.4-7.8-19.6-36.1-20.8-39.3c-0.7-2,0.3-4.3,2.4-5
						c2-0.7,4.3,0.3,5,2.4c2.9,8.1,11.8,30.4,18.4,35.9c1.7,1.4,1.9,3.9,0.5,5.5C1442.3,1042.9,1441.2,1043.4,1440.1,1043.4z"/>
				</g>
				<g>
					<path fill="#9BDAD9" d="M1489.5,1084.3c0,0,28.8,23.1,45.7,30.5"/>
					<path fill="#231F20" d="M1535.2,1118.6c-0.5,0-1.1-0.1-1.6-0.3c-17.3-7.5-45.4-30-46.6-31c-1.7-1.4-2-3.8-0.6-5.5
						c1.4-1.7,3.8-2,5.5-0.6c0.3,0.2,28.6,22.8,44.8,29.9c2,0.9,2.9,3.2,2,5.2C1538.2,1117.8,1536.8,1118.6,1535.2,1118.6z"/>
				</g>
				<g>
					<path fill="#9BDAD9" d="M1582.4,1150.1c0,0,32.5,23.6,40.6,40.6"/>
					<path fill="#231F20" d="M1623,1194.6c-1.5,0-2.9-0.8-3.5-2.2c-7.6-15.9-39-38.9-39.3-39.1c-1.8-1.3-2.1-3.7-0.9-5.5
						c1.3-1.8,3.7-2.1,5.5-0.9c1.4,1,33.4,24.4,41.8,42.1c0.9,2,0.1,4.3-1.9,5.2C1624.2,1194.5,1623.6,1194.6,1623,1194.6z"/>
				</g>
			</g>
			<g>
				<g>
					<g>
						<path fill="#FFFFFF" d="M673,1151.1c-25.7,0-50.8-10.6-70.9-29.7c-19.8-19-33.3-45.2-38-73.7c-10.7-65.3,27.2-124,86.3-133.6
							c6.9-1.1,13.8-1.7,20.5-1.7c26.7,0,50.7,8.6,69.4,24.8c20.3,17.6,33.4,43.8,37.7,75.7c9,66-31.2,127.5-89.6,137
							C683.4,1150.6,678.2,1151.1,673,1151.1C673,1151.1,673,1151.1,673,1151.1z"/>
					</g>
					<g>
						<path fill="#231F20" d="M670.9,917.2c49.1,0,93.4,30.9,102.3,96.2c8.5,62.5-29.1,122.3-85.5,131.5c-4.9,0.8-9.8,1.2-14.7,1.2
							c-50.5,0-94.7-42.5-104-99.3c-10.2-62.3,25.8-118.8,82.2-128C657.8,917.8,664.4,917.2,670.9,917.2 M670.9,907.4
							c-7,0-14.2,0.6-21.3,1.8c-30,4.9-55.9,22.1-72.8,48.5c-16.6,26-22.9,58.2-17.6,90.8c4.8,29.6,18.9,56.8,39.5,76.5
							c21,20,47.3,31.1,74.3,31.1c5.4,0,10.9-0.4,16.3-1.3c61-10,103-73.9,93.7-142.5c-4.5-33.1-18.1-60.3-39.4-78.7
							C723.9,916.4,698.8,907.4,670.9,907.4L670.9,907.4z"/>
					</g>
				</g>
				<g>
					<g>
						<path fill="#231F20" d="M669.8,1023.9c0,17.9-18.5,33.2-36.4,33.2c-17.9,0-28.6-15.3-28.6-33.2c0-17.9,12-28.9,30-28.9
							C652.8,995,669.8,1005.9,669.8,1023.9z"/>
					</g>
					<g>
						<path fill="#FFFFFF" d="M616.1,1024.2c0,0,1.6-17.1,13.4-20.3c0,0,5.4-1.6,3.7,4.3c0,0,9.6-1.6,9.1,3.2c0,0-2.7,11.8-10.2,15
							C632.2,1026.4,623,1028,616.1,1024.2z"/>
					</g>
				</g>
			</g>
			<g>
				<g>
					<g>
						<path fill="#FFFFFF" d="M1027.2,1074c-36.2,0-70-13-95.1-36.5c-25.5-23.9-40.4-57.3-41.8-94.1c-0.8-21.4-0.3-46.8,10.1-73.1
							c11.7-29.5,33.4-54.6,66.5-76.8c17.5-11.7,45.9-18.6,76.1-18.6c37.2,0,72.3,10.2,98.7,28.7c32.6,22.9,51.7,58.2,55.1,102.1
							c3.3,42.7-7.7,80.6-31.8,109.5c-25.9,31.1-66.8,50.9-118.1,57.4C1040.4,1073.6,1033.7,1074,1027.2,1074
							C1027.2,1074,1027.2,1074,1027.2,1074z"/>
					</g>
					<g>
						<path fill="#231F20" d="M1043.1,779.9c64.5,0,141.5,32.2,148.9,126.3c6.3,80.4-39.5,148.2-145.6,161.7
							c-6.5,0.8-12.8,1.2-19.1,1.2c-71.4,0-129.1-51.7-132-125.8c-1.7-43.3,2.8-97.7,74.4-145.6
							C985.9,786.9,1013.2,779.9,1043.1,779.9 M1043.1,770.1c-31.2,0-60.6,7.3-78.9,19.5c-34,22.7-56.3,48.6-68.4,79.1
							c-10.7,27.1-11.3,53.1-10.4,75.1c1.5,38.1,16.9,72.7,43.4,97.5c26,24.4,61,37.8,98.4,37.8c6.7,0,13.6-0.4,20.3-1.3
							c26.9-3.4,50.9-10.3,71.5-20.6c19.9-9.9,36.6-22.9,49.7-38.6c25-29.9,36.3-69,32.9-113c-1.9-23.8-8.1-45.2-18.5-63.6
							c-9.5-16.7-22.5-30.9-38.6-42.2C1117.4,780.6,1081.3,770.1,1043.1,770.1L1043.1,770.1z"/>
					</g>
				</g>
				<g>
					<g>
						<path fill="#231F20" d="M1161.8,892.1c0,20.4-21,37.7-41.3,37.7c-18.7,0-30.4-14.7-32.2-32.9c-1.9-20.3,13.4-37.6,33.8-37.6
							C1142.4,859.2,1161.8,871.7,1161.8,892.1z"/>
					</g>
					<g>
						<path fill="#FFFFFF" d="M1100.8,892.5c0,0,1.8-19.4,15.2-23.1c0,0,6.1-1.8,4.3,4.9c0,0,10.9-1.8,10.3,3.6c0,0-3,13.4-11.5,17
							C1119,894.9,1108.7,896.7,1100.8,892.5z"/>
					</g>
				</g>
			</g>
			<g>
				<g>
					<path fill="#FFBA8E" d="M1462.9,1602c-24.6,0-34.2-11-34.2-39.2c0-20.5,5.8-34.4,34.3-35.3c0.8,0,1.6,0,2.4,0
						c28.5,0,32.2,19.4,32.2,36.3C1497.6,1584.9,1482,1602,1462.9,1602z"/>
				</g>
				<g>
					<path fill="#231F20" d="M1465.4,1530.9c24.9,0,28.7,15.2,28.7,32.9c0,18.2-13,34.9-31.2,34.9c-21.8,0-30.8-8.5-30.8-35.8
						c0-18.2,4.2-31,31-31.9C1463.9,1530.9,1464.6,1530.9,1465.4,1530.9 M1465.4,1524c-0.8,0-1.6,0-2.5,0
						c-33.2,1.1-37.6,20.2-37.6,38.8c0,15.5,2.9,25.9,9,32.7c8,8.9,20.2,9.9,28.7,9.9c10.6,0,20.4-4.6,27.6-13
						c6.7-7.8,10.4-18,10.4-28.7c0-8.3-0.7-18.8-6.2-26.9C1489,1528.3,1479.1,1524,1465.4,1524L1465.4,1524z"/>
				</g>
			</g>
			<g>
				<g>
					<path fill="#231F20" d="M1136.8,690.7l12.8-3.6c0,0-13.7-33.1,4.2-51.8c17.9-18.8,34.9-30.4,44.7-29.5
						c9.8,0.9,42.9-0.9,53.6,23.7c10.7,24.6-0.6,58.8-4.3,63.2s-4.6,14.2-10.9,17.7c-6.3,3.6-11.6,9.8-4.5,13.4"/>
					<path fill="#231F20" d="M1232.2,724.2c-2.4-1.2-3.6-2.8-3.7-4.7c-0.1-3.6,4.1-7.3,8.1-9.6c3.7-2.1,5.4-6.4,7.1-10.6
						c1.1-2.7,2.1-5.3,3.6-7c3.4-4,15.1-37.7,4.2-62.6c-9.3-21.4-35.9-22.6-48.7-23.1c-1.8-0.1-3.3-0.1-4.5-0.3
						c-9.4-0.9-26,10.1-44.3,29.4c-17.5,18.3-4.2,51-4.1,51.3l0.2,0.5l-13.4,3.7l-0.3-0.9l12.3-3.4c-1.6-4.3-12.2-34.4,4.5-51.9
						c18.5-19.4,35.4-30.5,45.1-29.7c1.2,0.1,2.7,0.2,4.4,0.3c13,0.6,40,1.8,49.6,23.7c11,25.3-0.9,59.6-4.4,63.7
						c-1.4,1.6-2.4,4.1-3.5,6.8c-1.7,4.1-3.6,8.8-7.5,11.1c-4.7,2.7-7.7,6.1-7.6,8.7c0,1.5,1.1,2.8,3.1,3.8L1232.2,724.2z"/>
				</g>
				<g>
					<g>
						<path fill="#231F20" d="M1227.1,717.8c0.7,0.4,9.6,4.7,17.9,9.7c4.2,2.4,8.2,5,11.1,7.1c2.9,2.1,4.8,3.6,5.2,3.2
							c0.4-0.3-0.8-2.6-3.2-5.4c-2.5-2.8-6.1-6.2-10.1-9.3c-7.8-6.2-16.6-11.5-17.3-11.9c-1.4-0.8-3.4,0.1-4.3,1.9
							C1225.5,715,1225.8,717,1227.1,717.8z"/>
					</g>
				</g>
				<g>
					<path fill="#9BDAD9" d="M1244.5,733.1l-68.5-9.3l-48.5-34.3l30.4-3.3c0,0-11.3-27.3,3.4-42.8s28.8-25.1,36.9-24.3
						c8.1,0.7,35.4-0.7,44.3,19.5c8.9,20.3-0.5,48.5-3.6,52.1c-3.1,3.6-3.8,11.7-9,14.6c-5.2,3-6.6,10.5-0.7,13.4L1244.5,733.1z"/>
				</g>
				<g>
					<g>
						<path fill="#231F20" d="M1189.1,666.4c0,0-0.2,0.2-0.4-0.1c0,0,0,0,0-0.1l0,0c0,0,0-0.1,0-0.1c0-0.2,0.1-0.5,0.2-0.7
							c0.2-0.5,0.4-1.1,0.8-1.7c0.7-1.2,1.7-2.6,2.8-3.9c2.3-2.6,5-5.1,7.1-7.1c2.1-2,3.4-3.4,3.1-4.1c-0.3-0.7-2.4-0.6-5.3,0.3
							c-2.9,0.9-6.6,2.5-10.1,4.9c-1.8,1.2-3.5,2.6-5,4.3c-0.8,0.8-1.5,1.7-2.1,2.7c-0.3,0.5-0.6,1-0.9,1.5l-0.2,0.4l-0.2,0.5
							c-0.1,0.3-0.2,0.7-0.3,1c-0.1,0.3-0.2,0.7-0.3,1c-0.1,0.3-0.1,0.7-0.2,1c0,0.3-0.1,0.6-0.1,1c0,0.3,0,0.6,0,0.9
							c0,0.6,0.1,1.1,0.1,1.6c0.1,0.5,0.2,1,0.3,1.4c0.5,1.7,1.4,2.6,1.6,2.8c0.2,0.2,1,1.1,2.6,1.9c0.4,0.2,0.8,0.4,1.4,0.6
							c0.5,0.2,1,0.4,1.6,0.5c0.6,0.1,1.2,0.2,1.9,0.3c0.3,0,0.5,0,0.8,0c0.2,0,0.5,0,0.7,0c3.8,0,7.9-0.8,11.8-2
							c7.7-2.4,14.5-6.1,14.1-7.6c-0.5-1.5-8-0.5-15.4-0.3c-3.7,0.1-7.3,0-9.5-0.5c-0.1,0-0.2-0.1-0.4-0.1l-0.2,0l-0.1,0
							c0,0,0-0.1,0-0.1C1189,666.6,1189,666.5,1189.1,666.4C1189,666.4,1189.1,666.4,1189.1,666.4z"/>
					</g>
				</g>
			</g>
		</g>
		<use xlink:href="#SVGID_3_"  overflow="visible" fill="none" stroke="#231F20" stroke-miterlimit="10"/>
	</g>
</g>
</svg>
